<svg width="122" height="71" viewBox="0 0 122 71" fill="none" xmlns="http://www.w3.org/2000/svg">
<path d="M112.358 56.2257C111.174 51.7541 107.932 48.7989 104.238 48.4749C102.437 48.3193 100.244 48.6823 98.7623 50.0821C97.4346 51.3523 96.4671 53.0761 95.8805 55.0332C94.6866 59.0123 95.4894 63.2506 97.167 66.8279C97.6713 67.9037 98.2991 68.7591 99.1739 69.3683C100.059 69.9774 101.037 70.5088 102.025 70.794C103.044 71.0921 104.063 71.0403 105.082 70.807C106.049 70.5866 107.089 70.3274 107.963 69.7442C108.89 69.135 109.589 68.0851 110.269 67.113C110.958 66.115 111.586 65.0781 112.008 63.8598C112.842 61.4749 112.976 58.7401 112.358 56.2257C112.07 55.0332 110.578 55.5387 110.866 56.7441C111.319 58.5846 111.308 60.5158 110.825 62.3433C110.341 64.2097 109.27 65.7651 108.169 67.126C107.583 67.8518 106.944 68.2666 106.142 68.5258C105.287 68.798 104.402 69.0702 103.517 69.0831C102.653 69.0831 101.809 68.7721 101.016 68.3443C100.285 67.9555 99.493 67.5278 98.9681 66.7501C98.4432 65.9724 98.0624 64.9485 97.7331 64.0283C97.3831 63.0562 97.1155 62.0193 96.9612 60.9824C96.745 59.5956 96.7862 58.1828 97.0538 56.8089C97.3523 55.2925 97.9183 53.8538 98.7623 52.7002C99.2666 52.0133 99.8429 51.3912 100.543 51.0542C101.284 50.7042 102.097 50.5098 102.879 50.445C106.337 50.1339 109.723 52.5058 110.855 56.7571C111.185 57.9236 112.677 57.4181 112.358 56.2257Z" fill="black"/>
<path d="M109.826 57.2884C108.972 54.1129 106.656 52.0392 104.022 51.8966C102.714 51.8188 101.232 52.1299 100.193 53.1927C99.3284 54.0741 98.7005 55.2665 98.33 56.5885C97.5375 59.3881 98.1242 62.4469 99.3695 64.8966C100.08 66.2964 101.387 67.0741 102.642 67.437C103.898 67.7999 105.452 67.4889 106.615 66.8019C107.315 66.3872 107.83 65.6613 108.334 64.9355C108.828 64.2356 109.27 63.5098 109.579 62.6414C110.166 60.9694 110.248 59.0511 109.826 57.2884C109.651 56.5755 108.756 56.8737 108.931 57.5995C109.25 58.9215 109.25 60.3084 108.9 61.6174C108.54 62.9784 107.747 64.1578 106.924 65.117C106.512 65.6095 106.049 65.8687 105.504 66.0372C104.876 66.2316 104.217 66.439 103.569 66.4131C102.992 66.4001 102.437 66.1798 101.901 65.8946C101.376 65.6095 100.8 65.2984 100.419 64.754C99.7194 63.7301 99.2563 62.2266 99.0196 60.9305C98.8343 59.8936 98.8137 58.8567 98.999 57.8198C99.1945 56.7311 99.5754 55.6812 100.162 54.8388C100.944 53.6982 101.953 53.2056 103.126 53.076C105.648 52.7909 108.097 54.5147 108.931 57.5865C109.116 58.3123 110.011 58.0013 109.826 57.2884Z" fill="black"/>
<path d="M34.6842 55.0072C33.5006 50.5356 30.2586 47.5805 26.5637 47.2564C24.7626 47.1009 22.5704 47.4638 21.0884 48.8636C19.7607 50.1338 18.7932 51.8576 18.2066 53.8148C17.0127 57.7938 17.8155 62.0321 19.4931 65.6094C19.9974 66.6852 20.6252 67.5406 21.5001 68.1498C22.3852 68.759 23.3629 69.2904 24.3509 69.5756C25.3699 69.8737 26.3888 69.8218 27.4077 69.5885C28.3751 69.3682 29.4146 69.1089 30.2895 68.5257C31.2157 67.9165 31.9156 66.8667 32.5949 65.8946C33.2844 64.8966 33.9122 63.8597 34.3342 62.6413C35.1679 60.2435 35.3017 57.5217 34.6842 55.0072C34.396 53.8148 32.9036 54.3203 33.1918 55.5257C33.6447 57.3662 33.6343 59.2974 33.1506 61.1249C32.6669 62.9913 31.5965 64.5466 30.4953 65.9075C29.9087 66.6334 29.2705 67.0481 28.4678 67.3073C27.6135 67.5795 26.7284 67.8517 25.8433 67.8647C24.9788 67.8647 24.1348 67.5536 23.3423 67.1259C22.6116 66.7371 21.8191 66.3093 21.2942 65.5317C20.7693 64.754 20.3885 63.7301 20.0592 62.8098C19.7092 61.8377 19.4416 60.8009 19.2873 59.764C19.0711 58.3771 19.1123 56.9644 19.3799 55.5905C19.6784 54.074 20.2444 52.6353 21.0884 51.4818C21.5927 50.7948 22.169 50.1727 22.8689 49.8357C23.6099 49.4857 24.423 49.2913 25.2052 49.2265C28.6633 48.9155 32.0494 51.2873 33.1815 55.5386C33.5108 56.7051 35.0032 56.1996 34.6842 55.0072Z" fill="black"/>
<path d="M32.142 56.07C31.2878 52.8945 28.9721 50.8207 26.3373 50.6781C25.0302 50.6004 23.5482 50.9114 22.5087 51.9743C21.6441 52.8556 21.0163 54.048 20.6458 55.3701C19.8533 58.1697 20.44 61.2285 21.6853 63.6782C22.3955 65.078 23.7026 65.8557 24.9582 66.2186C26.2138 66.5815 27.7679 66.2704 28.9309 65.5835C29.6308 65.1687 30.1454 64.4429 30.6497 63.7171C31.1437 63.0172 31.5862 62.2914 31.895 61.423C32.4816 59.751 32.5743 57.8327 32.142 56.07C31.9671 55.3571 31.0716 55.6552 31.2466 56.381C31.5657 57.7031 31.5657 59.0899 31.2157 60.399C30.8555 61.7599 30.063 62.9394 29.2397 63.8985C28.828 64.391 28.3649 64.6503 27.8194 64.8188C27.1916 65.0132 26.5329 65.2206 25.8845 65.1946C25.3081 65.1817 24.7523 64.9613 24.2172 64.6762C23.6923 64.391 23.1159 64.08 22.7351 63.5356C22.0352 62.5117 21.5721 61.0082 21.3354 59.7121C21.1501 58.6752 21.1295 57.6383 21.3148 56.6014C21.5103 55.5126 21.8912 54.4628 22.4778 53.6203C23.26 52.4797 24.2686 51.9872 25.4419 51.8576C27.9635 51.5725 30.4129 53.2963 31.2466 56.3681C31.4421 57.0939 32.3376 56.7829 32.142 56.07Z" fill="black"/>
<path d="M121.765 53.9962C121.734 52.9463 121.693 51.8965 121.662 50.8466C121.6 49.0191 121.59 47.1657 121.405 45.3511C121.23 43.7309 120.849 42.1497 119.995 40.8795C119.171 39.6482 117.978 38.9223 116.784 38.4428C115.456 37.8984 114.056 37.5744 112.698 37.2115C111.092 36.7708 109.487 36.356 107.881 35.9672C104.371 35.1118 100.852 34.36 97.3111 33.699C97.3008 33.699 97.3008 33.699 97.2905 33.699C97.2597 33.699 97.2185 33.686 97.1876 33.686C97.1362 33.6731 97.0847 33.6601 97.0332 33.6601C97.0229 33.6601 97.0126 33.6601 97.0126 33.6601C95.3556 33.362 93.6883 33.0639 92.0313 32.7788C90.2199 32.4547 88.3879 32.1825 86.5971 31.6511C83.4375 30.7179 80.5557 28.8127 77.746 26.8166C74.9877 24.8595 72.1883 22.6042 69.1418 21.3989C68.3596 21.0878 67.5054 20.8674 66.682 20.9322C66.0028 20.9841 65.1177 21.1526 64.6339 21.8006C64.2017 22.3709 64.212 23.2782 64.531 23.9263C64.9633 24.8336 65.8896 25.1058 66.6203 25.4557C67.9068 26.0908 69.1727 26.7907 70.418 27.5424C70.6342 29.033 70.6548 30.5624 70.4592 32.0529C66.6203 31.9492 62.7814 31.8974 58.9424 31.8326C57.6559 31.8067 56.3694 31.7808 55.0829 31.7678C54.8668 30.5624 54.7639 29.357 54.7124 28.1257C54.6815 27.4258 54.5477 26.1297 53.817 26.0649C53.0657 26.0001 52.7466 27.4647 52.6334 28.1646C52.4482 29.3311 52.3658 30.5365 52.3864 31.7289C48.4137 31.6641 44.441 31.6123 40.4682 31.5734C39.1817 31.5604 37.9055 31.5604 36.619 31.5734C36.4235 30.4328 36.3308 29.3052 36.2794 28.1387C36.2485 27.4388 36.1147 26.1426 35.384 26.0778C34.6327 26.013 34.3136 27.4777 34.2004 28.1776C34.0151 29.3181 33.9431 30.4717 33.9431 31.6252C29.3014 31.7289 24.6494 31.9492 20.0077 32.2085C17.1053 32.377 14.1927 32.5325 11.2903 32.4547C9.94208 32.4159 8.60412 32.3122 7.26616 32.1566C6.55601 32.0659 5.85615 31.9492 5.15629 31.8326C4.00359 31.6511 3.40665 32.4936 3.31402 33.8805C3.09788 37.1467 2.48037 40.2055 1.74963 43.3421C1.04978 46.3102 0.216112 49.4727 0.246988 52.5964C0.25728 53.9573 0.483714 55.3441 1.13211 56.4588C1.7908 57.5864 2.78912 58.2085 3.82862 58.5844C6.4325 59.5306 9.21136 59.9842 11.8873 60.4768C12.5666 60.6064 13.2458 60.723 13.9251 60.8267C14.45 60.9174 15.0778 61.1248 15.6027 61.073C15.9423 61.047 16.2717 60.723 16.2511 60.2564C16.1893 58.5974 15.8188 56.9254 15.9423 55.2664C16.0658 53.5944 16.8892 52.0909 17.5891 50.717C18.2786 49.382 18.9579 48.0211 19.8945 46.9583C20.759 45.9862 21.8191 45.39 22.9512 45.053C24.1245 44.716 25.3184 44.6901 26.5122 44.5604C27.6444 44.4438 28.7971 44.5216 29.9086 44.8975C32.1729 45.6622 33.7064 47.6841 34.6121 50.3411C35.7133 53.5814 36.1662 57.2365 36.8146 60.6453C36.8763 60.9952 37.1645 61.2415 37.4424 61.2415C49.2576 61.2155 61.0626 61.0211 72.8778 60.9822C76.4903 60.9693 80.0926 60.9952 83.7051 60.9952C85.5268 60.9952 87.3382 60.9823 89.1598 60.9693C90.0244 60.9563 90.8992 60.9563 91.7637 60.9433C92.4841 60.9304 93.3178 61.0341 93.9662 60.5286C94.5837 60.049 94.7175 59.2066 94.769 58.3641C94.8307 57.392 94.9028 56.4199 95.0675 55.4737C95.3762 53.6851 95.9526 51.9742 96.7245 50.4319C98.1654 47.5286 100.924 46.5435 103.486 46.2843C106.275 46.0121 109.106 46.362 111.144 49.0191C112.193 50.393 113.037 52.1946 113.418 54.0351C113.82 55.9533 113.624 57.9493 113.418 59.8935C113.356 60.4638 113.881 60.7619 114.242 60.6841C115.806 60.3342 117.35 59.8676 118.863 59.2584C120.046 58.7918 121.508 58.3511 121.775 56.5754C121.888 55.707 121.796 54.8387 121.765 53.9962ZM119.799 43.718C119.923 44.1846 120.015 44.6512 120.077 45.1178C117.483 43.4976 114.787 42.1497 112.018 41.0739C113.634 40.9702 115.25 40.7628 116.845 40.4518C116.938 40.4388 117.01 40.3869 117.051 40.3092C118.276 40.9572 119.326 41.9423 119.799 43.718ZM71.262 28.0479C71.4987 28.2035 71.7354 28.346 71.9722 28.5016C73.2175 29.3052 75.173 30.2902 75.6464 32.1177C74.3805 32.1048 73.1043 32.0918 71.8383 32.0659C71.6325 32.0659 71.437 32.0529 71.2311 32.0529C71.3855 30.7179 71.3958 29.3829 71.262 28.0479ZM74.0306 33.7897C74.823 33.8156 75.6155 33.8545 76.3977 33.8934C76.5727 33.9064 76.7374 33.8027 76.8506 33.6601C78.7546 33.9971 80.6792 33.9971 82.5832 34.2563C83.4889 34.3859 84.4872 34.5155 85.3312 34.9951C86.1443 35.4617 86.5971 36.3042 86.8853 37.3411C87.2043 38.4687 87.3587 39.6482 87.4822 40.8406C87.6263 42.1497 87.7601 43.4717 87.863 44.7808C88.0689 47.2175 88.1821 49.6672 88.1821 52.1168C88.1821 52.713 88.1718 53.2963 88.1615 53.8925C88.1512 54.5665 88.1924 55.3052 88.0998 55.9663C88.0483 56.3033 87.8425 56.4718 87.6057 56.6532C87.2661 56.9254 87.0911 56.9124 86.6898 56.8995C84.5284 56.8476 82.3671 56.7828 80.2058 56.718C75.914 56.5884 71.6325 56.4458 67.3407 56.381C62.6064 56.3162 57.8721 56.3551 53.1377 56.6402C52.6026 55.1238 52.3555 53.5037 52.0674 51.8965C51.7483 50.1597 51.3263 48.4747 51.069 46.712C50.822 45.0141 50.6779 43.2514 50.8529 41.5405C51.0073 40.037 51.4087 38.5983 51.9336 37.2374C52.4482 35.9024 53.0657 34.6322 53.6523 33.3361C54.8153 33.349 55.9783 33.375 57.1413 33.4009C62.7608 33.5046 68.4008 33.5823 74.0306 33.7897ZM53.2612 29.1237C53.3333 28.5664 53.3847 27.5425 53.7655 27.1018C54.0228 27.5036 53.9508 28.9682 53.9817 29.2922C54.0434 30.1087 54.1463 30.9253 54.2801 31.7419C53.8993 31.7419 53.5185 31.7289 53.148 31.7289C53.1274 30.8475 53.1583 29.9791 53.2612 29.1237ZM34.8179 29.1237C34.89 28.5664 34.9414 27.5425 35.3222 27.1018C35.5795 27.5036 35.5075 28.9682 35.5384 29.2922C35.5898 30.0569 35.6824 30.8087 35.8059 31.5604C35.4354 31.5604 35.0649 31.5734 34.6944 31.5734C34.6841 30.7568 34.7253 29.9273 34.8179 29.1237ZM4.3638 36.6541C6.40162 35.7987 8.54236 35.4358 10.6934 35.6302C11.2903 35.6821 11.877 35.7728 12.4636 35.9154C12.5666 35.9413 12.7518 35.9542 12.8341 36.0709C12.8856 36.1487 12.9165 36.4338 12.9371 36.5375C12.9988 36.8097 13.0812 37.0559 13.1738 37.3152C13.5134 38.2225 14.0898 38.9742 14.7793 39.4667C14.5117 40.1407 14.2544 40.8017 13.9868 41.4757C13.9457 41.5923 13.8736 41.8904 13.7913 41.9682C13.6781 42.0589 13.3796 41.9941 13.2458 41.9941C12.8856 42.0071 12.5151 42.0201 12.1549 42.0589C10.7449 42.2015 9.35544 42.5256 7.97631 42.8496C6.54572 43.1866 5.11512 43.5236 3.67424 43.8606C3.41694 43.9254 3.16993 43.9772 2.91263 44.042C3.47869 41.6053 4.06533 39.1686 4.3638 36.6541ZM17.1053 48.6432C16.2305 50.2763 15.2528 52.0001 14.8308 53.9184C14.4294 55.707 14.7587 57.5346 14.9028 59.3362C14.6044 59.2843 14.3162 59.2066 14.0383 59.1677C13.2767 59.051 12.5151 58.9085 11.7535 58.7659C10.4361 58.5196 9.10843 58.2345 7.80134 57.9234C6.52513 57.6253 5.21804 57.379 3.983 56.8865C2.92292 56.4718 2.05839 55.7071 1.71875 54.3202C1.40999 53.0241 1.50262 51.6113 1.66729 50.2893C1.87313 48.7339 2.1819 47.1916 2.52154 45.6751C2.5627 45.4677 2.61416 45.2733 2.65532 45.0659C2.66562 45.0659 2.67591 45.0659 2.68621 45.053C2.85088 45.0141 3.02585 44.9752 3.19052 44.9363C3.53015 44.8585 3.86978 44.7808 4.19913 44.703C4.81665 44.5605 5.43417 44.4179 6.05169 44.2623C7.29703 43.9772 8.53208 43.6661 9.77742 43.3939C9.81858 43.4717 9.89063 43.5495 9.98326 43.5754C12.8136 44.6123 15.685 45.4937 18.5771 46.2195C18.0419 46.9842 17.5582 47.7878 17.1053 48.6432ZM113.068 49.4209C111.627 46.8416 109.569 45.1567 107.089 44.703C104.464 44.2235 101.438 44.5604 98.999 45.9214C96.4054 47.373 94.9028 50.4059 94.0794 53.724C93.8633 54.5924 93.7192 55.4738 93.6163 56.3681C93.5751 56.7699 93.534 57.1587 93.5031 57.5605C93.4619 58.0789 93.5648 58.9085 93.1531 59.1806C92.8444 59.3751 92.3195 59.2714 91.9902 59.2843C91.5991 59.2843 91.1977 59.2973 90.8066 59.2973C89.7774 59.3102 88.7481 59.3102 87.7292 59.3232C84.0138 59.3491 80.2984 59.3491 76.583 59.3232C70.3666 59.2843 64.1399 59.3751 57.9235 59.4399C51.2646 59.5047 44.6056 59.5695 37.9467 59.5824C37.3498 56.3421 36.8763 52.9722 35.8677 49.9004C34.9208 47.0101 33.3461 44.6771 30.9687 43.5884C29.7645 43.031 28.4574 42.8237 27.1812 42.8755C25.8844 42.9144 24.5465 43.031 23.26 43.3032C22.0455 43.5624 20.8413 44.0809 19.8224 44.9623C19.6475 45.1178 19.4725 45.2863 19.3078 45.4548C16.6731 44.8067 14.0589 44.042 11.4756 43.1347C11.6403 43.1088 11.8152 43.0829 11.9902 43.0699C12.5974 43.0051 13.2355 43.0699 13.8325 42.9662C14.3677 42.8755 14.5117 42.3311 14.7382 41.7868C15.0366 41.0221 15.3351 40.2703 15.6439 39.5056C15.7262 39.2853 15.7056 38.9483 15.4998 38.8316C14.4912 38.2743 13.9457 37.2892 13.6369 35.9931C13.4928 35.371 13.1841 35.0988 12.6901 34.9822C12.0931 34.8396 11.4859 34.7359 10.8684 34.6841C8.72763 34.4767 6.54571 34.7877 4.4976 35.5913C4.53877 35.1636 4.56965 34.7359 4.59023 34.3082C4.60052 34.1267 4.55935 33.6601 4.65198 33.5046C4.76519 33.2972 5.02249 33.4138 5.21804 33.4398C5.9179 33.5564 6.61776 33.6731 7.31762 33.7509C8.60412 33.9064 9.89063 34.0101 11.1771 34.0489C13.9869 34.1397 16.7863 33.9841 19.596 33.8286C26.3373 33.4527 33.0888 33.1158 39.8404 33.1676C44.1528 33.2065 48.4651 33.2713 52.7672 33.3361C51.6763 35.708 50.5441 38.0928 50.1736 40.8147C49.6693 44.4827 50.5441 48.047 51.2234 51.5724C51.6042 53.5425 51.8718 55.5385 52.582 57.392C52.6334 57.5346 52.7878 57.6382 52.9216 57.6382C61.9889 57.068 71.0767 57.4179 80.144 57.6901C82.3877 57.7549 84.6313 57.8197 86.875 57.8716C87.5234 57.8845 88.0895 57.5475 88.5526 56.9643C88.7893 56.6532 88.8717 56.368 88.8922 55.9533C88.9334 55.2275 88.9437 54.5017 88.9643 53.7888C89.0157 51.1966 88.9437 48.6173 88.7687 46.038C88.6761 44.703 88.5526 43.381 88.4188 42.0589C88.285 40.7499 88.1821 39.4278 87.9248 38.1576C87.6984 37.0041 87.369 35.7728 86.6589 34.9433C85.9281 34.0878 85.0018 33.7508 84.0447 33.5305C81.7598 33.025 79.4236 33.1287 77.1284 32.7269C77.1387 32.6621 77.1387 32.5843 77.1284 32.5195C77.0873 32.2085 77.0152 31.9233 76.9226 31.6511C76.5933 30.4068 75.8111 29.4089 74.9157 28.683C73.588 27.5813 72.0956 26.7259 70.6548 25.8705C69.1933 25.0021 67.6701 24.3151 66.188 23.4986C66.0645 23.4338 65.7249 23.2912 65.6734 23.0968C65.6014 22.8246 65.6528 22.8764 65.869 22.7727C66.1983 22.6172 66.5688 22.5654 66.9188 22.5524C67.7524 22.5394 68.5655 22.8246 69.3374 23.1875C72.1986 24.5095 74.8333 26.6092 77.4784 28.4756C80.1337 30.342 82.8714 32.1307 85.8252 33.0768C87.6469 33.6601 89.5303 33.9582 91.3932 34.2822C93.2252 34.6063 95.0675 34.9303 96.8994 35.2673C102.632 36.3172 108.334 37.6392 113.994 39.2464C114.519 39.3889 115.065 39.5445 115.61 39.7259C113.573 40.0629 111.514 40.2185 109.466 40.1925C109.034 40.1925 108.931 41.022 109.363 41.1517C113.13 42.37 116.773 44.0938 120.242 46.3102C120.262 46.5694 120.273 46.8416 120.283 47.1008C119.326 47.2823 118.389 47.5285 117.453 47.8526C116.67 48.1248 115.703 48.5006 115.415 49.5894C115.25 50.2115 115.343 50.9244 115.363 51.5724C115.394 52.3501 115.415 53.1407 115.446 53.9184C115.497 55.4867 115.549 57.042 115.6 58.6103C115.6 58.6363 115.6 58.6492 115.61 58.6751C115.353 58.7399 115.106 58.8177 114.849 58.8825C114.983 57.405 115.044 55.9144 114.838 54.4239C114.55 52.6093 113.892 50.8855 113.068 49.4209ZM116.331 58.4159C116.238 55.7848 116.104 53.1537 116.063 50.5226C116.053 49.9782 116.146 49.5894 116.526 49.2913C116.876 49.0191 117.298 48.8895 117.689 48.7469C118.533 48.4488 119.398 48.2155 120.273 48.047C120.273 48.1248 120.283 48.2155 120.283 48.2933C120.314 49.1876 120.345 50.0819 120.376 50.9632C119.501 51.1317 118.801 52.065 118.523 53.1278C118.163 54.5406 118.472 56.1218 118.708 57.5605C118.677 57.5735 118.646 57.5864 118.616 57.5994C117.854 57.9105 117.092 58.1826 116.331 58.4159ZM120.417 56.5236C120.252 56.9124 119.861 57.1328 119.449 57.3013C119.264 56.2125 119.048 55.072 119.171 53.9703C119.264 53.0759 119.707 52.1557 120.406 51.9613C120.427 52.5964 120.448 53.2185 120.468 53.8536C120.499 54.5924 120.715 55.8237 120.417 56.5236Z" fill="black"/>
<path d="M54.1773 37.9634C54.4654 38.5466 55.1036 38.6244 55.649 38.6244C56.2768 38.6373 56.9047 38.6244 57.5325 38.5985C58.1191 38.5725 58.7058 38.5466 59.2615 38.3392C59.3748 38.3004 59.5085 38.2096 59.5085 38.067C59.5085 38.0152 59.488 37.9634 59.4674 37.9115C59.3542 37.6912 59.1483 37.6004 58.9528 37.5227C58.3764 37.3023 57.7486 37.2505 57.7486 37.2505C56.7503 37.2246 55.7417 37.1987 54.7433 37.1727C54.4963 37.1727 54.167 37.2246 54.1052 37.5227C54.0744 37.6912 54.1155 37.8467 54.1773 37.9634Z" fill="black"/>
<path d="M6.04142 10.2393C5.66061 10.4726 4.90929 10.7189 3.94184 10.7189C1.69818 10.7189 0 8.93023 0 5.6381C0 2.5015 1.68788 0.362915 4.15797 0.362915C5.1563 0.362915 5.77382 0.635087 6.0517 0.803582L5.80469 1.86642C5.4136 1.63312 4.85783 1.45164 4.19914 1.45164C2.32599 1.45164 1.09095 2.95515 1.09095 5.58627C1.09095 8.04889 2.21278 9.61717 4.15797 9.61717C4.78578 9.61717 5.42389 9.44868 5.83557 9.20242L6.04142 10.2393Z" fill="black"/>
<path d="M10.3847 10.5764L10.3023 9.66908H10.2714C9.95239 10.2394 9.33487 10.7449 8.5218 10.7449C7.3588 10.7449 6.77216 9.72093 6.77216 8.67108C6.77216 6.93429 7.99691 5.97513 10.2097 5.9881V5.84554C10.2097 5.24933 10.0759 4.17353 8.9129 4.17353C8.37772 4.17353 7.82195 4.38092 7.42056 4.70495L7.18384 3.83656C7.65727 3.44773 8.34684 3.20145 9.06728 3.20145C10.8169 3.20145 11.2389 4.70497 11.2389 6.14365V8.83955C11.2389 9.46169 11.2595 10.0709 11.3315 10.5634H10.3847V10.5764ZM10.2303 6.89538C9.09815 6.86945 7.80136 7.11572 7.80136 8.51552C7.80136 9.358 8.25421 9.75981 8.7791 9.75981C9.52013 9.75981 9.99356 9.16359 10.1582 8.55441C10.1891 8.4248 10.22 8.26927 10.22 8.13966V6.89538H10.2303Z" fill="black"/>
<path d="M12.8651 10.5764C12.8856 10.0839 12.9165 9.35801 12.9165 8.70995V6.10352e-05H13.9457V4.52352H13.9663C14.3368 3.71993 14.9955 3.20146 15.9218 3.20146C17.3421 3.20146 18.3507 4.69201 18.3301 6.88245C18.3301 9.46172 17.0436 10.7449 15.7674 10.7449C14.944 10.7449 14.2751 10.3431 13.8531 9.38396H13.8222L13.7707 10.5764H12.8651ZM13.9457 7.68603C13.9457 7.85453 13.9663 8.01006 13.9972 8.16559C14.203 9.07287 14.7999 9.69501 15.5616 9.69501C16.6525 9.69501 17.3009 8.58037 17.3009 6.92134C17.3009 5.48265 16.7143 4.23835 15.6027 4.23835C14.8926 4.23835 14.2339 4.84755 14.0178 5.84556C13.9972 5.98813 13.956 6.16957 13.956 6.37694V7.68603H13.9457Z" fill="black"/>
<path d="M19.6372 5.61223C19.6372 4.76976 19.6269 4.03097 19.5858 3.36995H20.4914L20.5223 4.78273H20.5738C20.8311 3.81065 21.4589 3.20145 22.1588 3.20145C22.272 3.20145 22.3646 3.21441 22.4572 3.24034V4.47165C22.3543 4.44572 22.2411 4.43276 22.1073 4.43276C21.3766 4.43276 20.8517 5.13266 20.7076 6.11771C20.687 6.29916 20.6561 6.50657 20.6561 6.72691V10.5634H19.6269V5.61223H19.6372Z" fill="black"/>
<path d="M24.7111 1.33502C24.7214 1.7757 24.4641 2.13861 24.0524 2.13861C23.6819 2.13861 23.4246 1.7757 23.4246 1.33502C23.4246 0.868421 23.6922 0.518463 24.073 0.518463C24.4641 0.518463 24.7111 0.881382 24.7111 1.33502ZM23.5584 10.5763V3.36992H24.5979V10.5763H23.5584Z" fill="black"/>
<path d="M31.5039 6.90835C31.5039 9.57835 30.0424 10.7319 28.653 10.7319C27.1092 10.7319 25.905 9.30615 25.905 7.02499C25.905 4.61421 27.1607 3.20145 28.7456 3.20145C30.3924 3.20145 31.5039 4.70495 31.5039 6.90835ZM26.9548 6.98613C26.9548 8.56739 27.6753 9.75981 28.6942 9.75981C29.6925 9.75981 30.4335 8.58033 30.4335 6.96018C30.4335 5.74183 29.9498 4.18651 28.7148 4.18651C27.49 4.18651 26.9548 5.61225 26.9548 6.98613Z" fill="black"/>
<path d="M32.811 6.10352e-05H33.8505V10.5764H32.811V6.10352e-05Z" fill="black"/>
<path d="M36.1765 7.20644C36.1971 8.98211 37.1028 9.70795 38.1423 9.70795C38.8833 9.70795 39.3362 9.53943 39.7273 9.33205L39.9022 10.2653C39.5317 10.4726 38.9039 10.7059 37.9982 10.7059C36.2383 10.7059 35.1885 9.24134 35.1885 7.07682C35.1885 4.89935 36.2074 3.18848 37.8747 3.18848C39.7479 3.18848 40.2419 5.26226 40.2419 6.58429C40.2419 6.85648 40.2213 7.06385 40.211 7.19346H36.1765V7.20644ZM39.2332 6.27324C39.2435 5.44372 38.9657 4.14759 37.7924 4.14759C36.7426 4.14759 36.2794 5.36596 36.1971 6.27324H39.2332Z" fill="black"/>
<path d="M42.7737 1.29611V3.3699H44.266V4.3679H42.7737V8.25625C42.7737 9.15057 42.9795 9.65606 43.5559 9.65606C43.8235 9.65606 44.0293 9.61718 44.1631 9.56534L44.2146 10.5504C44.0087 10.6541 43.6897 10.7318 43.2883 10.7318C42.8045 10.7318 42.4135 10.5374 42.1664 10.1745C41.868 9.78567 41.7651 9.15057 41.7651 8.29514V4.3679H40.8799V3.3699H41.7651V1.64606L42.7737 1.29611Z" fill="black"/>
<path d="M44.5645 11.1726L47.8682 0.375946H48.671L45.357 11.1726H44.5645Z" fill="black"/>
<path d="M53.57 10.3041C53.3024 10.4856 52.6952 10.7189 51.9233 10.7189C50.1942 10.7189 49.0724 9.24129 49.0724 7.0379C49.0724 4.82154 50.2765 3.21436 52.1497 3.21436C52.7672 3.21436 53.3127 3.40876 53.5906 3.59022L53.3539 4.60119C53.1068 4.41974 52.7158 4.26422 52.1497 4.26422C50.8323 4.26422 50.1324 5.48257 50.1324 6.98607C50.1324 8.65806 50.9867 9.68196 52.1188 9.68196C52.7055 9.68196 53.0966 9.48757 53.395 9.31907L53.57 10.3041Z" fill="black"/>
<path d="M59.8996 6.90835C59.8996 9.57835 58.4381 10.7319 57.0487 10.7319C55.5049 10.7319 54.3007 9.30615 54.3007 7.02499C54.3007 4.61421 55.5564 3.20145 57.1413 3.20145C58.7881 3.20145 59.8996 4.70495 59.8996 6.90835ZM55.3608 6.98613C55.3608 8.56739 56.0813 9.75981 57.1002 9.75981C58.0882 9.75981 58.8395 8.58033 58.8395 6.96018C58.8395 5.74183 58.3558 4.18651 57.1208 4.18651C55.8857 4.18651 55.3608 5.61225 55.3608 6.98613Z" fill="black"/>
<path d="M61.2067 5.31412C61.2067 4.57534 61.1964 3.9532 61.1552 3.36995H62.0815L62.1433 4.56237H62.1638C62.452 3.87543 63.1107 3.20145 64.0576 3.20145C64.85 3.20145 66.0748 3.79769 66.0748 6.27327V10.5764H65.0353V6.41582C65.0353 5.24932 64.6957 4.2902 63.7076 4.2902C63.0181 4.2902 62.4932 4.89938 62.3079 5.62521C62.2565 5.7937 62.2359 6.01404 62.2359 6.23438V10.5634H61.1964V5.31412H61.2067Z" fill="black"/>
<path d="M68.02 3.3699L69.1418 7.41378C69.3271 8.0748 69.4815 8.67104 69.605 9.25429H69.6358C69.7696 8.65807 69.9343 8.06184 70.1196 7.41378L71.2311 3.3699H72.3221L70.0784 10.5763H69.0801L66.9084 3.3699H68.02Z" fill="black"/>
<path d="M73.7629 7.20644C73.7835 8.98211 74.6892 9.70795 75.7287 9.70795C76.4698 9.70795 76.9226 9.53943 77.3137 9.33205L77.4887 10.2653C77.1181 10.4726 76.4903 10.7059 75.5846 10.7059C73.8247 10.7059 72.7749 9.24134 72.7749 7.07682C72.7749 4.89935 73.7938 3.18848 75.4611 3.18848C77.3343 3.18848 77.8283 5.26226 77.8283 6.58429C77.8283 6.85648 77.8077 7.06385 77.7974 7.19346H73.7629V7.20644ZM76.8197 6.27324C76.83 5.44372 76.5521 4.14759 75.3788 4.14759C74.329 4.14759 73.8659 5.36596 73.7835 6.27324H76.8197Z" fill="black"/>
<path d="M79.1045 5.61223C79.1045 4.76976 79.0942 4.03097 79.053 3.36995H79.9587L79.9896 4.78273H80.0411C80.2984 3.81065 80.9262 3.20145 81.626 3.20145C81.7393 3.20145 81.8319 3.21441 81.9245 3.24034V4.47165C81.8216 4.44572 81.7084 4.43276 81.5746 4.43276C80.8439 4.43276 80.319 5.13266 80.1749 6.11771C80.1543 6.29916 80.1234 6.50657 80.1234 6.72691V10.5634H79.0942V5.61223H79.1045Z" fill="black"/>
<path d="M84.5078 1.29611V3.3699H86.0001V4.3679H84.5078V8.25625C84.5078 9.15057 84.7136 9.65606 85.29 9.65606C85.5576 9.65606 85.7634 9.61718 85.8972 9.56534L85.9487 10.5504C85.7428 10.6541 85.4238 10.7318 85.0224 10.7318C84.5387 10.7318 84.1476 10.5374 83.9006 10.1745C83.6021 9.78567 83.4992 9.15057 83.4992 8.29514V4.3679H82.6141V3.3699H83.4992V1.64606L84.5078 1.29611Z" fill="black"/>
<path d="M88.3262 1.33502C88.3365 1.7757 88.0792 2.13861 87.6675 2.13861C87.297 2.13861 87.0397 1.7757 87.0397 1.33502C87.0397 0.868421 87.3073 0.518463 87.6881 0.518463C88.0792 0.518463 88.3262 0.881382 88.3262 1.33502ZM87.1735 10.5763V3.36992H88.213V10.5763H87.1735Z" fill="black"/>
<path d="M89.8906 10.5764C89.9111 10.0839 89.942 9.35801 89.942 8.70995V6.10352e-05H90.9712V4.52352H90.9918C91.3623 3.71993 92.021 3.20146 92.9473 3.20146C94.3676 3.20146 95.3762 4.69201 95.3556 6.88245C95.3556 9.46172 94.0691 10.7449 92.7929 10.7449C91.9695 10.7449 91.3006 10.3431 90.8786 9.38396H90.8477L90.7963 10.5764H89.8906ZM90.9712 7.68603C90.9712 7.85453 90.9918 8.01006 91.0227 8.16559C91.2285 9.07287 91.8255 9.69501 92.5871 9.69501C93.678 9.69501 94.3264 8.58037 94.3264 6.92134C94.3264 5.48265 93.7398 4.23835 92.6283 4.23835C91.9181 4.23835 91.2594 4.84755 91.0433 5.84556C91.0227 5.98813 90.9815 6.16957 90.9815 6.37694V7.68603H90.9712Z" fill="black"/>
<path d="M96.6627 6.10352e-05H97.7022V10.5764H96.6627V6.10352e-05Z" fill="black"/>
<path d="M100.039 7.20644C100.059 8.98211 100.965 9.70795 102.004 9.70795C102.745 9.70795 103.198 9.53943 103.589 9.33205L103.764 10.2653C103.394 10.4726 102.766 10.7059 101.86 10.7059C100.1 10.7059 99.0505 9.24134 99.0505 7.07682C99.0505 4.89935 100.069 3.18848 101.737 3.18848C103.61 3.18848 104.104 5.26226 104.104 6.58429C104.104 6.85648 104.083 7.06385 104.073 7.19346H100.039V7.20644ZM103.085 6.27324C103.095 5.44372 102.817 4.14759 101.644 4.14759C100.594 4.14759 100.131 5.36596 100.049 6.27324H103.085Z" fill="black"/>
<path d="M105.236 9.22839C105.545 9.48761 106.09 9.74683 106.605 9.74683C107.366 9.74683 107.716 9.26729 107.716 8.67108C107.716 8.04895 107.418 7.69897 106.656 7.34902C105.627 6.88242 105.143 6.16956 105.143 5.31412C105.143 4.14762 105.884 3.20145 107.119 3.20145C107.696 3.20145 108.21 3.40884 108.529 3.64214L108.272 4.60126C108.046 4.4198 107.634 4.18651 107.099 4.18651C106.481 4.18651 106.142 4.6272 106.142 5.17157C106.142 5.76778 106.481 6.03995 107.233 6.3899C108.231 6.86947 108.735 7.49161 108.735 8.56739C108.735 9.83758 107.953 10.7319 106.595 10.7319C105.967 10.7319 105.39 10.5375 104.989 10.2394L105.236 9.22839Z" fill="black"/>
</svg>
