<svg width="122" height="71" viewBox="0 0 122 71" fill="none" xmlns="http://www.w3.org/2000/svg">
<path d="M83.044 34.2913C81.9624 33.1805 80.4802 32.5178 79.2083 31.6408C76.2939 29.6334 73.1993 27.9183 69.9144 26.5541C66.6295 25.1996 63.2043 24.1959 59.699 23.5625C56.1537 22.9291 52.5984 22.7537 49.003 22.7927C45.3976 22.8316 41.7621 22.9681 38.1868 23.4261C34.9219 23.8451 31.687 24.6636 28.7426 26.1448C26.0887 27.4798 23.2143 29.4775 22.3531 32.4204C21.5318 35.2268 22.6735 38.2574 24.7667 40.2356C25.3475 40.791 25.9885 41.2783 26.5994 41.8045C27.1602 42.282 27.651 42.8277 28.2218 43.3051C29.2434 44.1529 30.5153 44.8351 31.3165 45.8972C31.7972 46.5209 32.0876 47.3297 32.358 48.0605C32.6585 48.8498 32.9089 49.6587 33.1192 50.4772C33.5498 52.124 33.8703 53.7904 34.2609 55.447C34.4612 56.285 34.6815 57.1133 34.9419 57.9416C35.002 58.1268 35.1622 58.2437 35.3625 58.2534C44.9469 58.6335 54.5413 58.8673 64.1357 58.9453C68.9129 58.9843 73.7001 58.994 78.4772 58.955C79.699 58.9453 80.9209 58.9356 82.1327 58.9258C83.024 58.9161 84.1257 59.111 84.5764 58.1755C84.7766 57.7467 84.8768 57.2692 85.007 56.821C85.1672 56.2753 85.3275 55.7296 85.4777 55.1839C85.7882 54.0925 86.0686 52.9913 86.3089 51.8707C87.2904 47.3394 87.4607 42.4574 85.2073 38.2379C84.6164 36.8639 84.1256 35.4022 83.044 34.2913ZM85.708 50.5844C85.3174 52.6697 84.7366 54.7259 84.1357 56.7625C84.0556 57.0451 83.9554 57.8442 83.665 58.0196C83.4647 58.1365 83.034 58.0683 82.8237 58.0683C82.5032 58.0683 82.1828 58.078 81.8623 58.078C80.7406 58.0878 79.6189 58.0975 78.4972 58.1073C70.5954 58.156 62.6835 58.1073 54.7817 57.9611C54.9219 54.2874 55.1723 50.6039 55.1022 46.9301C55.0621 45.0494 54.8418 43.2077 54.4912 41.366C54.1507 39.5924 53.7702 37.8286 53.5498 36.0356C58.6375 36.3475 63.7351 36.6203 68.8327 36.8737C73.3195 37.0978 77.8062 37.3024 82.3029 37.5071C82.7035 37.5266 82.8437 37.0393 82.6134 36.786C79.9694 33.921 76.4642 31.9916 72.8888 30.4422C71.046 29.6431 69.1733 28.9415 67.3004 28.2399C65.2073 27.4603 63.0941 26.71 60.9409 26.1058C58.7777 25.5017 56.5744 25.0437 54.331 24.839C51.9975 24.6246 49.634 24.6831 47.2904 24.6929C42.8738 24.7221 38.3671 24.8683 34.1207 26.1643C32.0676 26.788 30.0846 27.6747 28.332 28.8928C26.4792 30.1791 25.1172 31.787 23.8954 33.6287C23.7952 33.7846 23.8152 33.9405 23.8954 34.0575C23.9554 34.1841 24.0756 34.2816 24.2759 34.2719C27.4807 34.0867 30.7056 34.3303 33.9004 34.5837C37.5759 34.876 41.2514 35.1976 44.9269 35.4607C47.5108 35.6458 50.1047 35.8212 52.6985 35.9772C52.6985 35.9869 52.7085 35.9967 52.7085 36.0064C52.9289 37.7604 53.2794 39.495 53.6199 41.2295C53.9905 43.12 54.2409 45.0007 54.2709 46.9301C54.341 50.5941 54.0906 54.2776 53.9504 57.9416C52.9389 57.9221 51.9274 57.9026 50.9159 57.8734C45.8583 57.7565 40.8107 57.6005 35.7531 57.4056C34.8318 54.3556 34.4612 51.1496 33.3796 48.1385C32.8988 46.8035 32.3681 45.5074 31.2764 44.5427C30.325 43.7047 29.2033 43.0518 28.312 42.1455C27.2003 41.0054 25.8182 40.1381 24.7767 38.9298C23.8453 37.8481 23.2243 36.4644 23.0641 35.0612C22.9039 33.6482 23.2143 32.2547 23.9955 31.0561C24.8167 29.7893 26.0486 28.7954 27.3205 27.9671C32.9589 24.3031 39.9795 23.8743 46.5593 23.6794C50.0646 23.5722 53.5899 23.5625 57.0851 23.9912C60.5103 24.42 63.8853 25.2191 67.1402 26.3592C70.4051 27.4993 73.5398 28.9902 76.4742 30.793C77.8663 31.6505 79.1883 32.586 80.5804 33.4436C81.2113 33.8333 81.8523 34.2329 82.3831 34.7591C82.9239 35.295 83.3144 35.9479 83.6449 36.6203C83.9654 37.2635 84.2258 37.9358 84.5163 38.5887C84.5263 38.6082 84.5363 38.6277 84.5463 38.6472C86.4391 42.3209 86.4491 46.6086 85.708 50.5844ZM52.6184 30.5299C52.0376 28.8636 51.4567 27.1972 50.8758 25.5309C51.5168 25.5406 52.1577 25.5601 52.7987 25.5894C55.022 25.6966 57.2153 26.0376 59.3685 26.5833C63.4146 27.587 67.3505 29.1072 71.1963 30.6761C74.8117 32.1475 78.4171 33.9308 81.2213 36.6301C73.5899 36.2792 65.9584 35.9187 58.337 35.4899C56.7146 35.4022 55.0921 35.3048 53.4697 35.1976C53.3696 33.5897 53.1492 32.0696 52.6184 30.5299ZM49.9544 25.5212C50.5453 27.207 51.1262 28.9026 51.7171 30.5884C51.9975 31.4069 52.2679 32.2255 52.4081 33.0927C52.5183 33.7651 52.5583 34.457 52.5984 35.1391C46.7496 34.7688 40.9109 34.3401 35.0721 33.8528C31.7572 33.58 28.4021 33.2779 25.0671 33.4046C26.0285 32.0501 27.1002 30.8222 28.4822 29.8185C29.9845 28.7369 31.667 27.8988 33.4196 27.2849C37.4857 25.8622 41.8523 25.6186 46.1287 25.5601C47.4106 25.5309 48.6825 25.5114 49.9544 25.5212Z" fill="black"/>
<path d="M62.3831 40.9079C62.1427 40.674 61.8022 40.5668 61.4717 40.4889C59.7892 40.0503 57.9865 39.797 56.314 40.2647C56.2038 40.294 56.0836 40.3329 55.9935 40.4109C55.9034 40.4889 55.8533 40.6155 55.8934 40.7227C55.9434 40.8397 56.0736 40.8981 56.2038 40.9371C56.8448 41.132 57.5158 41.2684 58.1768 41.3951C59.1783 41.59 60.1898 41.7849 61.2113 41.7752C61.6119 41.7752 62.0125 41.7459 62.3731 41.59C62.4732 41.551 62.5834 41.4926 62.6234 41.3854C62.6635 41.2782 62.6134 41.1418 62.5233 41.0638C62.4332 40.9858 62.4933 41.0151 62.3831 40.9079Z" fill="black"/>
<path d="M28.5924 41.0735C28.8027 41.1807 29.0431 41.2489 29.2935 41.2976C30.8458 41.6582 32.5383 41.7069 34.1207 41.4341C34.3711 41.3951 34.6214 41.3366 34.8518 41.2587C34.9119 41.2392 34.982 41.2099 35.012 41.1612C35.0921 41.0443 34.4312 40.8299 34.2709 40.7714C32.6685 40.0893 30.6355 39.9626 28.8929 40.4401C28.7526 40.4791 28.6024 40.5278 28.5023 40.6058C28.3921 40.6837 28.332 40.8104 28.3821 40.9078C28.4322 40.9761 28.5123 41.0345 28.5924 41.0735Z" fill="black"/>
<path d="M28.8428 40.9468C28.2619 40.7227 27.661 40.5668 27.0501 40.4693C26.6895 40.4596 26.1187 40.4986 25.8282 40.7032C25.7581 40.7519 25.678 40.8299 25.678 40.9176C25.678 40.976 25.7181 41.0345 25.7581 41.0832C25.9084 41.2294 26.1387 41.2489 26.349 41.2684C27.2303 41.3171 28.1217 41.3268 29.013 41.2879C29.0531 41.2879 29.0931 41.2781 29.1132 41.2489C29.1232 41.2294 29.1232 41.2002 29.1132 41.1709C29.0831 41.054 28.9529 40.9955 28.8428 40.9468Z" fill="black"/>
<path d="M74.6314 42.7106C75.4527 42.8276 76.294 42.8666 77.1252 42.7789C77.666 42.7204 78.2168 42.545 78.2769 41.9895C78.317 41.8823 78.317 41.7654 78.2269 41.6387C78.2269 41.629 78.2168 41.629 78.2168 41.6192C78.2068 41.6095 78.1968 41.59 78.1868 41.5803C77.9764 41.3269 77.676 41.1515 77.4156 40.9663C77.0451 40.7032 76.6645 40.4596 76.2639 40.2258C75.4827 39.758 74.6615 39.3487 73.8203 38.9882C73.5098 38.8615 73.1893 39.0077 73.1693 39.3585C73.1292 40.0991 72.9289 40.9858 73.0591 41.7167C73.1993 42.467 73.9805 42.6132 74.6314 42.7106ZM76.5543 41.4146C76.7747 41.5608 77.1252 41.7264 77.3455 41.9311C76.9149 42.0967 74.7616 41.8921 74.5013 41.8434C74.351 41.8141 74.0406 41.7849 73.9404 41.6582C73.8403 41.5218 73.9104 41.1905 73.9204 41.0248C73.9304 40.6838 73.9604 40.3427 73.9805 40.0016C74.5012 40.2452 75.0221 40.5083 75.5228 40.7909C75.8833 40.9858 76.2238 41.1905 76.5543 41.4146Z" fill="black"/>
<path d="M121.361 59.6273C120.911 57.5712 120.46 55.5248 120.019 53.4687C119.789 52.4261 119.559 51.3834 119.338 50.3309C119.148 49.4442 118.968 48.5574 118.577 47.7291C117.806 46.1115 116.144 45.3027 114.551 44.6108C110.826 42.9737 106.95 41.6485 102.984 40.674C101.001 40.1868 98.9978 39.7872 96.9848 39.4754C95.062 39.1733 93.119 38.92 91.2562 38.3548C87.5507 37.2341 84.8065 34.3595 81.5917 32.3618C75.2021 28.386 67.8311 26.0765 60.39 24.8877C51.9373 23.5332 43.3344 23.5624 34.7916 23.806C30.7255 23.9229 26.5893 23.884 22.5733 24.5661C18.7375 25.219 15.4125 26.8658 12.4481 29.302C11.0159 30.4811 9.69395 31.7674 8.40202 33.0829C7.15014 34.3595 5.90828 35.7042 5.07703 37.2926C4.1857 38.9979 3.97537 40.8299 3.91528 42.7106C3.85519 44.5816 3.74503 46.3356 3.06401 48.1092C1.93231 51.1008 -0.281013 54.0632 0.0294522 57.3958C0.319888 60.5141 2.7235 62.6092 5.51769 63.8273C6.90977 64.4315 8.36196 64.8797 9.83417 65.2695C10.0345 65.3182 10.2047 65.2987 10.3449 65.2208C10.6654 65.0746 10.7756 64.7335 10.7255 64.3925C9.97437 58.9939 12.408 52.4066 17.6359 49.8535C22.1326 47.6609 28.6924 49.0349 30.5152 53.9657C31.8071 57.464 31.1061 61.3424 32.5883 64.8018C32.7085 65.0941 32.9388 65.328 33.2893 65.3182C47.7911 65.1818 62.2928 65.0551 76.7945 65.5229C80.8807 65.6593 84.9668 65.8347 89.0529 66.0783C89.4335 66.0978 89.7941 65.7372 89.774 65.3767C89.6238 61.6445 89.4135 57.6005 91.2562 54.1996C91.9973 52.8256 93.0289 51.5685 94.3809 50.7305C95.9533 49.7463 97.796 49.4832 99.6288 49.7268C101.482 49.9704 103.404 50.5648 104.997 51.5393C106.429 52.4261 107.471 53.7221 108.142 55.2325C108.803 56.7137 109.133 58.3411 109.363 59.9294C109.484 60.7577 109.564 61.586 109.654 62.4046C109.724 63.1257 109.784 63.8955 110.195 64.5289C110.665 65.25 111.447 65.4936 112.288 65.5229C113.319 65.5618 114.371 65.5131 115.402 65.4449C116.484 65.3767 117.566 65.2695 118.637 65.1233C119.479 65.0064 120.4 64.9187 121.051 64.3243C122.373 63.1354 121.682 61.089 121.361 59.6273ZM117.746 49.8827C117.966 50.8474 118.177 51.8121 118.387 52.7769C117.355 52.7769 116.334 52.5917 115.342 52.2799C114.05 51.8803 112.748 51.3541 111.587 50.672C109.724 49.5904 108.843 47.7194 108.312 45.7705C111.206 46.9983 114.231 47.9338 117.335 48.5282C117.526 48.957 117.646 49.415 117.746 49.8827ZM5.41754 41.551C5.48764 40.4694 5.71799 39.4657 6.11859 38.5107C8.28183 38.7835 10.4451 38.306 12.5582 37.8383C13.1391 37.7116 13.73 37.5752 14.3109 37.429C14.6213 37.3511 14.9218 37.2829 15.2323 37.2049C15.5427 37.1269 15.9533 36.9515 16.2738 36.9808C17.3554 37.0685 16.2638 38.9005 15.9634 39.3C15.3524 40.1088 14.5212 40.7325 13.6799 41.2977C13.1591 41.6485 12.8186 42.126 12.4981 42.6522C11.8071 43.7825 11.3765 45.0201 10.7455 46.17C10.1947 47.1737 8.68243 47.6999 7.62084 47.963C6.59931 48.2066 5.54775 48.3333 4.50618 48.46C4.68645 47.9922 4.83668 47.5147 4.95686 47.0275C5.39752 45.215 5.29736 43.3733 5.41754 41.551ZM2.58328 60.0561C0.510173 57.4348 1.81213 54.2775 3.06401 51.627C3.3945 50.9254 3.73502 50.2238 4.04548 49.5124C4.79661 49.5709 5.53772 49.6683 6.26881 49.834C7.00992 49.9996 7.89125 50.1653 8.45209 50.711C8.9228 51.1787 9.14312 51.8219 9.32339 52.4358C9.54372 53.2154 9.73401 54.0047 9.87422 54.794C10.0244 55.6613 10.0144 56.5188 9.93432 57.3861C9.30337 59.4032 9.06302 61.5275 9.21324 63.6421C6.77959 62.96 4.14562 62.0245 2.58328 60.0561ZM113.88 64.1099C113.239 64.1294 111.817 64.3827 111.416 63.7591C111.046 63.1841 111.096 62.2681 111.026 61.625C110.946 60.8454 110.846 60.0756 110.725 59.296C110.485 57.7174 110.125 56.1583 109.474 54.6868C108.853 53.2738 107.931 51.9681 106.699 51.0033C105.317 49.9217 103.665 49.2395 101.972 48.7815C100.099 48.2748 98.0865 48.0312 96.1736 48.4697C94.6613 48.8205 93.2793 49.6293 92.1676 50.672C89.6438 53.0497 88.6123 56.4019 88.3419 59.7345C88.2117 61.3619 88.2517 63.0087 88.3118 64.6361C74.0805 63.8175 59.8291 63.7298 45.5777 63.8175C41.6519 63.837 37.726 63.876 33.7901 63.915C32.6183 60.6895 33.1191 57.1327 32.0174 53.878C31.086 51.1105 28.9628 49.0836 26.1586 48.0994C23.5147 47.1737 20.4501 47.2321 17.8362 48.2456C14.9418 49.376 12.6784 51.6855 11.2262 54.336C11.076 54.6088 10.9358 54.8914 10.7956 55.174C10.7355 54.6771 10.6354 54.1898 10.5252 53.7026C10.2147 52.3578 9.93432 50.7012 8.71249 49.834C8.09156 49.3857 7.28034 49.1908 6.52921 49.0349C8.02145 48.7913 9.47363 48.382 10.6854 47.466C11.2964 46.9983 11.5668 46.4136 11.8772 45.7412C12.2277 44.9909 12.5783 44.2308 12.9789 43.5C13.3494 42.8276 13.71 42.3014 14.3509 41.8531C15.2322 41.2489 16.0635 40.5766 16.7045 39.719C17.2453 38.9979 17.7761 37.965 17.5157 37.049C17.1551 35.7724 15.7631 36.2012 14.8116 36.4351C13.3294 36.8054 11.8372 37.1562 10.3349 37.4388C9.07303 37.6726 7.78109 37.8286 6.50919 37.7019C6.72952 37.3024 6.97989 36.9126 7.26031 36.5228C8.29186 35.1195 9.59379 33.882 10.8457 32.6639C13.4396 30.14 16.3139 27.8111 19.8392 26.6709C23.5047 25.4918 27.4205 25.4431 31.2362 25.3164C39.6489 25.0436 48.1115 24.8 56.4941 25.7549C63.8351 26.593 71.1761 28.4152 77.736 31.8064C79.3384 32.6347 80.9007 33.5604 82.383 34.5738C83.9253 35.6263 85.3474 36.8444 86.8997 37.8675C90.1145 39.9724 93.8301 40.3622 97.5457 40.9956C101.482 41.6582 105.347 42.6619 109.103 43.9872C110.946 44.6401 112.779 45.3514 114.551 46.17C115.312 46.5208 116.083 46.9106 116.664 47.505C116.674 47.5147 116.684 47.5245 116.684 47.5342C113.66 46.8911 110.705 45.9264 107.891 44.6693C107.551 44.5134 107.17 44.7668 107.25 45.1468C107.791 47.544 108.752 49.9607 110.986 51.3249C112.188 52.0558 113.58 52.6112 114.922 53.0497C116.093 53.4298 117.315 53.6636 118.547 53.6344C118.697 54.3457 118.848 55.0571 119.008 55.7685C119.008 55.788 119.018 55.8074 119.018 55.8172C116.354 55.3689 113.76 54.5601 111.326 53.4103C110.996 53.2543 110.575 53.5175 110.685 53.8877C111.757 57.6297 113.309 61.5178 116.504 63.9735C115.653 64.0319 114.762 64.0807 113.88 64.1099ZM119.799 63.457C119.248 63.7104 118.547 63.7883 117.876 63.8468C114.531 61.7614 112.909 58.1169 111.817 54.5309C114.181 55.5638 116.674 56.2947 119.238 56.6845C119.609 58.3021 119.999 59.9294 120.29 61.5568C120.41 62.1999 120.52 63.1257 119.799 63.457Z" fill="black"/>
<path d="M97.8963 51.9388C93.7401 53.0594 90.6755 57.045 91.036 61.2742C91.3665 65.2208 94.2909 68.7483 98.357 69.5182C101.722 70.1516 105.327 68.9043 107.25 66.088C107.741 65.3669 108.102 64.5581 108.322 63.7201C108.542 62.8918 108.442 62.083 108.332 61.2352C108.112 59.5591 107.711 57.9123 107.01 56.3629C106.299 54.794 105.207 53.3226 103.665 52.4553C101.902 51.4613 99.8292 51.4516 97.8963 51.9388C96.9649 52.1727 97.3555 53.5857 98.2969 53.3518C99.679 53.001 101.211 52.9133 102.533 53.5369C103.705 54.0924 104.576 55.0474 105.207 56.1388C105.918 57.3568 106.339 58.7211 106.619 60.0853C106.76 60.7675 106.86 61.4593 106.92 62.1512C106.95 62.502 106.99 62.8236 106.91 63.1647C106.82 63.5349 106.71 63.9052 106.559 64.2658C105.468 66.8286 102.724 68.3098 99.9394 68.2416C96.5543 68.1637 93.69 65.8152 92.7987 62.6677C91.667 58.6724 94.2008 54.4724 98.2969 53.3615C99.2283 53.0984 98.8377 51.6855 97.8963 51.9388Z" fill="black"/>
<path d="M104.646 57.8343C104.166 56.7624 103.435 55.749 102.383 55.1448C101.201 54.4724 99.8092 54.4627 98.5072 54.794C95.7531 55.5541 93.7 58.1559 93.8903 60.9721C94.0605 63.6324 96.0034 66.0296 98.7175 66.5948C100.971 67.0625 103.405 66.2635 104.726 64.4022C105.067 63.9247 105.317 63.3888 105.478 62.8333C105.648 62.2487 105.598 61.7127 105.518 61.1183C105.378 59.9879 105.117 58.877 104.646 57.8343ZM104.446 63.1549C103.675 64.9284 101.772 65.9419 99.8292 65.8834C97.4957 65.8054 95.5428 64.1781 94.9419 62.005C94.1707 59.2473 95.9333 56.3726 98.7375 55.6028C99.719 55.3592 100.791 55.3007 101.722 55.7587C102.513 56.1485 103.104 56.8014 103.535 57.5517C104.015 58.3898 104.306 59.3155 104.496 60.251C104.706 61.2352 104.857 62.1999 104.446 63.1549Z" fill="black"/>
<path d="M30.1547 57.045C28.8027 53.5856 25.688 50.7791 21.7321 50.7402C19.7491 50.7207 17.7862 51.432 16.2038 52.5917C14.4011 53.9169 13.2494 55.7197 12.6184 57.8148C12.2178 59.1401 12.2879 60.6018 12.3881 61.966C12.4882 63.34 12.5784 64.9576 13.3595 66.1562C13.9905 67.1307 14.8518 67.9102 15.7631 68.6313C16.6845 69.3622 17.6259 70.1028 18.7176 70.5608C19.9194 71.0675 21.1412 71.0773 22.4231 70.8824C23.5949 70.6972 24.8267 70.4828 25.9084 69.9956C27.1402 69.4499 27.9414 68.4365 28.6324 67.345C29.3635 66.1952 30.0245 64.9771 30.325 63.6518C30.8057 61.5762 30.9058 59.0816 30.1547 57.045C29.8342 56.1679 28.3821 56.548 28.7025 57.4347C29.2834 59.0134 29.2534 60.8649 29.023 62.5117C28.8828 63.4959 28.5723 64.4314 28.1016 65.3182C27.651 66.1757 27.1302 67.1014 26.4592 67.8225C25.7481 68.5826 24.8167 68.9042 23.8052 69.1283C22.7236 69.3719 21.5518 69.6643 20.4402 69.5279C19.3986 69.4012 18.4973 68.8262 17.676 68.2318C16.8648 67.6374 16.0536 67.004 15.3625 66.2731C15.0321 65.9223 14.7416 65.5423 14.5012 65.133C14.4211 64.9868 14.4912 65.133 14.4512 65.0258C14.4011 64.8991 14.3611 64.7627 14.321 64.6263C14.1608 64.0416 14.0606 63.4472 13.9905 62.843C13.8403 61.5567 13.7401 60.0561 13.9204 58.8575C14.3911 55.593 17.2754 52.8255 20.5804 52.2798C24.2559 51.6757 27.4707 54.219 28.7226 57.425C29.043 58.3118 30.5052 57.9317 30.1547 57.045Z" fill="black"/>
<path d="M27.3004 58.3018C26.389 55.9923 24.3159 54.1019 21.662 54.0726C18.7376 54.0434 16.314 56.1775 15.5428 58.8183C15.2724 59.7343 15.3225 60.7282 15.3926 61.6637C15.4627 62.6089 15.5328 63.6808 16.0836 64.4897C16.5042 65.1133 17.0751 65.6298 17.676 66.0975C18.2969 66.5848 18.9279 67.0817 19.669 67.3936C20.4501 67.7151 21.2514 67.7249 22.0826 67.5982C22.8538 67.4813 23.665 67.3448 24.3861 67.033C25.2273 66.6725 25.7681 66.0196 26.2488 65.279C26.7396 64.5189 27.1902 63.7003 27.4006 62.8233C27.7411 61.4201 27.8012 59.7245 27.3204 58.3408C27.3104 58.331 27.3104 58.3115 27.3004 58.3018ZM26.6695 62.0535C26.4692 63.3203 25.8082 64.6651 24.9369 65.62C24.4461 66.156 23.8052 66.3899 23.1041 66.5458C22.3831 66.7114 21.6219 66.8868 20.8808 66.8284C20.1397 66.7699 19.4887 66.3899 18.9078 65.9708C18.347 65.5616 17.7861 65.1328 17.3054 64.6261C16.6344 63.9245 16.4441 63.2131 16.334 62.2874C16.2238 61.3909 16.1537 60.4359 16.2739 59.5394C16.5643 57.3273 18.5072 55.4271 20.7206 54.9984C23.3044 54.5014 25.5778 56.2554 26.4692 58.5162C26.8597 59.6271 26.8497 60.9134 26.6695 62.0535Z" fill="black"/>
<path d="M30.0947 0.399475V3.59572H33.8904V0.399475H34.9119V8.03928H33.8904V4.46299H30.0947V8.03928H29.0832V0.399475H30.0947Z" fill="black"/>
<path d="M39.7592 8.0393L39.6791 7.34743H39.649C39.3385 7.77619 38.7276 8.16598 37.9264 8.16598C36.7847 8.16598 36.2039 7.38641 36.2039 6.58735C36.2039 5.26208 37.4157 4.54097 39.5889 4.55072V4.43378C39.5889 3.97578 39.4587 3.16698 38.307 3.16698C37.7862 3.16698 37.2354 3.32289 36.8348 3.57625L36.6045 2.92336C37.0752 2.63102 37.7462 2.43613 38.4572 2.43613C40.1798 2.43613 40.6004 3.57625 40.6004 4.6774V6.72377C40.6004 7.20126 40.6205 7.669 40.6906 8.0393H39.7592ZM39.609 5.24258C38.4873 5.2231 37.2254 5.40825 37.2254 6.48016C37.2254 7.1233 37.666 7.43513 38.1968 7.43513C38.9279 7.43513 39.3986 6.97713 39.5589 6.51913C39.5889 6.42169 39.619 6.30475 39.619 6.19756V5.24258H39.609Z" fill="black"/>
<path d="M43.4347 0.984222V2.56286H44.9069V3.32294H43.4347V6.27557C43.4347 6.95769 43.635 7.33773 44.2058 7.33773C44.4762 7.33773 44.6765 7.3085 44.7967 7.26952L44.8468 8.01986C44.6465 8.09782 44.336 8.15629 43.9354 8.15629C43.4547 8.15629 43.0742 8.01011 42.8338 7.73726C42.5434 7.44492 42.4332 6.95769 42.4332 6.3048V3.31319H41.5619V2.55311H42.4332V1.23758L43.4347 0.984222Z" fill="black"/>
<path d="M50.0045 7.83468C49.7341 7.97111 49.1432 8.15626 48.3821 8.15626C46.6795 8.15626 45.5779 7.03562 45.5779 5.35954C45.5779 3.67372 46.7697 2.44589 48.6024 2.44589C49.2033 2.44589 49.7441 2.59206 50.0246 2.72849L49.7942 3.49831C49.5539 3.36189 49.1633 3.23521 48.6024 3.23521C47.3105 3.23521 46.6094 4.16095 46.6094 5.31082C46.6094 6.57762 47.4507 7.3572 48.5624 7.3572C49.1432 7.3572 49.5338 7.21103 49.8243 7.08435L50.0045 7.83468Z" fill="black"/>
<path d="M51.2063 0H52.2279V3.42037H52.2479C52.4081 3.13778 52.6685 2.88442 52.979 2.71876C53.2795 2.5531 53.64 2.43616 54.0306 2.43616C54.7917 2.43616 56.0035 2.89416 56.0035 4.78462V8.04908H54.982V4.90156C54.982 4.01479 54.6415 3.2742 53.6801 3.2742C53.0191 3.2742 52.4883 3.7322 52.308 4.26816C52.2479 4.40458 52.2379 4.55075 52.2379 4.74565V8.05883H51.2164V0H51.2063Z" fill="black"/>
<path d="M57.626 8.03934C57.646 7.66904 57.6761 7.11359 57.6761 6.62636V0H58.6876V3.43986H58.7076C59.0681 2.82595 59.7191 2.43616 60.6305 2.43616C62.0326 2.43616 63.0141 3.56654 63.004 5.23288C63.004 7.19155 61.7321 8.16602 60.4803 8.16602C59.669 8.16602 59.008 7.86393 58.5974 7.13309H58.5674L58.5173 8.03934H57.626ZM58.6776 5.84679C58.6776 5.97347 58.6976 6.10015 58.7276 6.20734C58.9279 6.89921 59.5188 7.3767 60.2599 7.3767C61.3315 7.3767 61.9725 6.52892 61.9725 5.27186C61.9725 4.17071 61.3916 3.23522 60.3 3.23522C59.5989 3.23522 58.948 3.70297 58.7377 4.46305C58.7176 4.57998 58.6776 4.71641 58.6776 4.87232V5.84679Z" fill="black"/>
<path d="M67.4107 8.0393L67.3306 7.34743H67.3005C66.9901 7.77619 66.3791 8.16598 65.5779 8.16598C64.4362 8.16598 63.8553 7.38641 63.8553 6.58735C63.8553 5.26208 65.0672 4.54097 67.2404 4.55072V4.43378C67.2404 3.97578 67.1102 3.16698 65.9585 3.16698C65.4377 3.16698 64.8869 3.32289 64.4863 3.57625L64.2559 2.92336C64.7267 2.63102 65.3977 2.43613 66.1087 2.43613C67.8313 2.43613 68.252 3.57625 68.252 4.6774V6.72377C68.252 7.20126 68.272 7.669 68.3421 8.0393H67.4107ZM67.2605 5.24258C66.1388 5.2231 64.8769 5.40825 64.8769 6.48016C64.8769 7.1233 65.3176 7.43513 65.8483 7.43513C66.5794 7.43513 67.0501 6.97713 67.2104 6.51913C67.2404 6.42169 67.2705 6.30475 67.2705 6.19756V5.24258H67.2605Z" fill="black"/>
<path d="M73.9204 7.83468C73.65 7.97111 73.0591 8.15626 72.298 8.15626C70.5954 8.15626 69.4938 7.03562 69.4938 5.35954C69.4938 3.67372 70.6856 2.44589 72.5183 2.44589C73.1192 2.44589 73.66 2.59206 73.9404 2.72849L73.7101 3.49831C73.4697 3.36189 73.0792 3.23521 72.5183 3.23521C71.2264 3.23521 70.5253 4.16095 70.5253 5.31082C70.5253 6.57762 71.3666 7.3572 72.4782 7.3572C73.0591 7.3572 73.4497 7.21103 73.7401 7.08435L73.9204 7.83468Z" fill="black"/>
<path d="M76.1337 5.06722H76.1538C76.294 4.87232 76.4943 4.63845 76.6545 4.44356L78.307 2.5531H79.5388L77.3656 4.80411L79.8493 8.02959H78.6074L76.6645 5.39854L76.1437 5.96373V8.02959H75.1322V0H76.1437V5.06722H76.1337Z" fill="black"/>
<path d="M80.4502 7.01611C80.7507 7.21101 81.2915 7.41564 81.8022 7.41564C82.5434 7.41564 82.8939 7.05509 82.8939 6.59709C82.8939 6.11961 82.6034 5.8565 81.8423 5.59339C80.8308 5.24259 80.3501 4.69689 80.3501 4.04399C80.3501 3.15723 81.0812 2.43613 82.293 2.43613C82.8638 2.43613 83.3646 2.59204 83.6751 2.77719L83.4147 3.49829C83.1943 3.36187 82.7837 3.17672 82.2629 3.17672C81.662 3.17672 81.3215 3.51778 81.3215 3.92706C81.3215 4.38506 81.662 4.57995 82.3931 4.8528C83.3746 5.21335 83.8754 5.69084 83.8754 6.50939C83.8754 7.47411 83.1042 8.15624 81.7722 8.15624C81.1513 8.15624 80.5804 8.01007 80.1898 7.78594L80.4502 7.01611Z" fill="black"/>
</svg>
