<?xml version="1.0" standalone="no"?>
<!DOCTYPE svg PUBLIC "-//W3C//DTD SVG 20010904//EN"
 "http://www.w3.org/TR/2001/REC-SVG-20010904/DTD/svg10.dtd">
<svg version="1.0" xmlns="http://www.w3.org/2000/svg"
 width="1547.000000pt" height="1258.000000pt" viewBox="0 0 1547.000000 1258.000000"
 preserveAspectRatio="xMidYMid meet">

<g transform="translate(0.000000,1258.000000) scale(0.100000,-0.100000)"
fill="#000000" stroke="none">
<path d="M7065 12569 c-556 -9 -1229 -26 -1495 -39 -236 -12 -876 -48 -980
-55 -1185 -87 -1796 -169 -2351 -315 -693 -183 -1187 -471 -1547 -901 -196
-235 -379 -580 -475 -899 -74 -243 -129 -525 -147 -750 -5 -69 -14 -177 -20
-240 -61 -710 -59 -2019 5 -3055 38 -604 144 -1662 221 -2195 105 -736 230
-1339 355 -1714 155 -461 321 -806 509 -1057 132 -176 416 -432 626 -564 421
-265 1089 -474 1849 -580 762 -107 1833 -166 3495 -195 793 -14 2440 11 2990
45 47 3 211 12 365 21 1650 89 2649 312 3281 733 129 86 335 261 454 387 210
221 362 479 532 904 168 418 303 980 432 1800 55 351 81 558 135 1075 92 878
122 1265 152 1940 25 567 4 1680 -47 2410 -66 969 -322 1629 -817 2111 -454
443 -1048 698 -2002 858 -458 77 -1324 161 -2060 201 -60 3 -218 12 -350 20
-413 25 -2214 70 -2565 63 -47 -1 -292 -5 -545 -9z m2040 -509 c461 -16 651
-25 1300 -65 985 -61 1896 -178 2370 -305 297 -79 624 -218 820 -347 527 -349
814 -834 945 -1596 36 -208 54 -365 75 -642 31 -420 37 -602 42 -1286 7 -903
-9 -1391 -72 -2139 -154 -1820 -349 -2850 -674 -3553 -188 -407 -494 -755
-847 -963 -443 -261 -989 -398 -1979 -498 -1410 -143 -4042 -173 -5850 -66
-986 59 -1623 139 -2105 265 -764 200 -1240 568 -1555 1203 -363 732 -574
1831 -720 3762 -54 718 -65 1004 -65 1735 0 1185 62 2027 185 2515 56 220 162
479 271 658 241 397 625 689 1147 872 429 150 1068 254 2147 349 568 51 1481
93 2395 111 502 10 1775 4 2170 -10z"/>
<path d="M3950 11504 c-390 -18 -834 -54 -849 -69 -6 -7 270 -4392 289 -4575
6 -58 31 -411 55 -785 125 -1877 361 -5004 380 -5023 7 -7 275 -39 425 -51
217 -17 647 -40 892 -47 191 -6 228 -5 232 7 2 8 34 131 71 274 389 1518 577
2041 829 2303 108 113 266 203 438 251 285 79 962 123 1403 91 190 -14 484
-55 599 -84 317 -81 527 -261 682 -585 170 -354 330 -863 570 -1811 53 -206
100 -393 105 -414 l11 -39 231 7 c466 14 1281 76 1304 100 3 3 8 27 10 53 2
27 21 271 43 543 130 1619 266 3477 345 4680 19 300 62 964 96 1475 167 2561
234 3627 229 3630 -3 2 -89 13 -190 24 -178 20 -381 33 -711 47 l-157 6 -10
-48 c-6 -27 -68 -305 -137 -619 -69 -313 -153 -694 -186 -845 -250 -1143 -623
-2670 -818 -3351 -260 -905 -486 -1306 -888 -1575 -266 -178 -596 -273 -1051
-304 -196 -13 -763 -13 -952 0 -575 40 -945 177 -1241 458 -364 346 -551 789
-860 2047 -56 226 -146 589 -200 807 -186 749 -274 1133 -544 2368 -86 393
-174 792 -194 885 l-37 170 -75 1 c-41 0 -103 -1 -139 -2z"/>
</g>
</svg>
