<svg width="1188" height="1188" viewBox="0 0 1188 1188" fill="none" xmlns="http://www.w3.org/2000/svg">
<path d="M1103.4 899.492C1158.87 807.246 1188.11 701.605 1187.96 593.964C1187.96 265.923 922.015 0 593.984 0C265.942 0 0.0198198 265.933 0.0198198 593.964C-0.132727 701.608 29.1119 807.25 84.5983 899.492L82.4363 901.224L85.0178 900.224C188.98 1072.61 378.004 1187.93 593.984 1187.93C809.975 1187.93 998.978 1072.61 1102.93 900.224L1105.51 901.224L1103.4 899.492ZM1114.99 593.964C1115.09 684.925 1091.24 774.309 1045.84 853.132L678.401 557.188L603.041 73.2304C886.572 78.0708 1114.99 309.271 1114.99 593.964ZM73.0458 593.964C73.0458 309.282 301.439 78.0815 584.97 73.2304L509.61 557.188L142.167 853.132C96.7841 774.304 72.9453 684.922 73.0458 593.964ZM594.005 1114.92C409.144 1114.92 246.882 1018.55 154.419 873.386L594.005 703.326L1033.59 873.397C941.118 1018.55 778.888 1114.92 594.005 1114.92Z" fill="black"/>
</svg>
