<svg width="122" height="71" viewBox="0 0 122 71" fill="none" xmlns="http://www.w3.org/2000/svg">
<path d="M121.83 52.6263C121.777 50.9895 121.408 49.41 121.134 47.7962C120.86 46.1824 120.945 44.6373 121.061 43.0121C121.166 41.5699 121.187 40.0706 120.597 38.7315C120.049 37.5068 119.028 36.6484 117.911 36.099C115.415 34.8743 112.519 34.5195 109.822 34.1876C106.831 33.8213 103.818 33.6497 100.838 33.2491C97.8569 32.8485 94.8551 32.1961 92.0955 30.8684C89.4412 29.5979 87.0081 27.8354 84.5119 26.2559C81.9945 24.6535 79.3614 23.3258 76.5702 22.3873C73.8211 21.4488 70.9772 20.8765 68.1123 20.5102C62.3193 19.7777 56.4631 19.9952 50.6595 20.2928C48.1632 20.4187 45.2246 20.35 43.4445 22.6048C41.9173 24.5391 41.8014 27.2288 41.4328 29.6323C41.338 30.2389 41.2327 30.8455 41.0747 31.4407C41.0009 31.7268 40.9167 32.1388 40.685 32.3448C40.369 32.6195 39.7475 32.5165 39.3684 32.5165C37.6936 32.5165 36.0189 32.5165 34.3337 32.5165C31.0159 32.5165 27.7086 32.5165 24.3907 32.5165C21.0729 32.5165 17.7656 32.5165 14.4478 32.5165C12.7731 32.5165 11.0984 32.5165 9.41313 32.5165C7.88588 32.5165 6.31648 32.4135 4.78922 32.5394C3.74648 32.631 2.5984 32.8942 1.91377 33.8328C1.02901 35.046 1.51354 36.6713 1.74526 38.0333C2.05071 39.773 2.34561 41.5127 2.65106 43.2524C2.90385 44.7289 3.15666 46.2626 1.93485 47.3041C1.02903 48.0824 0.249592 48.7577 0.0494687 50.0625C-0.108523 51.1269 0.11266 52.26 0.702496 53.1413C1.43979 54.2401 2.55628 54.572 3.74649 54.7094C5.3264 54.881 6.90632 54.984 8.48624 55.1213C10.0872 55.2587 11.6882 55.396 13.2892 55.5334C13.6052 55.5563 13.8896 55.2129 13.879 54.8924C13.7737 50.7377 15.7644 46.4915 19.2402 44.5801C21.0097 43.6072 22.9056 43.6072 24.8437 43.6988C26.708 43.7903 28.7724 44.0078 30.3839 45.118C31.2686 45.7246 31.8796 46.709 32.3957 47.6704C32.975 48.7348 33.4279 49.8793 33.7965 51.0582C34.1862 52.2943 34.4706 53.5648 34.7234 54.8352C34.9235 55.8767 34.9867 57.1014 35.5555 57.9942C36.2401 59.0586 37.3777 59.0586 38.452 59.07C39.8845 59.0815 41.3169 59.1044 42.7494 59.1159C45.53 59.1387 48.3212 59.1616 51.1019 59.1616C62.3298 59.196 73.5472 59.1273 84.7647 58.9327C85.9233 58.9098 87.2399 59.0586 88.3669 58.6809C89.4096 58.3261 89.9784 57.4562 90.2417 56.3346C90.505 55.2129 90.7262 54.1256 91.1686 53.0612C91.5793 52.0997 92.0955 51.1727 92.6958 50.3372C95.2553 46.8119 99.3631 44.809 103.492 45.6102C105.472 45.9993 107.379 46.9264 108.906 48.3457C109.664 49.0553 110.349 49.8679 110.886 50.795C111.518 51.8708 111.95 53.0612 112.455 54.1943C113.382 56.2774 114.867 58.4406 117.163 58.6924C119.091 58.9098 120.597 57.3876 121.282 55.5563C121.682 54.6407 121.84 53.6335 121.83 52.6263C121.819 51.8022 120.639 51.8022 120.65 52.6263C120.671 54.4575 119.955 56.9412 118.08 57.3876C115.668 57.9713 114.13 54.9954 113.298 53.0612C112.371 50.8865 111.381 48.895 109.654 47.3384C108.126 45.965 106.294 44.9692 104.356 44.5C100.343 43.5271 96.2454 44.8548 93.2541 47.8764C91.769 49.3757 90.6104 51.2299 89.8731 53.2672C89.5044 54.2859 89.3886 55.3617 89.0515 56.3803C88.5881 57.7881 87.145 57.6051 86.0075 57.6279C74.7901 57.8225 63.5622 57.9026 52.3447 57.8797C49.5641 57.8683 46.7729 57.8568 43.9922 57.8339C42.5598 57.8225 41.1273 57.8111 39.6949 57.7996C39.0734 57.7882 38.452 57.7996 37.8306 57.7767C37.2197 57.7538 36.693 57.6279 36.4192 56.9641C36.2085 56.4605 36.1559 55.8653 36.0611 55.3274C35.9452 54.6864 35.8293 54.0569 35.6924 53.4274C35.4291 52.1913 35.1026 50.9667 34.6813 49.7878C33.944 47.7162 32.9012 45.3584 31.1528 44.0879C29.5834 42.9434 27.5716 42.6229 25.7284 42.4627C23.8641 42.3025 21.8839 42.1994 20.0828 42.8404C16.4385 44.1223 13.8158 47.7619 13.0153 51.7564C12.8152 52.7865 12.7204 53.828 12.752 54.881C12.9521 54.6636 13.1417 54.4575 13.3418 54.2401C10.2241 53.9768 7.10643 53.7365 3.99926 53.4274C2.85119 53.313 1.78739 52.981 1.37661 51.6992C1.06063 50.7263 1.21862 49.639 1.93485 48.9294C2.40883 48.4601 2.97758 48.1396 3.38836 47.5902C3.757 47.0981 3.95715 46.5144 4.04141 45.8849C4.231 44.4656 3.84127 43.0006 3.59901 41.6157C3.30409 39.9218 2.99865 38.2278 2.71427 36.5224C2.59841 35.8586 2.46147 35.0803 2.91438 34.5309C3.26196 34.1075 3.83073 33.9472 4.33631 33.8557C5.6845 33.6039 7.12751 33.7641 8.48624 33.7641C10.0872 33.7641 11.6777 33.7641 13.2787 33.7641C16.4701 33.7641 19.6615 33.7641 22.8635 33.7641C26.0655 33.7641 29.2464 33.7641 32.4483 33.7641C34.0072 33.7641 35.566 33.7641 37.1143 33.7641C37.8727 33.7641 38.6311 33.7641 39.3894 33.7641C40.053 33.7641 40.7692 33.8213 41.338 33.3864C42.2438 32.6997 42.3913 31.1202 42.5598 30.0329C42.7494 28.8082 42.8758 27.5607 43.1286 26.3474C43.3603 25.2372 43.7184 24.127 44.4452 23.2801C45.3404 22.25 46.6149 21.8723 47.8683 21.7235C50.5963 21.3916 53.398 21.3801 56.1471 21.3114C58.9593 21.2313 61.7716 21.2427 64.5838 21.4259C70.1241 21.7921 75.717 22.8795 80.7622 25.489C83.3217 26.8167 85.681 28.5221 88.1351 30.0558C90.5893 31.5894 93.1382 32.8256 95.8873 33.5581C101.428 35.0345 107.178 34.8285 112.771 35.8929C114.098 36.1447 115.447 36.4423 116.721 36.923C117.859 37.358 119.007 38.0447 119.565 39.2694C120.144 40.5398 119.986 42.0621 119.881 43.4356C119.765 44.9464 119.765 46.3885 119.997 47.8878C120.239 49.4559 120.629 51.001 120.681 52.6033C120.681 53.4503 121.851 53.4503 121.83 52.6263Z" fill="black"/>
<path d="M33.3437 52.9925C32.3747 50.9094 30.6789 49.4787 28.7198 48.6089C27.7929 48.1968 26.8133 47.9107 25.8232 47.7161C24.8121 47.5101 23.7378 47.3041 22.7056 47.327C18.4082 47.4186 14.8902 51.6648 14.1951 56.0828C13.4683 60.6953 15.7539 65.1819 19.4825 67.3794C22.8951 69.3824 27.519 69.4969 30.9843 67.574C33.1435 66.3837 34.5128 64.1976 34.8604 61.5995C35.2606 58.6465 34.5339 55.6479 33.3437 52.9925C32.9013 51.9968 31.532 52.8666 31.9744 53.8623C33.5333 57.3417 34.5233 62.9157 31.0896 65.5138C28.4038 67.5511 24.4119 67.677 21.41 66.4638C18.0711 65.1018 15.5749 61.6338 15.6275 57.6852C15.6802 53.9539 18.1975 50.0167 21.6312 49.1811C22.6002 48.9408 23.5798 49.0781 24.5488 49.2269C25.5494 49.3757 26.5395 49.6046 27.498 49.948C29.4149 50.6347 31.058 51.8823 31.9849 53.8623C32.4378 54.8466 33.8071 53.9768 33.3437 52.9925Z" fill="black"/>
<path d="M29.6993 55.2128C29.1095 53.9767 28.1194 53.1069 26.9503 52.5689C25.8127 52.0539 24.4435 51.7334 23.2111 51.7563C20.599 51.8021 18.4714 54.4116 18.0501 57.0784C17.5972 59.8826 18.9875 62.6295 21.252 63.9686C23.327 65.1933 26.1498 65.2734 28.2669 64.1059C31.3635 62.3891 30.9949 58.1314 29.6993 55.2128C29.436 54.6177 28.6144 55.1327 28.8778 55.7279C29.8573 57.914 30.4366 61.359 28.2247 62.9271C26.6027 64.0831 24.2433 64.1517 22.4528 63.4421C20.4199 62.6295 18.8716 60.535 18.8822 58.1314C18.8927 55.8194 20.4515 53.3358 22.6108 52.8551C23.7062 52.6147 25.0438 52.9466 26.0866 53.3243C27.2768 53.7478 28.2879 54.5032 28.8672 55.7279C29.1516 56.323 29.9732 55.7966 29.6993 55.2128Z" fill="black"/>
<path d="M111.297 55.0413C110.328 52.9582 108.632 51.5275 106.673 50.6576C105.746 50.2456 104.766 49.9595 103.776 49.7649C102.765 49.5589 101.691 49.3529 100.659 49.3758C96.3613 49.4673 92.8434 53.7136 92.1482 58.1316C91.4214 62.7441 93.707 67.2307 97.4356 69.4282C100.848 71.4312 105.472 71.5456 108.937 69.6228C111.097 68.4325 112.466 66.2464 112.813 63.6482C113.214 60.6839 112.498 57.6966 111.297 55.0413C110.854 54.0455 109.485 54.9154 109.928 55.9111C111.486 59.3906 112.476 64.9645 109.043 67.5626C106.357 69.5999 102.365 69.7258 99.3631 68.5126C96.0243 67.1506 93.528 63.6826 93.5807 59.7339C93.6333 56.0027 96.1507 52.0654 99.5843 51.2299C100.553 50.9895 101.533 51.1269 102.502 51.2757C103.503 51.4245 104.493 51.6534 105.451 51.9968C107.368 52.6835 109.011 53.9311 109.938 55.9111C110.401 56.8955 111.76 56.0256 111.297 55.0413Z" fill="black"/>
<path d="M107.853 57.0441C107.263 55.808 106.273 54.9382 105.103 54.4002C103.966 53.8852 102.597 53.5647 101.364 53.5876C98.7522 53.6334 96.6246 56.2429 96.2033 58.9097C95.7504 61.7139 97.1407 64.4608 99.4052 65.7999C101.48 67.0246 104.303 67.1047 106.42 65.9372C109.527 64.2204 109.148 59.9627 107.853 57.0441C107.589 56.449 106.768 56.964 107.031 57.5592C108.011 59.7453 108.59 63.1903 106.378 64.7584C104.756 65.9144 102.397 65.983 100.606 65.2734C98.5731 64.4608 97.0248 62.3663 97.0354 59.9627C97.0459 57.6507 98.6047 55.1671 100.764 54.6864C101.859 54.446 103.197 54.7779 104.24 55.1556C105.43 55.5791 106.441 56.3345 107.02 57.5592C107.315 58.1543 108.126 57.6279 107.853 57.0441Z" fill="black"/>
<path d="M2.62999 38.3309C3.67274 38.7772 4.79974 38.4911 5.86355 38.7887C7.12749 39.1435 7.33815 40.4368 7.21176 41.6844C7.14856 42.3482 7.04324 43.0235 6.95898 43.6873C6.88525 44.2939 6.90632 45.118 6.37968 45.4843C5.92677 45.7933 5.34745 45.965 4.84188 46.1253C4.25204 46.3198 3.64115 46.4457 3.03025 46.5372C2.57734 46.6059 2.77746 47.3384 3.21984 47.2812C3.92554 47.1782 4.62071 47.018 5.30534 46.7776C5.86357 46.583 6.53766 46.3771 7.0011 45.9536C7.50667 45.4729 7.53827 44.7403 7.63307 44.0651C7.72786 43.2753 7.85426 42.4856 7.92799 41.6958C8.05438 40.3682 7.81212 38.8802 6.57979 38.2622C5.38958 37.667 4.03087 38.1134 2.83013 37.6098C2.38776 37.4038 2.20868 38.1477 2.62999 38.3309Z" fill="black"/>
<path d="M3.04086 40.1964C3.52537 40.2994 4.00986 40.4139 4.49436 40.5169C4.70502 40.5627 5.03155 40.5741 5.22114 40.6772C5.4318 40.7916 5.41073 41.0777 5.4318 41.3295C5.45286 41.5928 5.47393 41.9018 5.4318 42.1536C5.38967 42.394 5.29488 42.4626 5.09475 42.5427C4.61025 42.7488 4.10466 42.909 3.60962 43.0922C3.17778 43.2524 3.36737 43.9964 3.79922 43.8361C4.39958 43.6072 5.1474 43.4584 5.68457 43.0807C6.22175 42.703 6.17962 41.9247 6.13749 41.3181C6.09536 40.7001 6.0427 40.1049 5.41074 39.9217C4.69451 39.7157 3.95719 39.5898 3.23043 39.4296C2.77752 39.3495 2.58795 40.0934 3.04086 40.1964Z" fill="black"/>
<path d="M10.0241 54.2629C9.67648 53.4045 9.34997 52.5346 8.97079 51.6991C8.61267 50.8979 8.11764 50.2799 7.42247 49.7878C5.97948 48.7691 4.3153 48.0366 2.68272 47.4872C2.25088 47.3384 2.06128 48.0824 2.49313 48.2312C4.04145 48.7462 5.5687 49.4444 6.9485 50.3714C7.63313 50.8407 8.07552 51.4244 8.41257 52.2142C8.76015 53.0154 9.07613 53.8395 9.40264 54.6521C9.59223 55.1099 10.2031 54.7093 10.0241 54.2629Z" fill="black"/>
<path d="M119.734 41.0091C118.238 41.3524 116.732 41.65 115.247 42.0506C114.025 42.3825 112.877 42.9205 112.118 44.0536C111.729 44.6258 111.465 45.2782 111.234 45.9306C111.044 46.48 110.76 47.1553 111.36 47.533C111.613 47.6932 111.95 47.7504 112.234 47.8077C112.582 47.8878 112.929 47.9565 113.287 48.0023C113.983 48.1053 114.678 48.1396 115.373 48.1167C116.984 48.0595 118.575 47.6932 120.06 47.0179C120.471 46.8348 120.292 46.0909 119.87 46.274C117.616 47.2926 115.099 47.6131 112.698 47.1209C112.445 47.0637 112.055 47.0523 111.834 46.9035C111.602 46.7547 111.844 46.3427 111.918 46.1252C112.118 45.5529 112.361 44.9806 112.698 44.4885C113.393 43.4469 114.52 43.0235 115.626 42.7373C117.058 42.3711 118.501 42.0735 119.934 41.7416C120.365 41.65 120.176 40.9061 119.734 41.0091Z" fill="black"/>
<path d="M120.102 48.1396C116.953 49.1011 113.698 49.5475 110.433 49.4788C109.98 49.4673 109.98 50.2342 110.433 50.2457C113.761 50.3143 117.09 49.8565 120.292 48.8836C120.724 48.7463 120.534 48.0023 120.102 48.1396Z" fill="black"/>
<path d="M119.86 50.6118C119.059 50.8064 118.154 50.9666 117.416 51.3672C116.837 51.6763 116.5 52.2943 116.774 52.9811C117.437 54.6521 119.407 54.7093 120.808 54.6292C121.261 54.6063 121.261 53.8394 120.808 53.8623C119.723 53.9196 118.28 54.0112 117.553 52.9353C117.153 52.3401 117.616 52.0654 118.112 51.8937C118.743 51.6763 119.397 51.516 120.05 51.3558C120.492 51.2413 120.313 50.5088 119.86 50.6118Z" fill="black"/>
<path d="M90.4209 39.979C90.3155 38.6399 90.1575 37.3008 89.7151 36.0418C89.3044 34.84 88.6513 33.787 87.8087 32.8943C86.0603 31.0058 83.7747 29.701 81.5522 28.5908C79.214 27.4348 76.823 26.3703 74.4005 25.4318C71.8726 24.436 69.3026 23.7722 66.6062 23.6463C63.8572 23.509 61.0976 23.7379 58.3485 23.7379C55.5679 23.7379 52.7872 23.6234 50.0065 23.6463C48.9217 23.6577 47.7841 23.5662 46.8467 24.2758C45.9409 24.9511 45.646 25.9125 45.4142 27.0227C44.8455 29.804 43.9397 32.4822 42.9496 35.1032C41.9595 37.7128 41.0326 40.2995 40.8114 43.1494C40.6956 44.6145 40.7272 46.0794 40.7798 47.533C40.8219 48.6661 40.8746 49.7992 41.0537 50.9209C41.3486 52.8094 42.1386 55.1214 43.9291 55.8653C44.8982 56.2659 46.0041 56.0943 47.0152 56.0828C48.3424 56.0714 49.6695 56.0599 50.9966 56.0599C55.4731 56.0485 59.9495 56.0942 64.4154 56.0942C66.8485 56.0942 69.271 56.0714 71.7041 56.1286C74.3794 56.1858 77.0652 56.2888 79.7406 56.3231C81.9525 56.3575 84.2381 56.4834 86.3657 55.7165C87.24 55.3961 88.1984 54.9153 88.8199 54.1485C89.0726 53.8395 89.1779 53.4046 89.2727 53.0269C89.673 51.4817 89.8626 49.8679 90.0417 48.2884C90.2629 46.3427 90.4103 44.3855 90.4524 42.4283C90.484 41.6043 90.4735 40.7916 90.4209 39.979C90.3893 39.4869 89.673 39.4869 89.7151 39.979C89.8415 41.6844 89.7573 43.4126 89.6414 45.1066C89.515 46.9378 89.3254 48.7692 89.0411 50.589C88.9357 51.2757 88.8198 51.951 88.6513 52.6263C88.5987 52.8552 88.5355 53.0955 88.4512 53.313C88.4196 53.3931 88.4196 53.3931 88.388 53.4847C88.3669 53.5419 88.2932 53.6449 88.3353 53.5877C87.756 54.3545 86.766 54.7894 85.9233 55.0641C84.9965 55.3617 84.038 55.5105 83.0689 55.5563C80.6043 55.6593 78.1291 55.5334 75.6644 55.4647C73.1366 55.396 70.5981 55.3159 68.0597 55.3159C63.8255 55.3274 59.5808 55.3045 55.3467 55.293C53.0084 55.2816 50.6596 55.293 48.3213 55.3045C47.2259 55.3159 46.1094 55.419 45.0245 55.3274C44.0239 55.2473 43.2656 54.6406 42.7179 53.7479C41.6541 51.9967 41.5698 49.7305 41.4961 47.6933C41.3907 44.9006 41.4223 42.1422 42.1912 39.4411C42.918 36.8658 44.0134 34.4279 44.8455 31.887C45.2668 30.6051 45.6354 29.3119 45.9409 27.9842C46.1937 26.8854 46.2674 25.7065 47.1627 24.974C48.0896 24.2186 49.3851 24.4132 50.4805 24.4132C51.7971 24.4017 53.1032 24.4246 54.4198 24.4475C57.0635 24.4933 59.7072 24.5047 62.351 24.4246C64.9736 24.3445 67.6068 24.2987 70.1874 24.8824C72.6731 25.4547 75.0535 26.4848 77.4023 27.5149C79.6879 28.5221 81.9841 29.5293 84.1117 30.8799C86.1234 32.1618 88.1774 33.787 89.0305 36.2478C89.4413 37.4496 89.6098 38.72 89.7046 39.9905C89.7467 40.4712 90.4525 40.4712 90.4209 39.979Z" fill="black"/>
<path d="M63.8044 24.127C63.6254 26.1529 63.8255 28.1787 64.0888 30.1817C64.3627 32.2075 64.6471 34.2334 64.8367 36.2707C65.2053 40.2995 65.3001 44.3626 65.121 48.4029C65.0157 50.7034 64.8261 52.9925 64.5523 55.2816C64.4891 55.7738 65.2053 55.7623 65.258 55.2816C66.227 47.2011 66.0374 39.0977 64.9104 31.0515C64.5944 28.7624 64.2995 26.4505 64.4996 24.127C64.5523 23.6349 63.8466 23.6349 63.8044 24.127Z" fill="black"/>
<path d="M48.0263 25.5691C47.6998 27.2859 47.0152 28.8768 46.636 30.5822C46.4464 31.4292 46.32 32.3219 46.3516 33.2032C46.3727 33.8442 46.3938 34.8285 47.0257 35.1146C47.6788 35.4122 48.5635 35.3664 49.2587 35.3779C50.1013 35.3893 50.9439 35.3779 51.7865 35.3779C53.5245 35.3779 55.2624 35.3779 56.9898 35.3779C58.7066 35.3779 60.4129 35.3779 62.1298 35.3779C62.7617 35.3779 63.2252 35.2634 63.3515 34.508C63.4779 33.7183 63.499 32.8713 63.5411 32.0701C63.6254 30.3991 63.6043 28.6823 63.2146 27.0456C63.0672 26.4046 62.8986 25.4432 62.2561 25.1685C61.9718 25.0426 61.6242 25.0541 61.3187 25.0312C60.8869 24.9968 60.4445 24.9625 60.0127 24.9396C56.1577 24.7107 52.3026 24.8251 48.4687 25.2486C48.0158 25.2944 48.0158 26.0613 48.4687 26.0155C51.4811 25.6836 54.5146 25.5462 57.548 25.6149C58.3169 25.6263 59.0858 25.6607 59.8547 25.7064C60.2128 25.7293 60.5709 25.7522 60.929 25.7751C61.2345 25.798 61.7506 25.7294 62.0244 25.9239C62.2772 26.1071 62.372 26.6564 62.4457 26.9654C62.5405 27.3317 62.6248 27.7094 62.688 28.0871C62.8144 28.8425 62.8565 29.5979 62.8671 30.3648C62.8776 31.1431 62.8354 31.9213 62.7933 32.6996C62.7722 33.0659 62.7407 33.4207 62.7091 33.7869C62.688 34.0731 62.7512 34.5653 62.4352 34.611C62.0876 34.6683 61.6979 34.611 61.3398 34.611C60.9501 34.611 60.5604 34.611 60.1706 34.611C59.4228 34.611 58.6645 34.611 57.9166 34.611C56.3578 34.611 54.8095 34.611 53.2506 34.611C51.7444 34.611 50.2277 34.6568 48.732 34.5881C48.3213 34.5767 47.9105 34.5423 47.5102 34.4622C47.2996 34.4164 47.2259 34.4165 47.1732 34.1875C47.1205 33.9701 47.0889 33.7412 47.0679 33.5123C46.9941 32.6195 47.0995 31.7268 47.289 30.8684C47.6682 29.1401 48.3634 27.5148 48.7005 25.7866C48.8058 25.283 48.1211 25.077 48.0263 25.5691Z" fill="black"/>
<path d="M65.6582 25.6149C66.0479 27.5835 66.4376 29.5407 66.8378 31.5093C67.0169 32.4135 67.2171 33.3177 67.512 34.1876C67.6173 34.508 67.7226 34.8857 67.9333 35.149C68.1966 35.4695 68.5968 35.5496 68.9655 35.6297C70.7561 36.0303 72.5993 35.8815 74.4109 35.8472C76.2753 35.8128 78.1501 35.8243 80.0144 35.8701C81.0571 35.893 82.0893 35.9388 83.1321 35.9845C84.1748 36.0303 85.2386 36.1676 86.2919 36.0646C86.471 36.0417 86.6605 35.9044 86.65 35.6755C86.6079 34.8629 85.997 34.3936 85.4598 33.9358C84.8595 33.4208 84.2486 32.9286 83.6271 32.4479C82.3632 31.4636 81.0466 30.5594 79.6878 29.7238C76.9809 28.0757 74.095 26.7595 71.0931 25.9354C69.3973 25.4661 67.6594 25.1686 65.911 25.0427C65.4581 25.0083 65.4581 25.7752 65.911 25.8095C71.7883 26.2445 77.3706 28.7739 82.2262 32.322C82.8898 32.8027 83.5429 33.3063 84.1854 33.8328C84.5119 34.1074 84.8384 34.3822 85.1649 34.6569C85.4598 34.9087 85.9233 35.2177 85.9443 35.6755C86.0602 35.5496 86.1761 35.4237 86.3025 35.2864C85.4598 35.3665 84.6067 35.2864 83.764 35.2406C82.8582 35.1948 81.9524 35.149 81.0361 35.1261C79.2455 35.0689 77.4549 35.046 75.6643 35.0574C73.937 35.0689 72.199 35.2062 70.4822 35.0689C70.0609 35.0346 69.6501 34.9773 69.2393 34.8972C69.0603 34.8629 68.8496 34.84 68.6811 34.7599C68.4388 34.6454 68.3756 34.4508 68.2808 34.1876C67.9859 33.3749 67.7858 32.528 67.6068 31.6696C67.1749 29.5865 66.7641 27.492 66.3533 25.3975C66.2375 24.9282 65.5634 25.1342 65.6582 25.6149Z" fill="black"/>
<path d="M49.8063 38.7543C49.7326 38.2049 49.2165 38.0905 48.7952 37.976C48.1106 37.7929 47.4049 37.8158 46.6992 37.8043C45.9513 37.7929 45.214 37.8616 44.4767 37.9875C44.3293 38.0104 44.1818 38.0447 44.066 38.1362C43.9501 38.2278 43.8658 38.3995 43.9185 38.5483C43.9396 38.6284 44.0028 38.6857 44.0554 38.7429C44.877 39.5555 46.0988 39.5784 47.2047 39.5555C47.942 39.544 48.6899 39.5212 49.4061 39.3495C49.5009 39.3266 49.6062 39.3037 49.6799 39.2236C49.8063 39.1091 49.8274 38.926 49.8063 38.7543Z" fill="black"/>
<path d="M73.284 39.1778C73.2103 38.6284 72.6941 38.514 72.2728 38.3995C71.5882 38.2164 70.8825 38.2393 70.1768 38.2279C69.429 38.2164 68.6917 38.285 67.9544 38.4109C67.8069 38.4338 67.6595 38.4682 67.5436 38.5598C67.4278 38.6513 67.3435 38.823 67.3962 38.9718C67.4172 39.0519 67.4804 39.1091 67.5331 39.1664C68.3546 39.979 69.5764 40.0019 70.6824 39.979C71.4197 39.9675 72.1675 39.9447 72.8838 39.773C72.9786 39.7501 73.0838 39.7272 73.1576 39.6471C73.2734 39.5326 73.305 39.338 73.284 39.1778Z" fill="black"/>
<path d="M83.7009 33.9586C82.8899 33.4436 81.6786 32.7111 80.8887 32.1617C80.4357 32.2762 80.046 32.6425 79.8037 33.0774C79.5615 33.5123 79.4562 34.0273 79.4141 34.5309C80.2146 34.7141 81.0466 34.6339 81.8576 34.7141C82.8267 34.8056 83.7851 35.1146 84.7542 34.9773C84.554 34.508 84.1117 34.2219 83.7009 33.9586Z" fill="black"/>
<path d="M40.6955 0.560766C41.1695 0.480648 41.7909 0.400513 42.5703 0.400513C43.5393 0.400513 44.245 0.640868 44.698 1.08724C45.1087 1.47639 45.3615 2.07155 45.3615 2.80406C45.3615 3.54802 45.1614 4.13175 44.7822 4.56668C44.2661 5.16185 43.4235 5.47086 42.465 5.47086C42.1701 5.47086 41.9067 5.45941 41.675 5.40218V8.69851H40.6955V0.560766ZM41.6645 4.53234C41.8752 4.58957 42.149 4.61245 42.4755 4.61245C43.6552 4.61245 44.3714 3.99441 44.3714 2.84986C44.3714 1.76254 43.6657 1.23604 42.5809 1.23604C42.149 1.23604 41.8225 1.27037 41.654 1.31615V4.53234H41.6645Z" fill="black"/>
<path d="M47.5628 1.12159C47.5734 1.48785 47.3311 1.78543 46.9309 1.78543C46.5833 1.78543 46.3305 1.48785 46.3305 1.12159C46.3305 0.743891 46.5938 0.44632 46.9519 0.44632C47.3206 0.44632 47.5628 0.743891 47.5628 1.12159ZM46.4569 8.69852V2.78119H47.447V8.69852H46.4569Z" fill="black"/>
<path d="M52.9662 8.46958C52.7028 8.61837 52.1341 8.81294 51.4073 8.81294C49.7642 8.81294 48.7004 7.5997 48.7004 5.79132C48.7004 3.97149 49.8484 2.65524 51.618 2.65524C52.1973 2.65524 52.7239 2.8155 52.9872 2.96429L52.766 3.79979C52.5343 3.651 52.1551 3.51365 51.618 3.51365C50.3751 3.51365 49.701 4.52086 49.701 5.74552C49.701 7.11898 50.512 7.95453 51.5864 7.95453C52.1446 7.95453 52.5238 7.79428 52.7976 7.65694L52.9662 8.46958Z" fill="black"/>
<path d="M55.1043 5.49358H55.1254C55.2623 5.28757 55.4519 5.02433 55.6098 4.81831L57.2108 2.78101H58.401L56.2945 5.20745L58.6854 8.68689H57.4847L55.6098 5.8484L55.1043 6.45502V8.67543H54.1247V-0.000244141H55.1043V5.49358Z" fill="black"/>
<path d="M63.9939 7.08461C63.9939 7.69122 64.0045 8.22917 64.0361 8.69843H63.1618L63.1092 7.73697H63.0881C62.8248 8.21768 62.256 8.83574 61.287 8.83574C60.4339 8.83574 59.4122 8.32071 59.4122 6.24908V2.7811H60.4022V6.05451C60.4022 7.17617 60.7182 7.93156 61.6135 7.93156C62.2771 7.93156 62.7405 7.42796 62.9196 6.9587C62.9723 6.79846 63.0144 6.60388 63.0144 6.40931V2.7811H64.0044V7.08461H63.9939Z" fill="black"/>
<path d="M65.637 4.71543C65.637 3.96003 65.616 3.34198 65.5949 2.78115H66.4797L66.5218 3.79979H66.5429C66.9431 3.07873 67.5856 2.65524 68.4809 2.65524C69.7975 2.65524 70.7876 3.86847 70.7876 5.66541C70.7876 7.79427 69.5973 8.8358 68.3123 8.8358C67.5961 8.8358 66.9642 8.49242 66.6376 7.9087H66.6166V11.1249H65.637V4.71543ZM66.6061 6.28348C66.6061 6.44372 66.6271 6.59249 66.6482 6.71839C66.8272 7.46234 67.4276 7.97739 68.1333 7.97739C69.1761 7.97739 69.7869 7.0503 69.7869 5.68829C69.7869 4.49796 69.2182 3.49077 68.1649 3.49077C67.4908 3.49077 66.8588 4.01727 66.6692 4.81845C66.6377 4.9558 66.6061 5.11604 66.6061 5.25339V6.28348Z" fill="black"/>
</svg>
