<svg width="122" height="71" viewBox="0 0 122 71" fill="none" xmlns="http://www.w3.org/2000/svg">
<path d="M106.724 58.8797C106.461 56.6405 105.997 54.4977 104.541 52.9206C103.329 51.6085 101.631 50.5852 100.004 50.2602C96.589 49.5619 93.3252 52.0298 91.5569 55.4006C89.8492 58.6509 89.4147 63.0931 91.2133 66.4277C91.668 67.2825 92.2541 67.9927 92.9008 68.6548C93.6385 69.3892 94.3963 70.0994 95.3057 70.5328C96.2253 70.9782 97.2155 71.0264 98.1957 70.9903C99.1961 70.9542 100.227 70.906 101.207 70.6051C103.117 70.0272 105.229 68.3659 106.199 66.2833C107.249 64.008 107.007 61.3355 106.724 58.8797C106.663 58.3981 106.148 58.1333 105.794 58.2537C105.36 58.3981 105.208 58.8797 105.269 59.3612C105.481 61.1549 105.683 63.1292 105.097 64.8507C104.521 66.5601 103.046 67.752 101.692 68.4863C100.934 68.8956 100.116 69.0521 99.287 69.1123C98.4584 69.1725 97.5894 69.2567 96.7709 69.1243C95.2855 68.8956 93.8506 67.4871 92.921 66.1508C89.3338 61.0466 93.3555 51.9576 98.7716 51.9215C100.287 51.9094 101.934 52.7521 103.127 53.8476C103.743 54.4134 104.258 55.1357 104.592 55.9784C104.996 57.0257 105.128 58.2175 105.259 59.3492C105.32 59.8307 105.835 60.0955 106.189 59.9751C106.633 59.8427 106.785 59.3612 106.724 58.8797Z" fill="black"/>
<path d="M104.198 59.4093C104.006 57.7721 103.642 56.2553 102.601 55.0996C101.793 54.2088 100.752 53.6791 99.6711 53.5226C97.3268 53.1735 94.9117 54.4495 93.6486 56.8331C92.1734 59.602 92.4057 63.2737 94.2852 65.6814C96.0131 67.8964 98.893 68.6789 101.197 67.3427C103.602 65.9462 104.552 62.5514 104.218 59.5538C104.147 58.8676 103.228 58.8676 103.309 59.5538C103.561 61.817 103.097 64.321 101.54 65.8017C99.8529 67.4149 97.3167 67.1862 95.6292 65.6814C93.6891 63.9478 93.0524 60.878 94.0225 58.2416C94.8612 55.9784 96.7508 54.5699 98.8122 54.5338C99.8428 54.5218 100.894 54.8468 101.722 55.6173C102.814 56.6405 103.127 58.1212 103.319 59.6862C103.4 60.3845 104.279 60.0955 104.198 59.4093Z" fill="black"/>
<path d="M31.6057 55.2199C31.1004 54.1606 30.5851 53.0892 29.8676 52.2103C29.1502 51.3315 28.261 50.7176 27.2909 50.3444C25.5731 49.6823 23.6027 49.6341 21.895 50.3324C21.117 50.6454 20.3187 51.0306 19.6417 51.5723C18.9344 52.1381 18.3887 53.1012 17.9239 53.9439C16.9538 55.7256 16.3475 57.7962 16.2061 59.9149C15.9029 64.345 18.0552 68.402 21.5111 70.0272C24.7547 71.556 28.6652 70.6652 31.0297 67.5352C33.6266 64.0802 33.4144 59.0963 31.6057 55.2199C31.1308 54.1967 29.8272 55.1116 30.2921 56.1349C31.5653 58.8796 31.9997 62.3708 30.6053 65.1877C29.0997 68.2094 25.9875 69.5216 23.1682 68.7631C20.248 67.9806 17.9441 65.1637 17.7016 61.5401C17.5803 59.7825 17.8734 57.9888 18.51 56.3997C18.8333 55.5691 19.2274 54.7745 19.7023 54.0643C19.8943 53.7753 20.1065 53.4142 20.349 53.1855C20.6117 52.9327 20.9654 52.7521 21.2685 52.5836C22.7944 51.7168 24.3606 51.4519 26.0279 51.8492C26.9474 52.0659 27.8467 52.4752 28.554 53.2336C29.3018 54.0522 29.807 55.1116 30.3021 56.1589C30.7771 57.1461 32.0907 56.2312 31.6057 55.2199Z" fill="black"/>
<path d="M29.3624 56.6525C28.16 54.2929 25.9167 52.7159 23.5623 53.053C21.1978 53.3901 19.0556 55.6894 18.8333 58.5666C18.7019 60.276 18.6615 62.2262 19.187 63.8635C19.6922 65.4164 20.6118 66.3313 21.9052 66.8971C24.0069 67.8121 26.4422 67.5352 28.2408 65.8739C30.6356 63.6588 30.8074 59.65 29.3624 56.6525C29.0694 56.0505 28.2812 56.5923 28.5743 57.1942C29.6858 59.5056 29.7565 62.5994 28.0892 64.5737C26.816 66.0906 24.8254 66.6323 23.0874 66.1748C22.0163 65.8859 20.9149 65.3683 20.3288 64.1885C19.6821 62.8884 19.6619 61.3354 19.6922 59.8667C19.7023 59.1565 19.6922 58.4341 19.864 57.748C20.0358 57.0858 20.3793 56.496 20.7532 55.9783C21.0664 55.5449 21.3595 55.1477 21.7839 54.8828C22.1982 54.618 22.6327 54.4133 23.0773 54.2568C25.2195 53.5104 27.4728 55.0153 28.5641 57.1701C28.8774 57.7961 29.6656 57.2544 29.3624 56.6525Z" fill="black"/>
<path d="M121.821 61.5523C121.618 58.1334 121.295 54.7145 120.8 51.3437C120.598 49.9834 120.325 48.599 119.709 47.4192C119.092 46.2274 118.152 45.3606 117.112 44.7346C114.788 43.3502 112.15 42.4955 109.654 41.6287C106.956 40.6897 104.228 39.8832 101.47 39.221C98.802 38.583 96.1141 38.0774 93.4161 37.7042C92.0318 37.5116 90.6273 37.4273 89.253 37.1504C87.8687 36.8736 86.6359 36.2957 85.4132 35.4771C80.9975 32.4916 76.8242 29.0004 72.2468 26.352C69.9429 25.0157 67.5481 23.8962 65.0725 23.1137C62.4452 22.283 59.7372 21.9098 57.0291 21.7774C51.5625 21.5005 46.0049 21.5366 40.5483 22.2108C35.1726 22.8729 29.8575 24.2332 24.8052 26.5566C22.2689 27.7244 19.8236 29.169 17.3176 30.4571C14.7207 31.7813 12.0429 32.8287 9.26414 33.4787C8.08188 33.7556 6.79858 33.7917 5.66685 34.3094C4.7069 34.7428 3.87832 35.4771 3.25183 36.4402C2.5445 37.5236 2.26157 38.7275 2.05947 40.0517C1.80685 41.713 1.56435 43.3863 1.33194 45.0597C0.867121 48.4665 0.442718 51.8854 0.0890535 55.3164C-0.0423078 56.6045 -0.113031 58.037 0.503356 59.1807C1.12985 60.3364 2.25147 60.7698 3.30236 61.1309C4.69681 61.6125 6.10137 62.0218 7.52613 62.3588C8.68817 62.6357 9.82999 62.9367 11.0223 62.708C12.9827 62.3107 14.6398 60.6133 15.3068 58.3862C15.6806 57.1342 15.7918 55.8099 16.2364 54.582C16.6507 53.4143 17.2267 52.2947 17.9643 51.3678C19.4598 49.4657 21.6222 48.4304 23.7947 48.2619C25.9066 48.1054 28.0387 48.7193 29.7969 50.1399C31.7572 51.7169 33.0102 54.269 33.8085 56.8573C34.1924 58.1093 34.3946 59.4576 34.8392 60.6855C35.2434 61.793 35.8799 62.72 36.6984 63.4303C37.5169 64.1405 38.4971 64.5498 39.4974 64.6461C40.8818 64.7906 42.2964 64.7304 43.6808 64.7545C55.4326 65.0314 67.1742 65.3082 78.926 65.5851C80.4114 65.6212 81.8968 65.6814 83.3721 65.6935C84.3623 65.6935 85.3425 65.4166 86.2115 64.8387C87.0704 64.2609 87.8081 63.3941 88.2931 62.3709C88.8589 61.2031 88.9297 59.9512 89.152 58.6631C90.0816 53.3541 93.3656 48.6471 98.1249 48.1897C100.318 47.973 102.419 48.7916 104.036 50.5853C105.784 52.5355 106.815 55.1839 107.391 57.9046C107.684 59.289 107.765 60.7337 108.29 62.0338C108.715 63.0932 109.402 63.984 110.21 64.6341C112.191 66.2111 114.586 65.6694 116.809 65.3444C117.475 65.2481 118.142 65.1397 118.809 65.0193C119.395 64.911 120.012 64.8508 120.557 64.5859C121.669 64.0683 121.881 62.8163 121.821 61.5523ZM118.496 47.997C119.042 48.9481 119.294 50.0676 119.476 51.1992C117.95 51.1391 116.445 50.8983 114.959 50.4649C113.525 50.0436 112.059 49.5018 110.806 48.5388C110.392 48.2258 109.281 47.4192 109.675 46.6849C110.079 45.9385 111.332 46.2033 111.948 46.2154C113.585 46.2394 115.212 46.2635 116.849 46.2876C117.486 46.721 118.072 47.2627 118.496 47.997ZM15.044 54.1005C14.6297 55.2803 14.4681 56.4961 14.1649 57.7C13.882 58.7955 13.2757 59.7826 12.4774 60.4086C10.4868 61.9736 8.06168 60.9744 5.9397 60.3725C5.25258 60.1799 4.57554 59.9632 3.89852 59.7345C3.33266 59.5418 2.72638 59.3733 2.21104 59.0122C1.10963 58.2297 1.26121 56.6286 1.39258 55.3164C1.72603 52.0179 2.1403 48.7434 2.58491 45.469C2.81732 43.7956 3.05985 42.1343 3.31247 40.461C3.32258 40.4008 3.33266 40.3406 3.34277 40.2804C5.02015 40.2082 6.69753 40.2082 8.37492 40.3045C8.74879 40.3286 9.13276 40.3406 9.50664 40.3767C9.76936 40.4128 10.1129 40.449 10.315 40.6777C10.6182 41.0268 10.4262 41.6528 10.3352 42.0621C10.2544 42.4594 10.1635 42.8566 10.0523 43.2539C9.83 44.0605 9.52686 44.855 9.01152 45.4449C8.51639 46.0107 7.98084 46.1672 7.32404 46.2635C6.71775 46.3478 6.15189 46.5404 5.82853 47.1905C5.52539 47.7803 5.50517 48.5147 5.51528 49.1888C5.51528 49.3694 5.63654 49.5981 5.79821 49.6343C7.93031 50.0917 10.0523 50.5371 12.1844 50.9946C13.1039 51.1872 14.0235 51.3678 14.9329 51.5845C15.2967 51.6687 15.6402 51.8012 15.9838 51.9456C15.62 52.6198 15.3067 53.3421 15.044 54.1005ZM120.083 63.2015C119.547 63.4904 118.84 63.5025 118.264 63.5988C116.91 63.8396 115.556 64.0201 114.191 64.1405C113.141 64.2368 112.16 64.2007 111.221 63.5627C110.412 63.0209 109.766 62.1783 109.382 61.167C108.897 59.8669 108.856 58.338 108.533 56.9777C108.22 55.6535 107.815 54.3653 107.27 53.1495C106.259 50.8983 104.754 48.8518 102.814 47.6961C99.0546 45.469 94.3862 46.9015 91.4558 50.2843C89.8492 52.1382 88.768 54.582 88.1718 57.1221C87.8788 58.3862 87.8687 59.7826 87.4544 60.9985C87.1007 62.0699 86.4136 62.9607 85.585 63.5266C84.6149 64.1766 83.6247 64.1766 82.5435 64.1526C81.139 64.1164 79.7344 64.0803 78.3298 64.0562C75.4803 63.984 72.6409 63.9238 69.7914 63.8516C64.1024 63.7192 58.4033 63.5868 52.7144 63.4423C49.8649 63.3701 47.0254 63.3099 44.1759 63.2376C42.7714 63.2015 41.3668 63.1774 39.9622 63.1413C38.9922 63.1173 38.0626 62.7802 37.2845 62.0458C36.4761 61.2874 36.0113 60.2642 35.7486 59.1085C35.4454 57.7722 35.0918 56.46 34.627 55.196C33.7681 52.8003 32.505 50.6094 30.7265 49.0564C27.3819 46.1311 22.5215 45.9385 18.9647 48.4545C17.9643 49.1527 17.1256 50.0917 16.4385 51.1631C16.0242 50.9826 15.6099 50.814 15.1754 50.7057C14.2458 50.4769 13.3161 50.3084 12.3764 50.1037C10.3453 49.6704 8.30418 49.237 6.27313 48.8036C6.27313 48.3341 6.32367 47.8165 6.5965 47.4914C7.00069 47.0219 7.75853 47.1905 8.27387 47.0099C9.29445 46.6608 10.0422 45.6255 10.4666 44.5059C10.7192 43.8558 10.8809 43.1696 11.0325 42.4714C11.1739 41.8334 11.3558 41.099 11.1133 40.473C10.6384 39.2451 9.12266 39.4257 8.19303 39.3655C6.6268 39.2812 5.06057 39.2812 3.49434 39.3414C3.67622 38.5108 3.94907 37.7403 4.47451 37.0541C5.14142 36.1874 6.01041 35.6456 6.98046 35.441C8.30418 35.1641 9.6178 34.9595 10.9314 34.5863C13.5384 33.8519 16.0343 32.7564 18.4897 31.4804C20.9856 30.1802 23.4309 28.7476 25.9874 27.6281C28.4126 26.5567 30.9084 25.714 33.4447 25.0518C38.5678 23.7276 43.8223 23.222 49.0565 23.1739C54.4221 23.1257 59.9292 22.9692 65.1432 24.6907C69.9126 26.2677 74.2476 29.1569 78.4511 32.2027C80.5529 33.7315 82.6244 35.3206 84.7666 36.7652C85.8983 37.5357 87.0805 38.1617 88.3739 38.4747C89.6572 38.7877 90.9809 38.884 92.2844 39.0525C97.6298 39.7146 102.935 40.9305 108.108 42.664C110.443 43.4465 112.797 44.2772 115.071 45.3245C114.141 45.3125 113.211 45.3004 112.282 45.2884C111.19 45.2763 109.371 44.9272 108.886 46.5043C108.442 47.9368 110.049 49.0925 110.907 49.6583C112.12 50.4529 113.484 50.9585 114.828 51.3437C116.394 51.7891 118.001 52.0419 119.608 52.0901C120.052 55.208 120.345 58.3621 120.527 61.5282C120.568 62.1662 120.638 62.9006 120.083 63.2015Z" fill="black"/>
<path d="M82.7658 39.1126C82.8365 38.9681 82.8568 38.7876 82.7759 38.6311C82.7355 38.5468 82.6951 38.4625 82.6547 38.3783C82.6142 38.294 82.5637 38.2458 82.5031 38.2097C80.6337 36.5364 78.7441 34.8751 76.8444 33.2499C75.0963 31.7571 73.3381 30.2644 71.4587 29.0003C69.6095 27.7483 67.6492 26.7732 65.5979 26.1232C63.5062 25.4611 61.3641 25.0999 59.2118 24.8832C57.0291 24.6665 54.8364 24.5822 52.6437 24.5221C50.36 24.4619 48.0764 24.4619 45.8028 24.5943C41.5588 24.8471 37.2946 25.6055 33.2932 27.3631C29.2715 29.1328 25.5226 31.8896 22.7236 35.79C22.5822 35.9826 22.5721 36.2354 22.7236 36.4401C23.7745 37.8486 25.6742 37.4272 27.0788 37.367C27.8467 37.3309 28.6248 37.3068 29.3927 37.2827C28.8067 38.4866 28.7056 40.0877 28.9178 41.3879C29.2715 43.5187 30.7468 45.204 31.828 46.8412C33.1416 48.8276 34.3542 50.9223 35.4455 53.1012C36.4357 55.0635 37.3654 57.0498 38.9619 58.3981C40.6191 59.8066 42.5087 60.4326 44.4791 60.8178C46.5606 61.2271 48.6725 61.4679 50.7743 61.6485C56.1096 62.13 61.4651 62.2745 66.8105 62.3347C71.3172 62.3828 75.8239 62.3708 80.3306 62.2624C80.6943 62.2504 81.0581 62.2384 81.4219 62.2263C81.8766 62.2143 82.3818 62.2624 82.8062 62.0457C83.655 61.6124 83.6551 60.3965 83.746 59.4695C83.8672 58.2657 83.9784 57.0618 84.0693 55.846C84.4331 51.1871 84.5443 46.3958 83.5338 41.8333C83.3317 40.9184 83.069 40.0034 82.7658 39.1126ZM57.6556 25.6657C61.9097 25.9667 66.1638 26.7612 69.9935 29.0966C72.0851 30.3727 74.0152 31.9618 75.9148 33.587C77.7539 35.152 79.5728 36.741 81.3815 38.3421C73.8838 37.9208 66.3962 37.4874 58.8985 37.0781C57.3727 36.9938 55.857 36.9096 54.3312 36.8373C54.0988 35.5733 53.8663 34.2972 53.644 33.0332C53.1994 30.4931 52.7548 27.953 52.3102 25.4009C54.0988 25.437 55.8772 25.5333 57.6556 25.6657ZM25.5934 36.5364C24.8962 36.5605 24.108 36.5725 23.532 36.091C28.7966 29.0365 36.8096 26.2797 44.4892 25.6176C46.8234 25.4129 49.1778 25.3527 51.5221 25.3888C52.189 29.193 52.8559 32.985 53.5127 36.7892C47.4802 36.4882 41.4477 36.2595 35.405 36.2715C33.1921 36.2715 30.9792 36.3077 28.7663 36.3919C27.7154 36.428 26.6544 36.4882 25.5934 36.5364ZM46.3586 60.24C44.8732 60.0112 43.3372 59.7584 41.9226 59.1806C40.4574 58.5787 39.0629 57.5795 38.0525 56.171C37.4361 55.3042 36.9511 54.3171 36.466 53.342C35.9608 52.3187 35.4354 51.3075 34.8897 50.3083C33.8085 48.3581 32.6162 46.5282 31.3733 44.7104C30.7771 43.8316 30.1708 42.8926 29.8374 41.8212C29.5948 41.0508 29.5544 40.184 29.6555 39.3654C29.7464 38.619 29.9485 37.8365 30.3729 37.2587C31.2924 37.2346 32.212 37.2105 33.1315 37.1985C37.1026 37.1503 41.0738 37.2105 45.045 37.3309C47.9248 37.4272 50.8147 37.5476 53.6946 37.6921C53.7754 38.1616 53.8563 38.619 53.9371 39.0885C54.3413 41.3878 54.7151 43.6992 54.8869 46.0467C55.0486 48.346 55.0587 50.6694 54.9476 52.9688C54.8263 55.6413 54.5535 58.2897 54.2099 60.9382C54.2099 60.9623 54.2099 60.9743 54.2099 60.9984C53.8057 60.9743 53.4116 60.9502 53.0074 60.9141C50.7743 60.7697 48.5614 60.565 46.3586 60.24ZM83.5035 52.5836C83.4125 54.8588 83.2104 57.122 82.9881 59.3853C82.9376 59.8668 82.9477 60.4446 82.7658 60.8901C82.5839 61.3355 82.1798 61.2994 81.816 61.3114C81.5128 61.3234 81.1996 61.3355 80.8964 61.3355C76.7838 61.4559 72.6611 61.4799 68.5485 61.4438C64.0216 61.4077 59.4846 61.3114 54.9577 61.0465C55.5538 56.4118 55.9479 51.7288 55.7054 47.0338C55.5437 43.9039 55.0486 40.81 54.5029 37.7402C59.3229 37.981 64.1428 38.2699 68.9628 38.5468C73.3078 38.7875 77.6629 39.0404 82.008 39.2811C83.463 43.4946 83.6955 48.0932 83.5035 52.5836Z" fill="black"/>
<path d="M62.0512 42.8806C61.5055 42.4111 60.8083 42.1704 60.1313 42.2306C59.6968 42.2667 56.2915 42.2546 56.1904 42.7482C56.1298 43.0492 56.2814 43.3622 56.4734 43.5789C56.827 43.9641 57.3222 44.1086 57.787 44.2169C59.1511 44.554 60.6668 44.8188 61.8592 43.9521C62.1118 43.7594 62.3745 43.3863 62.223 43.0853C62.1825 43.001 62.1219 42.9408 62.0512 42.8806Z" fill="black"/>
<path d="M37.2239 42.05C36.6782 41.5805 35.981 41.3397 35.304 41.3999C34.8695 41.436 31.4642 41.424 31.3632 41.9176C31.3025 42.2185 31.4541 42.5315 31.6461 42.7482C31.9998 43.1334 32.4949 43.2779 32.9597 43.3862C34.3238 43.7233 35.8395 43.9882 37.0319 43.1214C37.2845 42.9288 37.5472 42.5556 37.3957 42.2546C37.3451 42.1583 37.2845 42.0981 37.2239 42.05Z" fill="black"/>
<path d="M88.4952 44.4817C87.8789 44.0724 87.1715 43.8557 86.4642 43.8798C86.1812 43.8798 85.8074 44.265 85.8377 44.4697C85.8781 44.7465 86.1408 44.8549 86.3732 44.903C87.0806 45.0595 87.8081 45.1077 88.5154 44.9753C88.5659 44.9632 88.6266 44.9512 88.667 44.903C88.7175 44.8428 88.7175 44.7225 88.6771 44.6502C88.6266 44.578 88.566 44.5298 88.4952 44.4817Z" fill="black"/>
<path d="M73.6413 37.4272C74.0152 37.4874 74.389 37.5355 74.773 37.5716C75.5208 37.6559 76.2888 37.7402 77.0365 37.7161C77.5923 37.7041 77.9863 37.367 77.9358 36.6447C77.8853 35.9585 77.4508 35.4288 77.0264 35.0195C77.0163 35.0075 76.9961 34.9954 76.986 34.9834C76.9759 34.9714 76.9657 34.9593 76.9455 34.9473C76.3999 34.4537 75.8138 34.0083 75.1974 33.6592C74.7629 33.4064 74.1162 32.8767 73.7221 33.4184C73.3281 33.9481 73.0451 34.6343 72.9138 35.3205C72.8127 35.8261 72.651 36.7169 72.9744 37.1503C73.1563 37.367 73.3988 37.3911 73.6413 37.4272ZM73.611 35.8622C73.6918 35.2242 73.9141 34.6222 74.2375 34.1166C74.6013 34.2491 74.965 34.5019 75.2782 34.7186C75.7229 35.0075 76.1372 35.3325 76.5313 35.6937C76.7435 35.8863 76.9557 36.103 77.087 36.3919C77.2992 36.8494 77.1375 36.7892 76.8041 36.7771C76.1271 36.753 75.45 36.7049 74.7831 36.6447C74.4598 36.6086 74.1364 36.5484 73.8131 36.5243C73.5908 36.5123 73.611 36.5965 73.5807 36.3798C73.5605 36.2233 73.5908 36.0307 73.611 35.8622Z" fill="black"/>
<path d="M38.9518 8.05355C39.3864 8.37859 40.023 8.64344 40.7 8.64344C41.7003 8.64344 42.2763 8.01743 42.2763 7.11455C42.2763 6.27186 41.8721 5.79034 40.8515 5.33288C39.6188 4.81523 38.8609 4.0568 38.8609 2.78073C38.8609 1.38428 39.831 0.336945 41.3063 0.336945C42.0742 0.336945 42.6401 0.55363 42.9735 0.782359L42.7007 1.7334C42.4582 1.5769 41.9529 1.31205 41.2658 1.31205C40.2351 1.31205 39.8411 2.04639 39.8411 2.66035C39.8411 3.50303 40.2958 3.91234 41.3365 4.39388C42.6097 4.98376 43.2666 5.7181 43.2666 7.03029C43.2666 8.4147 42.4077 9.61854 40.6191 9.61854C39.8916 9.61854 39.0933 9.36573 38.6891 9.04069L38.9518 8.05355Z" fill="black"/>
<path d="M47.6015 9.47411L47.5207 8.6555H47.4903C47.1872 9.16112 46.6011 9.61858 45.8332 9.61858C44.7317 9.61858 44.176 8.70366 44.176 7.76466C44.176 6.19967 45.338 5.34494 47.4297 5.36902V5.2366C47.4297 4.70691 47.3085 3.74383 46.1969 3.74383C45.6917 3.74383 45.1663 3.93645 44.7823 4.22537L44.56 3.45491C45.0046 3.1058 45.6614 2.87708 46.3384 2.87708C47.9956 2.87708 48.3998 4.22538 48.3998 5.51349V7.9332C48.3998 8.49901 48.42 9.04074 48.4907 9.48616H47.6015V9.47411ZM47.46 6.1756C46.3889 6.15152 45.1663 6.38025 45.1663 7.63224C45.1663 8.39066 45.5907 8.7518 46.0959 8.7518C46.8032 8.7518 47.2478 8.22211 47.4095 7.66835C47.4398 7.54796 47.4701 7.41554 47.4701 7.29516V6.1756H47.46Z" fill="black"/>
<path d="M49.9963 -0.000244141H50.9865V9.47397H49.9963V-0.000244141Z" fill="black"/>
<path d="M57.5445 6.18758C57.5445 8.57119 56.1601 9.61853 54.8465 9.61853C53.3814 9.61853 52.2496 8.34246 52.2496 6.29593C52.2496 4.12902 53.4319 2.86499 54.9375 2.86499C56.4936 2.86499 57.5445 4.21329 57.5445 6.18758ZM53.25 6.25981C53.25 7.6683 53.9371 8.73972 54.8971 8.73972C55.8368 8.73972 56.5441 7.68035 56.5441 6.23574C56.5441 5.14025 56.0894 3.75582 54.9173 3.75582C53.7451 3.75582 53.25 5.0319 53.25 6.25981Z" fill="black"/>
<path d="M63.6882 6.18758C63.6882 8.57119 62.3038 9.61853 60.9902 9.61853C59.525 9.61853 58.3933 8.34246 58.3933 6.29593C58.3933 4.12902 59.5755 2.86499 61.0811 2.86499C62.6373 2.86499 63.6882 4.21329 63.6882 6.18758ZM59.3937 6.25981C59.3937 7.6683 60.0808 8.73972 61.0407 8.73972C61.9804 8.73972 62.6878 7.68035 62.6878 6.23574C62.6878 5.14025 62.2331 3.75582 61.0609 3.75582C59.8989 3.75582 59.3937 5.0319 59.3937 6.25981Z" fill="black"/>
<path d="M64.931 4.7671C64.931 4.10499 64.9209 3.55122 64.8906 3.02153H65.7596L65.8202 4.09295H65.8404C66.1133 3.47899 66.7398 2.87708 67.629 2.87708C68.3767 2.87708 69.5388 3.40676 69.5388 5.62182V9.47411H68.5485V5.75425C68.5485 4.71895 68.2252 3.85218 67.2955 3.85218C66.6488 3.85218 66.1436 4.39391 65.9718 5.05602C65.9314 5.20048 65.9011 5.40514 65.9011 5.59775V9.47411H64.9108V4.7671H64.931Z" fill="black"/>
<path d="M71.0141 8.27022C71.3072 8.49895 71.8225 8.73972 72.3176 8.73972C73.0351 8.73972 73.3685 8.31837 73.3685 7.77665C73.3685 7.21084 73.0856 6.90988 72.358 6.58484C71.388 6.17554 70.9232 5.52547 70.9232 4.75501C70.9232 3.71971 71.6305 2.86499 72.7926 2.86499C73.3382 2.86499 73.8232 3.0576 74.1264 3.26225L73.8839 4.11697C73.6717 3.96047 73.2776 3.74378 72.7723 3.74378C72.1863 3.74378 71.8629 4.14106 71.8629 4.62259C71.8629 5.15228 72.1863 5.39305 72.8936 5.71808C73.8333 6.13943 74.3183 6.70523 74.3183 7.6683C74.3183 8.79991 73.5807 9.60649 72.2873 9.60649C71.6911 9.60649 71.1455 9.43794 70.7615 9.16106L71.0141 8.27022Z" fill="black"/>
</svg>
