<svg width="122" height="71" viewBox="0 0 122 71" fill="none" xmlns="http://www.w3.org/2000/svg">
<path d="M27.2454 44.2166C25.7215 43.6207 24.1594 43.1099 22.5397 43.0141C20.8625 42.9183 19.2045 43.2908 17.6327 43.9186C14.7 45.0999 11.9782 47.1112 10.3298 50.1121C7.70377 54.9222 7.7421 62.0629 11.5182 66.1281C14.6521 69.5121 19.4824 70.6082 23.7185 70.1081C25.7982 69.8633 27.8683 69.2461 29.6797 68.0649C32.229 66.3941 34.232 63.7443 35.2575 60.6688C36.2638 57.6465 36.1297 54.3263 34.8646 51.4317C33.6762 48.7181 31.5581 46.5259 29.1622 45.1424C28.5488 44.7806 27.9067 44.4826 27.2454 44.2166C26.3732 43.8654 25.9995 45.4085 26.862 45.7597C31.4911 47.6113 35.3246 52.6023 34.3566 58.317C33.8583 61.2648 32.3153 63.9039 30.2068 65.7449C28.6446 67.1177 26.7949 67.9159 24.8494 68.3309C21.1213 69.1184 16.8564 68.4905 13.6937 66.0536C12.189 64.8936 11.0102 63.2441 10.4639 61.2967C9.70681 58.615 9.8314 55.5714 10.7035 52.9429C11.6715 50.0057 13.6745 47.8135 16.1376 46.3769C18.7828 44.8338 21.6963 44.1528 24.629 44.9615C25.3957 45.1744 26.1336 45.451 26.8812 45.7384C27.7437 46.1002 28.1175 44.5571 27.2454 44.2166Z" fill="black"/>
<path d="M24.7632 50.3464C23.1148 49.7079 21.5526 49.5376 19.8946 50.2187C18.4186 50.8253 17.0577 51.8362 16.2335 53.3473C14.9205 55.763 14.9493 59.3387 16.8181 61.3926C18.4186 63.1378 20.9105 63.7018 23.0764 63.4251C25.6545 63.0846 27.9355 61.3926 28.8268 58.6044C29.996 54.9862 27.7821 51.5808 24.7632 50.3464C24.2457 50.1335 24.0156 51.0594 24.5332 51.2722C26.8237 52.198 28.7213 54.6669 28.2134 57.5083C27.7534 60.0836 25.8078 61.8927 23.546 62.3716C21.7155 62.7653 19.6166 62.4567 18.0544 61.2755C16.2047 59.8708 15.8214 57.1678 16.521 54.9223C17.0386 53.2622 18.2174 52.081 19.6358 51.368C20.4121 50.9742 21.2459 50.7082 22.0989 50.6975C22.9422 50.6869 23.7473 50.9636 24.5428 51.2722C25.0603 51.4744 25.2807 50.5486 24.7632 50.3464Z" fill="black"/>
<path d="M110.098 44.9934C108.574 44.3975 107.012 43.8867 105.393 43.7909C103.715 43.6952 102.057 44.0676 100.486 44.6955C97.553 45.8767 94.8312 47.888 93.1827 50.889C90.5567 55.6991 90.5951 62.8397 94.3711 66.9049C97.5051 70.289 102.335 71.3851 106.571 70.8849C108.651 70.6402 110.721 70.023 112.533 68.8417C115.082 67.171 117.085 64.5211 118.11 61.4457C119.117 58.4234 118.983 55.1031 117.718 52.2086C116.529 49.4949 114.411 47.3027 112.015 45.9193C111.402 45.5575 110.76 45.2488 110.098 44.9934C109.226 44.6423 108.852 46.1853 109.715 46.5365C114.344 48.3882 118.178 53.3792 117.21 59.0938C116.711 62.0416 115.168 64.6808 113.06 66.5218C111.498 67.8946 109.648 68.6927 107.702 69.1078C103.974 69.8953 99.7094 69.2674 96.5467 66.8304C95.042 65.6705 93.8632 64.021 93.3169 62.0735C92.5598 59.3918 92.6844 56.3482 93.5565 53.7197C94.5245 50.7826 96.5275 48.5904 98.9906 47.1537C101.636 45.6107 104.549 44.9296 107.482 45.7384C108.249 45.9512 108.987 46.2279 109.734 46.5152C110.597 46.877 110.97 45.334 110.098 44.9934Z" fill="black"/>
<path d="M107.616 51.1231C105.968 50.4846 104.405 50.3143 102.747 50.9954C101.272 51.602 99.9106 52.6129 99.0864 54.1241C97.7734 56.5398 97.8022 60.1154 99.671 62.1693C101.272 63.9145 103.763 64.4785 105.929 64.2019C108.507 63.8613 110.788 62.1693 111.68 59.3811C112.849 55.7629 110.635 52.3469 107.616 51.1231C107.099 50.9103 106.869 51.8361 107.386 52.0489C109.677 52.9748 111.574 55.4437 111.066 58.285C110.606 60.8603 108.661 62.6694 106.399 63.1483C104.568 63.5421 102.47 63.2335 100.907 62.0522C99.0577 60.6475 98.6743 57.9445 99.3739 55.6991C99.8915 54.039 101.07 52.8577 102.489 52.1447C103.265 51.751 104.099 51.4849 104.952 51.4743C105.795 51.4636 106.6 51.7403 107.396 52.0489C107.913 52.2511 108.134 51.3253 107.616 51.1231Z" fill="black"/>
<path d="M121.771 55.9013C120.353 52.2831 123.161 47.7497 120.468 44.5252C120.161 44.1634 119.74 43.8654 119.519 43.4185C119.203 42.8012 119.423 42.0244 119.529 41.3646C119.701 40.2898 119.711 39.2256 119.452 38.1508C118.935 36.0331 117.593 34.2239 115.964 33.0214C114.104 31.6486 111.881 31.0314 109.705 30.6589C107.3 30.2439 104.865 29.9885 102.441 29.797C97.3613 29.3819 92.3106 29.4564 87.2215 29.7012C85.1609 29.7969 83.1963 29.5522 81.6916 27.8495C80.5223 26.5299 79.7844 24.7953 79.0272 23.1671C78.2126 21.4112 77.3596 19.6447 76.0754 18.2612C74.5995 16.6756 72.7114 15.6008 70.7467 14.9836C68.4658 14.2599 66.0602 14.1216 63.693 14.1003C61.1149 14.079 58.5368 14.1003 55.9683 14.1003C50.7835 14.111 45.6081 14.1109 40.4232 14.1216C30.063 14.1322 19.6932 14.1429 9.33302 14.1535C8.12545 14.1535 6.81245 13.9939 5.62404 14.2174C4.70399 14.3876 4.1002 15.1538 3.95644 16.1648C3.78393 17.3354 4.01395 18.5698 4.08104 19.7511C4.15771 21.092 4.19604 22.4222 4.19604 23.763C4.20562 29.1904 3.60184 34.607 2.40385 39.8641C2.09717 41.205 1.75214 42.5352 1.36879 43.8441C0.995013 45.1212 0.544569 46.3769 0.257051 47.6858C-0.231728 49.8567 -0.126304 52.3256 1.48379 53.9113C2.97888 55.3905 4.95317 55.1564 6.29492 53.5495C7.6175 51.9638 8.37463 49.8248 9.29469 47.9412C10.186 46.1002 11.2211 44.2166 12.8024 43.0141C14.6617 41.6094 16.9522 41.322 19.1565 41.2369C21.6867 41.1518 24.2168 41.2156 26.7374 41.3539C28.8075 41.471 31.0214 41.5774 32.6219 43.2269C33.8295 44.472 34.51 46.2066 35.0467 47.8986C35.6217 49.7184 36.0626 51.5807 36.7047 53.3685C37.0401 54.2944 37.3851 55.284 37.9506 56.0609C38.6694 57.0506 39.6949 57.1251 40.7683 57.1357C43.3368 57.1357 45.8957 57.1357 48.4641 57.1357C58.8435 57.1357 69.2229 57.1251 79.6023 57.1251C82.1228 57.1251 84.653 57.1251 87.1736 57.1251C87.394 57.1251 87.5569 57.0187 87.6528 56.859C87.6719 56.8378 87.6911 56.8165 87.7007 56.7845C89.6366 53.5175 91.4288 50.1441 93.2881 46.8238C94.1698 45.2489 94.994 43.5142 96.077 42.0989C97.1792 40.6516 98.8372 40.6941 100.409 40.609C103.677 40.4387 107.079 40.3536 110.165 41.7264C112.676 42.8438 114.708 44.9615 116.28 47.3666C118.12 50.1866 119.443 53.3792 120.708 56.5504C121.034 57.4018 122.088 56.6994 121.771 55.9013ZM119.711 45.6319C120.794 47.0686 120.478 49.2289 120.324 50.9422C120.286 51.3466 120.248 51.7616 120.219 52.166C119.893 51.4317 119.558 50.6974 119.193 49.9738C119.05 48.9415 118.906 47.9093 118.772 46.877C118.685 46.2173 118.561 45.5468 118.503 44.8764C118.484 44.6529 118.484 44.3975 118.523 44.1634C118.839 44.6955 119.308 45.0892 119.711 45.6319ZM118.427 39.5342C118.436 39.6726 118.436 39.8002 118.436 39.9386C116.481 39.2894 114.555 38.4381 112.686 37.5123C111.268 36.7993 109.849 35.916 108.9 34.5326C111.057 34.5751 113.232 35.3839 115.331 34.5538C115.427 34.5113 115.494 34.4474 115.532 34.3729C117.047 35.5542 118.293 37.4484 118.427 39.5342ZM4.54106 35.203C5.02026 35.203 5.50904 35.2456 5.97865 35.32C5.87323 36.2884 5.73905 37.3101 5.30778 38.1721C4.92442 38.9276 4.32063 39.4491 3.66893 39.8854C4.00436 38.3317 4.30146 36.7673 4.54106 35.203ZM3.41974 40.907C3.47725 40.907 3.53475 40.8963 3.59226 40.8538C4.52189 40.3004 5.4132 39.6193 5.94031 38.5764C6.41951 37.6187 6.57285 36.5332 6.69744 35.4584C7.31081 35.6074 8.03919 35.7351 8.27879 36.48C8.70048 37.8102 8.27879 39.5023 7.71334 40.6942C6.53452 43.195 4.30146 44.6742 2.03966 45.8022C2.50927 44.174 3.00763 42.5565 3.41974 40.907ZM3.03639 53.4643C0.995013 52.5491 1.04293 49.8142 1.50296 47.8135C2.74887 48.0263 4.01395 47.9838 5.27903 47.9731C5.37486 47.9731 5.59529 47.9306 5.69113 47.9944C5.85406 48.1115 5.88281 48.4946 5.91156 48.6862C5.96906 49.0799 5.97865 49.4843 5.96907 49.878C5.95948 50.6549 5.88281 51.4211 5.75822 52.1766C5.05859 53.2089 4.1577 53.9645 3.03639 53.4643ZM111.392 40.8857C108.239 39.2149 104.693 39.0979 101.272 39.2469C99.7189 39.3107 97.9555 39.2149 96.5275 39.9918C95.0324 40.8112 94.1794 42.7374 93.3265 44.2272C91.1222 48.0583 89.0808 51.9851 86.8381 55.7842C76.8517 55.7842 66.8653 55.7842 56.8692 55.7949C51.8185 55.7949 46.7678 55.7949 41.7171 55.7949C41.1133 55.7949 40.4999 55.8374 39.8961 55.7736C39.254 55.7097 38.8994 55.3266 38.5927 54.7307C38.171 53.9006 37.8452 53.0067 37.5576 52.1128C36.9826 50.3356 36.5513 48.4946 35.938 46.7387C35.3629 45.1105 34.6346 43.4929 33.4749 42.2904C32.0086 40.7793 30.1301 40.2791 28.1846 40.1089C25.7215 39.896 23.2393 39.8534 20.7762 39.8641C18.639 39.8747 16.4155 39.9173 14.3646 40.6729C12.4957 41.3646 11.0006 42.6629 9.83138 44.3975C8.6909 46.0789 7.88585 48.0051 6.99455 49.8568C6.89871 50.0483 6.80287 50.2718 6.68786 50.4953C6.70703 50.2292 6.70703 49.9632 6.70703 49.6971C6.70703 49.0054 6.7262 47.8135 6.17033 47.3453C5.91156 47.1324 5.58571 47.1324 5.27903 47.1324C4.83816 47.1324 4.3973 47.1431 3.94686 47.1431C3.19931 47.1431 2.44218 47.1112 1.70422 46.9941C1.72339 46.9196 1.74256 46.8558 1.76173 46.7813C1.79048 46.7706 1.81923 46.7706 1.84798 46.7493C4.05228 45.7064 6.247 44.3869 7.70375 42.2053C8.3938 41.173 8.90174 39.9599 9.07425 38.6829C9.2276 37.5974 9.2851 36.0224 8.41296 35.2668C7.92418 34.8412 7.24373 34.7028 6.64952 34.5751C5.99782 34.4368 5.32694 34.3516 4.65607 34.341C4.76149 33.6067 4.85733 32.8724 4.94359 32.1382C5.24069 29.5203 5.40362 26.8811 5.4132 24.2526C5.42278 22.9117 5.39403 21.5708 5.32694 20.2406C5.26944 19.0807 5.06818 17.8675 5.12568 16.7076C5.14485 16.25 5.25027 15.7604 5.68155 15.5795C6.21825 15.3667 6.97538 15.505 7.53125 15.505C8.77715 15.505 10.0231 15.505 11.269 15.505C13.8375 15.505 16.4155 15.4944 18.984 15.4944C24.0443 15.4837 29.1046 15.4837 34.1649 15.4731C39.2252 15.4625 44.2856 15.4625 49.3459 15.4518C54.3583 15.4412 59.3706 15.3454 64.383 15.4518C68.6 15.5369 73.3632 16.3138 76.0946 20.3045C78.0784 23.199 78.8452 27.1259 81.4903 29.4458C83.0908 30.8505 85.0364 31.1272 87.0202 31.042C89.4641 30.9463 91.908 30.7973 94.3615 30.7973C99.2972 30.8079 104.29 31.0953 109.188 31.9147C111.133 32.2339 113.127 32.7234 114.852 33.8302C112.696 34.5113 110.434 33.5322 108.239 33.6812C107.971 33.7025 107.769 34.0111 107.923 34.2984C108.891 36.1182 110.53 37.2569 112.226 38.1188C114.21 39.1298 116.29 40.0344 118.379 40.7261C118.273 41.4817 118.101 42.2372 118.178 43.0034C118.178 43.0353 118.187 43.0673 118.187 43.1098C117.612 43.8122 117.804 45.0786 117.928 45.9831C118.024 46.6748 118.12 47.3666 118.216 48.0583C116.481 45.0892 114.334 42.4394 111.392 40.8857Z" fill="black"/>
<path d="M27.9354 22.8372C27.9258 21.7943 27.8587 20.7301 27.2166 19.9001C26.6703 19.1871 25.8461 18.8146 25.0506 18.5805C22.9997 17.9952 20.7858 17.8887 18.6677 17.8355C16.358 17.7823 14.0483 17.8994 11.7386 17.9526C10.6173 17.9739 9.48635 17.9952 8.36503 17.9632C7.93376 17.9526 7.50248 17.8887 7.12871 18.1761C6.82202 18.4102 6.63034 18.8146 6.62076 19.2296C6.61118 19.8575 6.74535 20.4854 6.74535 21.1239C6.74535 21.7837 6.65909 22.4328 6.5345 23.082C6.31407 24.3164 6.06489 25.5296 5.93072 26.7747C5.80613 27.9346 5.69112 29.1797 5.80613 30.3503C5.91155 31.34 6.34283 32.0743 7.21496 32.3829C8.23086 32.7341 9.36176 32.7553 10.416 32.766C11.5852 32.7873 12.764 32.7766 13.9333 32.7766C16.2526 32.7766 18.5815 32.766 20.9008 32.7341C22.1659 32.7128 23.4597 32.766 24.7152 32.6064C25.7694 32.468 26.6224 31.904 27.092 30.8185C27.5712 29.7118 27.7245 28.4348 27.83 27.2216C27.9641 25.7637 27.9546 24.2951 27.9354 22.8372ZM26.7278 29.5947C26.4882 30.5418 26.0569 31.4038 25.156 31.6912C24.2264 31.9785 23.153 31.8721 22.1946 31.8934C20.0862 31.9359 17.9873 31.9572 15.8788 31.9679C13.8279 31.9679 11.7673 32.0317 9.72595 31.9466C9.22758 31.9253 8.71964 31.8934 8.22127 31.7976C7.80916 31.7231 7.2533 31.6593 6.92744 31.34C6.30449 30.7228 6.48659 29.3393 6.52492 28.5305C6.57284 27.3493 6.7166 26.1787 6.91786 25.0081C7.09995 23.9546 7.35872 22.9117 7.44497 21.8369C7.48331 21.3048 7.48331 20.7727 7.44497 20.2512C7.41622 19.8468 7.14787 19.0061 7.63665 18.804C7.82833 18.7295 8.07751 18.7827 8.27878 18.7827C8.53754 18.7933 8.79631 18.7933 9.06466 18.7933C9.59177 18.8039 10.1093 18.7933 10.6364 18.7933C12.6586 18.772 14.6808 18.6763 16.703 18.6443C18.984 18.623 21.2841 18.6869 23.546 19.0806C24.4373 19.2403 25.4052 19.4105 26.1719 19.9639C27.092 20.6237 27.1783 21.7092 27.1974 22.8372C27.2262 25.0826 27.2837 27.4132 26.7278 29.5947Z" fill="black"/>
<path d="M25.5202 20.23C24.9931 19.7936 24.3127 19.6766 23.6801 19.634C22.7888 19.5808 21.8783 19.6234 20.9775 19.6234C19.9711 19.6234 18.9552 19.6234 17.9489 19.6234C15.9842 19.6234 14.0195 19.6234 12.0548 19.6234C11.0677 19.6234 10.0901 19.6234 9.10298 19.6234C8.76755 19.6234 8.37461 19.5489 8.14459 19.8894C7.95291 20.1768 7.97208 20.6556 7.93375 20.9962C7.6654 23.1139 7.4833 25.2529 7.41621 27.3919C7.39705 27.8921 7.38746 28.4029 7.37788 28.903C7.3683 29.35 7.33954 29.8502 7.53122 30.2652C7.88583 31.0207 8.72921 31.1059 9.40967 31.2123C11.2689 31.4996 13.157 31.4571 15.0354 31.4358C16.933 31.4145 18.8402 31.4251 20.7379 31.3613C22.3288 31.3081 24.8685 31.2123 25.549 29.2436C25.9036 28.2432 25.9898 27.062 26.0953 25.9978C26.2294 24.7634 26.2774 23.5183 26.2678 22.2732C26.2486 21.4857 26.1144 20.7301 25.5202 20.23ZM25.0794 28.0091C24.9356 28.8392 24.7535 29.5203 24.0251 29.914C23.3159 30.2865 22.4821 30.4248 21.7058 30.4993C20.0766 30.6483 18.4281 30.5844 16.7989 30.6057C15.1025 30.627 13.4062 30.6802 11.7098 30.6164C10.876 30.5844 10.0422 30.5099 9.21799 30.3609C8.94006 30.3077 8.5567 30.2865 8.32669 30.0843C8.02 29.8182 8.11584 29.2116 8.11584 28.8285C8.14459 26.9556 8.24043 25.0933 8.42253 23.2309C8.47044 22.7627 8.51837 22.2838 8.57587 21.8156C8.60462 21.5921 8.63337 21.358 8.66212 21.1345C8.68129 21.0175 8.68129 20.5705 8.73879 20.4002C8.74838 20.4109 8.76755 20.4322 8.78671 20.4534C8.81546 20.4747 9.11257 20.4534 9.11257 20.4534C9.30425 20.4534 9.49592 20.4534 9.6876 20.4534C10.1476 20.4534 10.6172 20.4534 11.0773 20.4534C12.7928 20.4534 14.5179 20.4534 16.2334 20.4534C18.1694 20.4534 20.1053 20.4534 22.0413 20.4534C22.8176 20.4534 23.6322 20.3683 24.3989 20.5705C24.6864 20.645 24.9739 20.762 25.1848 20.9962C25.5011 21.3367 25.5202 21.8262 25.5298 22.2945C25.549 24.1994 25.4052 26.1149 25.0794 28.0091Z" fill="black"/>
<path d="M83.4741 37.8847C82.8512 35.9905 81.7107 34.4368 80.6277 32.8405C78.9314 30.3397 77.6567 27.5302 76.2 24.8591C75.4812 23.5396 74.7336 22.2413 73.8711 21.0387C73.1619 20.0491 72.3568 19.0807 71.3697 18.4315C70.1813 17.6547 68.897 17.8143 67.5648 17.7504C65.5331 17.6546 63.5013 17.4524 61.4695 17.3035C57.2813 16.9949 53.074 17.1013 48.8762 17.0374C44.736 16.9629 40.6053 16.8778 36.465 16.8459C35.4396 16.8352 34.4141 16.8352 33.3886 16.8352C32.8711 16.8352 32.3631 16.8352 31.8456 16.8459C31.606 16.8459 31.3568 16.8459 31.1172 16.8565C30.8968 16.8565 30.523 16.7927 30.3218 16.8991C30.0151 17.0587 29.8234 17.6227 29.6796 17.942C29.4975 18.3676 29.3442 18.8146 29.2388 19.2616C29.0279 20.1555 28.9417 21.0813 28.9417 21.9965C28.9321 24.2313 29.4209 26.4341 29.373 28.6689C29.3346 30.7866 28.7404 32.8086 27.7341 34.5964C27.3891 35.2243 27.2741 35.9585 27.8299 36.48C28.2996 36.9163 28.9704 37.0121 29.555 37.0547C31.2322 37.1824 32.7752 37.7677 34.1745 38.8105C37.1455 41.024 38.8131 44.6955 39.6373 48.4627C39.8482 49.4204 40.0111 50.3995 40.1357 51.3785C40.1549 51.5594 40.3465 51.6765 40.4903 51.6765C47.1703 51.9 53.8503 52.0489 60.5398 52.1234C63.8846 52.1553 67.2198 52.1766 70.5646 52.166C72.2226 52.166 73.8807 52.1554 75.5387 52.1447C76.3821 52.1341 77.2254 52.1341 78.0688 52.1234C78.8547 52.1128 79.6598 52.1447 80.4456 52.0383C81.9311 51.8468 83.1004 50.9528 83.7617 49.4523C84.4996 47.7603 84.4325 45.8554 84.3463 44.025C84.2313 41.9605 84.1259 39.8428 83.4741 37.8847ZM40.8161 50.8783C40.0878 45.6426 38.1326 40.2259 33.7336 37.5548C32.7273 36.9482 31.6348 36.5119 30.5039 36.331C30.0534 36.2565 27.9258 36.3416 28.1941 35.3732C28.2804 35.0753 28.4912 34.7986 28.635 34.5326C28.8075 34.2133 28.9608 33.8728 29.095 33.5429C29.373 32.8831 29.5934 32.1913 29.7563 31.489C30.0917 30.0417 30.1684 28.5625 30.063 27.0726C29.8617 23.9759 29.0375 20.4641 30.6572 17.6653C35.7654 17.6121 40.8641 17.7078 45.9723 17.8036C48.5024 17.8462 51.0326 17.8994 53.5628 17.9207C53.5915 17.9207 53.6298 17.9207 53.6586 17.9207C53.6394 20.0171 53.6298 22.1136 53.6107 24.1994C53.5915 26.4128 53.5723 28.637 53.764 30.8505C53.9557 33.0108 54.3103 35.1285 54.3678 37.2994C54.4253 39.5661 54.3295 41.8328 54.387 44.0995C54.4445 46.4726 54.5882 48.8457 54.7416 51.2189C53.6011 51.1976 52.4702 51.1763 51.3297 51.155C47.822 51.0912 44.3143 50.9954 40.8161 50.8783ZM83.2058 48.8458C82.6404 50.3037 81.5765 51.1338 80.1581 51.2615C78.6055 51.3998 77.0242 51.3253 75.462 51.3359C73.8615 51.3466 72.2514 51.3572 70.6509 51.3572C65.5906 51.3679 60.5398 51.3253 55.4795 51.2508C55.3454 49.1437 55.2208 47.0367 55.1537 44.9296C55.077 42.6842 55.1345 40.4494 55.1153 38.204C55.1058 36.0224 54.8278 33.894 54.5882 31.7231C54.3391 29.4883 54.3295 27.2536 54.339 25.0081C54.3582 22.6457 54.3774 20.2938 54.387 17.9313C56.6967 17.9526 58.9968 17.9526 61.297 18.1229C63.8655 18.3144 66.4244 18.5805 68.9929 18.6231C69.6733 18.6337 70.2388 18.6869 70.8426 19.0594C71.408 19.3999 71.8872 19.8681 72.3376 20.3683C73.5069 21.6879 74.4365 23.2735 75.3087 24.8379C76.2383 26.5086 77.0913 28.2326 77.9922 29.9246C78.4234 30.7334 78.8643 31.5316 79.3435 32.2978C80.0719 33.4471 80.8961 34.5219 81.6053 35.6925C82.3432 36.9057 82.8608 38.1933 83.1483 39.63C83.4358 41.0666 83.5125 42.5458 83.5892 44.025C83.685 45.6319 83.7904 47.3346 83.2058 48.8458Z" fill="black"/>
<path d="M50.9368 24.1249C50.793 23.1458 50.6397 22.1561 50.1796 21.2942C49.8059 20.5812 49.2308 20.0172 48.5695 19.6553C47.1703 18.8785 45.541 18.8465 44.0076 18.8253C41.9087 18.804 39.8003 18.7614 37.7014 18.7295C36.6376 18.7189 35.5738 18.7082 34.5099 18.7082C33.7528 18.7082 32.8232 18.5486 32.4111 19.4425C32.2194 19.8682 32.2769 20.4003 32.2673 20.8579C32.2673 21.4432 32.2769 22.0178 32.2961 22.6031C32.344 23.7418 32.4494 24.8804 32.6027 26.0085C32.7561 27.1578 32.9765 28.2965 33.2449 29.4245C33.4461 30.2759 33.6666 31.1698 34.1458 31.8934C34.6249 32.6277 35.2958 33.0001 36.1009 33.0853C37.1359 33.1811 38.2093 33.0959 39.2444 33.0853C41.4008 33.064 43.5476 33.0534 45.7039 33.0321C46.8732 33.0214 48.0616 33.064 49.2308 33.0001C50.0167 32.9576 50.8793 32.7128 51.2051 31.8189C51.3968 31.2868 51.4064 30.6589 51.4351 30.0949C51.4639 29.4458 51.4447 28.786 51.4064 28.1368C51.3201 26.7853 51.1284 25.4551 50.9368 24.1249ZM50.6588 30.627C50.6205 31.0846 50.6013 31.6273 50.218 31.904C49.9305 32.1169 49.5471 32.1594 49.2212 32.1807C48.3204 32.2339 47.4099 32.202 46.509 32.2127C44.6018 32.2233 42.6946 32.2446 40.7874 32.2552C39.8386 32.2659 38.8802 32.2658 37.9314 32.2765C37.1263 32.2871 36.0721 32.4787 35.3342 32.0317C34.7304 31.6699 34.4237 30.8931 34.2128 30.2013C33.9445 29.2968 33.7528 28.3603 33.5803 27.4238C33.2065 25.3806 33.0148 23.2948 33.0053 21.209C33.0053 20.8153 32.919 20.23 33.0436 19.8682C33.2065 19.3999 33.7528 19.5276 34.1074 19.5276C35.0658 19.5276 36.0242 19.5276 36.9826 19.5383C38.8515 19.5595 40.7107 19.5915 42.5796 19.6234C44.228 19.6447 45.9723 19.517 47.5632 20.081C48.282 20.3364 48.9529 20.7727 49.3938 21.4538C49.9305 22.2945 50.0742 23.3587 50.218 24.3483C50.5247 26.4129 50.8313 28.5199 50.6588 30.627Z" fill="black"/>
<path d="M75.6345 28.8605C75.6345 28.8498 75.6249 28.8285 75.6154 28.8179C75.2416 27.8069 74.657 26.9343 74.2065 25.9659C73.7848 25.072 73.4206 24.1568 72.9414 23.3055C72.0022 21.656 70.603 20.6237 68.9066 20.1555C67.1623 19.6766 65.3318 19.6872 63.5492 19.6553C61.5078 19.6127 59.4569 19.6127 57.4155 19.5595C57.0034 19.5489 56.5913 19.5063 56.2175 19.7617C55.9012 19.9746 55.6712 20.347 55.4987 20.7088C55.0962 21.5495 54.9045 22.4434 54.8279 23.3906C54.6458 25.6679 54.7512 28.1368 55.3358 30.3503C55.5754 31.2549 56.045 31.8721 56.8596 32.1594C57.8755 32.5106 58.9489 32.7128 59.9936 32.9256C62.0925 33.3407 64.2105 33.5854 66.3381 33.6599C67.5457 33.7025 68.7437 33.6918 69.9513 33.6173C71.0151 33.5535 72.1076 33.5003 73.1523 33.2662C73.8136 33.1172 74.4845 32.8511 75.002 32.3723C75.2991 32.3829 75.5579 32.2765 75.7112 31.8721C75.8741 31.4358 75.8933 30.9463 75.855 30.4567C75.8933 29.9034 75.7975 29.3606 75.6345 28.8605ZM74.4365 31.3932C74.1874 31.3294 73.9286 31.2761 73.6794 31.2123C73.2002 31.0952 72.721 30.9888 72.2418 30.8718C72.0693 30.8292 71.8489 30.8079 71.7435 30.627C71.6284 30.4567 71.6668 30.1375 71.6668 29.9353C71.6668 29.6692 71.6764 29.4032 71.6764 29.1265C71.6764 28.8924 71.6285 28.5518 71.801 28.3922C72.1077 28.1049 72.7593 28.0942 73.1331 28.1262C73.6219 28.1794 74.0915 28.3922 74.5228 28.6583C74.5611 28.6902 74.5995 28.7115 74.6474 28.7221C74.9349 28.8073 74.9924 29.5628 75.0403 29.8182C75.0787 30.0311 75.1074 30.2332 75.1266 30.4461C75.0978 30.8185 74.9828 31.1804 74.7528 31.4783C74.6282 31.4571 74.5036 31.4145 74.4365 31.3932ZM72.7402 32.5C70.9672 32.8405 69.0983 32.8618 67.2965 32.8405C65.3414 32.8192 63.3863 32.6596 61.4503 32.3403C60.5207 32.1913 59.5911 31.9998 58.671 31.7763C58.2206 31.6699 57.7701 31.5528 57.3197 31.4251C56.898 31.2974 56.5146 31.1378 56.275 30.7015C56.0929 30.3503 56.0163 29.9459 55.93 29.5522C55.815 28.9669 55.7192 28.3816 55.6425 27.7856C55.5275 26.7534 55.4796 25.7105 55.4987 24.6782C55.5179 23.7418 55.5562 22.784 55.8342 21.8901C55.9492 21.5176 56.0929 21.1345 56.3038 20.8153C56.5817 20.3577 56.8596 20.3683 57.3293 20.379C59.1502 20.4215 60.9616 20.4321 62.7825 20.4641C64.4405 20.496 66.1369 20.4535 67.7853 20.7514C69.5296 21.06 71.1301 21.8262 72.1556 23.4864C72.6635 24.3164 73.0373 25.2316 73.4494 26.1255C73.689 26.647 73.9669 27.1365 74.2353 27.6367C73.7944 27.4451 73.3248 27.3174 72.8456 27.3174C72.2897 27.3174 71.408 27.4558 71.0822 28.0411C70.9097 28.339 70.9192 28.7115 70.9192 29.052C70.9097 29.4351 70.8905 29.8289 70.9097 30.2226C70.9384 30.9356 71.2068 31.4358 71.8489 31.6273C72.5389 31.8295 73.2481 31.9679 73.9478 32.1275C73.574 32.3084 73.1427 32.4148 72.7402 32.5Z" fill="black"/>
<path d="M38.6886 35.1604C37.5002 35.1604 36.3118 35.1497 35.1234 35.1497C35.1234 35.1497 35.0179 35.1817 34.8838 35.2136C34.6346 35.2775 34.625 35.6819 34.8742 35.7457C34.8742 35.7457 34.8742 35.7457 34.8838 35.7457C36.2255 36.0862 37.6152 36.1927 38.9953 36.065C39.1869 36.0437 39.4074 36.0011 39.4745 35.7776C39.5128 35.6393 39.4745 35.5009 39.3882 35.3945C39.1965 35.1604 38.9378 35.1604 38.6886 35.1604Z" fill="black"/>
<path d="M62.5141 35.6393C61.3257 35.6393 60.1373 35.6286 58.9489 35.6286C58.9489 35.6286 58.8435 35.6606 58.7093 35.6925C58.4601 35.7563 58.4506 36.1607 58.6997 36.2246C58.6997 36.2246 58.6997 36.2246 58.7093 36.2246C60.0511 36.5651 61.4407 36.6715 62.8208 36.5438C63.0125 36.5226 63.2329 36.48 63.3 36.2565C63.3384 36.1182 63.3 35.9798 63.2138 35.8734C63.0221 35.6393 62.7633 35.6393 62.5141 35.6393Z" fill="black"/>
<path d="M97.4667 35.5541C96.1249 35.5116 94.7832 35.469 93.4414 35.4264L91.3905 35.4584C91.3426 35.469 91.2946 35.4903 91.2659 35.5222C91.2084 35.6073 91.2659 35.7137 91.333 35.7882C91.7067 36.2245 92.2914 36.3097 92.8377 36.3629C94.3615 36.5012 95.8949 36.4906 97.4188 36.3203C97.6967 36.2884 98.0609 36.1288 97.9938 35.8308C97.9459 35.6073 97.6775 35.5541 97.4667 35.5541Z" fill="black"/>
<path d="M44.6114 6.62964C45.0139 6.90632 45.5986 7.12982 46.2215 7.12982C47.1416 7.12982 47.6783 6.58707 47.6783 5.81022C47.6783 5.08658 47.3045 4.67156 46.3653 4.27781C45.2344 3.83086 44.5252 3.18171 44.5252 2.09625C44.5252 0.893723 45.4261 -0.000183105 46.7774 -0.000183105C47.4866 -0.000183105 48.0041 0.180712 48.3108 0.382906L48.0616 1.19169C47.8316 1.05335 47.3716 0.829856 46.7391 0.829856C45.7902 0.829856 45.4261 1.45774 45.4261 1.98983C45.4261 2.71347 45.8478 3.06465 46.8061 3.47968C47.985 3.97984 48.5792 4.61836 48.5792 5.74639C48.5792 6.93827 47.7837 7.97051 46.1449 7.97051C45.474 7.97051 44.7456 7.75767 44.3718 7.48098L44.6114 6.62964Z" fill="black"/>
<path d="M50.7164 0.127533V4.69285C50.7164 6.41683 51.4065 7.15112 52.3361 7.15112C53.3712 7.15112 54.0229 6.39554 54.0229 4.69285V0.127533H54.9334V4.62902C54.9334 7.00214 53.812 7.97053 52.3074 7.97053C50.889 7.97053 49.8156 7.06598 49.8156 4.67158V0.127533H50.7164Z" fill="black"/>
<path d="M58.0194 7.84284L55.748 0.127533H56.716L57.7989 3.92665C58.096 4.96955 58.3548 5.90603 58.5369 6.81059H58.5561C58.7478 5.91668 59.0449 4.94827 59.3515 3.9373L60.5304 0.127533H61.4888L59.0065 7.84284H58.0194Z" fill="black"/>
<path d="M61.8338 6.81061C62.1021 7.00216 62.5717 7.21498 63.0318 7.21498C63.693 7.21498 63.9997 6.85316 63.9997 6.39556C63.9997 5.91668 63.741 5.65065 63.0701 5.37397C62.1692 5.02279 61.7475 4.46939 61.7475 3.8096C61.7475 2.91569 62.3992 2.18143 63.4726 2.18143C63.9806 2.18143 64.4214 2.34105 64.6994 2.52196L64.4693 3.25623C64.2777 3.11789 63.9135 2.93698 63.4439 2.93698C62.9072 2.93698 62.6101 3.27753 62.6101 3.69256C62.6101 4.15015 62.9072 4.35235 63.5589 4.62904C64.4214 4.99086 64.8719 5.48038 64.8719 6.2998C64.8719 7.2682 64.1914 7.9599 63.003 7.9599C62.4567 7.9599 61.9488 7.81093 61.6038 7.57681L61.8338 6.81061Z" fill="black"/>
</svg>
