<svg width="122" height="71" viewBox="0 0 122 71" fill="none" xmlns="http://www.w3.org/2000/svg">
<path d="M35.0533 61.6081C34.95 59.4856 34.3407 57.452 32.9982 55.8518C31.852 54.4961 30.2513 53.5293 28.599 53.1181C25.3874 52.318 21.6698 52.9292 19.4289 55.7296C17.0951 58.6522 17.0744 62.775 19.0778 65.8976C21.1122 69.0758 24.5613 70.8427 28.1343 70.2871C30.1274 69.9759 32.2134 68.9424 33.4939 67.22C34.6815 65.6309 35.1255 63.6417 35.0533 61.6081C35.012 60.5413 33.4629 60.5302 33.5042 61.6081C33.5559 63.0528 33.339 64.4974 32.5955 65.7309C31.8003 67.0533 30.4475 67.9089 29.0741 68.3646C26.1309 69.3425 23.0846 68.3535 21.0295 65.9087C19.1294 63.6529 18.4685 60.3968 19.9969 57.7076C21.5356 54.9961 24.551 54.1849 27.3289 54.5739C28.7643 54.7739 30.179 55.3629 31.2737 56.3963C32.7091 57.7409 33.3906 59.5968 33.4939 61.6192C33.5559 62.6749 35.1049 62.686 35.0533 61.6081Z" fill="black"/>
<path d="M31.315 61.5524C31.1807 59.1854 29.8072 57.263 27.6076 56.7296C25.7592 56.2851 23.6525 56.6629 22.403 58.2965C21.1328 59.9411 21.1431 62.2414 22.2584 63.975C23.415 65.7863 25.3874 66.7865 27.4218 66.4531C28.5267 66.2753 29.673 65.6974 30.3959 64.7528C31.0981 63.8638 31.3459 62.7193 31.315 61.5524C31.2943 60.9079 30.3649 60.9079 30.3856 61.5524C30.4372 63.386 29.5697 64.764 27.9174 65.3196C26.2858 65.8641 24.6129 65.3307 23.4563 63.9972C22.3927 62.7637 21.9796 60.9635 22.7851 59.4522C23.6112 57.9075 25.2428 57.4185 26.8022 57.5963C28.8159 57.8186 30.2616 59.3633 30.3856 61.5524C30.4269 62.197 31.3563 62.197 31.315 61.5524Z" fill="black"/>
<path d="M113.309 62.2416C113.206 60.1302 112.597 58.0965 111.254 56.5074C110.118 55.1628 108.559 54.2183 106.927 53.796C103.767 52.9848 100.091 53.5626 97.8399 56.2629C95.4131 59.1633 95.3615 63.3528 97.3855 66.5199C99.4405 69.7203 102.91 71.4761 106.504 70.8871C108.466 70.5649 110.5 69.5314 111.76 67.8423C112.938 66.2532 113.382 64.264 113.309 62.2416C113.268 61.1747 111.719 61.1636 111.76 62.2416C111.812 63.6862 111.605 65.1086 110.862 66.3421C110.067 67.6534 108.724 68.5091 107.351 68.9647C104.418 69.9426 101.392 68.9535 99.3476 66.531C97.4475 64.2862 96.7969 61.0303 98.3149 58.3521C99.8536 55.6518 102.848 54.8517 105.616 55.2406C107.072 55.4407 108.497 56.0518 109.612 57.1075C111.006 58.441 111.667 60.2746 111.76 62.2526C111.812 63.3083 113.361 63.3195 113.309 62.2416Z" fill="black"/>
<path d="M109.581 62.1859C109.447 59.8301 108.063 57.8965 105.874 57.3853C104.036 56.9519 101.95 57.3297 100.7 58.9522C99.3992 60.6413 99.4612 62.9972 100.638 64.7418C101.805 66.4643 103.726 67.4199 105.699 67.0866C106.803 66.8976 107.939 66.3309 108.662 65.3975C109.365 64.4862 109.612 63.3417 109.581 62.1859C109.561 61.5414 108.631 61.5414 108.652 62.1859C108.704 63.9751 107.877 65.3419 106.277 65.9087C104.666 66.4865 102.972 65.9864 101.805 64.6752C100.731 63.475 100.277 61.6859 101.051 60.1634C101.867 58.5743 103.53 58.0632 105.12 58.241C107.113 58.4743 108.528 60.0079 108.652 62.1748C108.693 62.8305 109.623 62.8305 109.581 62.1859Z" fill="black"/>
<path d="M121.715 53.8738C121.529 51.3179 121.023 48.7731 119.96 46.4617C119.443 45.3282 118.772 44.2725 117.987 43.3279C116.118 41.1276 113.66 39.5719 111.399 37.905C108.951 36.1048 106.494 34.3156 104.046 32.5154C101.526 30.6707 99.0171 28.826 96.4974 26.9813C94.2255 25.3144 91.9639 23.6253 89.5268 22.2362C87.0897 20.8583 84.5183 19.8915 81.8127 19.347C79.0349 18.7802 76.195 18.5357 73.3861 18.269C67.4069 17.7023 61.4071 17.3356 55.4073 17.1022C49.4487 16.8577 43.4799 16.7466 37.511 16.691C31.5628 16.6355 25.6043 16.5021 19.6664 16.6355C18.1794 16.6688 16.6923 16.7466 15.2156 16.9355C13.9351 17.0911 12.6236 17.28 11.3947 17.7356C10.2588 18.1579 9.25708 18.8246 8.50323 19.8581C7.7184 20.936 7.24337 22.2251 6.74768 23.4697C4.59972 28.9482 2.90615 34.7046 2.47242 40.672C2.35883 42.1722 2.33817 43.6946 2.41045 45.1948C2.48274 46.7506 2.70994 48.2842 2.83386 49.8399C3.07137 52.7292 2.67895 55.4962 1.05765 57.8854C0.417395 58.83 -0.42939 59.8635 0.252175 61.0748C0.809819 62.0638 1.98706 62.3416 2.95778 62.5416C5.82861 63.1306 8.74074 63.4862 11.6529 63.5973C13.109 63.6528 14.5547 63.6418 16.0108 63.564C16.4135 63.5417 16.7233 63.1528 16.6097 62.7083C16.0314 60.4858 16.7543 58.0632 17.7766 56.1297C18.8919 54.0183 20.5029 52.2847 22.5889 51.3067C24.6543 50.34 26.9778 50.5289 29.1257 50.9734C31.0981 51.3845 32.5542 52.9292 33.5249 54.7628C34.0722 55.7962 34.4853 56.9075 34.7951 58.0521C35.1256 59.2523 35.2288 60.5302 35.7142 61.6748C36.1686 62.7528 36.9327 63.7084 37.8828 64.3196C39.0704 65.0864 40.4335 65.0086 41.7657 64.9975C47.8688 64.9641 53.9719 64.9308 60.075 64.8975C66.2607 64.8641 72.4464 64.8308 78.6218 64.7975C81.6785 64.7864 84.7249 64.7641 87.7816 64.753C89.3099 64.7419 90.8383 64.7419 92.3563 64.7308C93.6059 64.7197 94.7315 64.7086 95.1859 63.2306C95.537 62.1082 95.6093 60.8525 95.7229 59.6857C95.8468 58.4522 95.9397 57.2187 96.1876 56.0074C96.4147 54.9073 96.7658 53.8071 97.4371 52.9181C98.1909 51.9068 99.2856 51.1956 100.422 50.8178C101.568 50.4289 102.766 50.3289 103.964 50.34C105.12 50.3511 106.277 50.3733 107.34 50.8845C109.406 51.8624 111.13 53.8516 112.194 55.963C113.361 58.2855 113.144 61.3526 115.178 63.1639C117.068 64.853 119.629 63.8751 120.786 61.7304C122.035 59.4745 121.891 56.3852 121.715 53.8738ZM120.053 50.8622C118.669 50.9178 117.347 49.9066 116.232 49.1176C115.044 48.273 113.939 47.3062 112.938 46.2283C112.493 45.7505 111.895 45.2282 111.605 44.617C111.389 44.1614 111.647 44.1058 112.029 44.1281C112.411 44.1503 112.793 44.1947 113.175 44.2281C114.569 44.3503 115.963 44.4725 117.357 44.5948C118.741 46.4061 119.588 48.5842 120.053 50.8622ZM3.61869 43.6169C3.60836 42.4945 3.65999 41.3832 3.75293 40.272C4.8992 40.1164 6.48952 40.083 6.8303 41.5499C6.99553 42.2833 6.86128 43.1279 6.8303 43.8724C6.78899 44.6725 6.75802 45.4615 6.71671 46.2616C6.6754 47.0617 6.64442 47.8507 6.60312 48.6508C6.57214 49.3509 6.59278 50.0955 6.43788 50.7734C6.16938 51.9513 5.13671 52.1958 4.15567 52.2513C4.28992 49.3732 3.63934 46.5061 3.61869 43.6169ZM7.54285 61.9082C6.07645 61.7415 4.62038 61.497 3.17463 61.197C2.3485 61.0192 0.727205 60.6969 1.49138 59.4523C2.15229 58.3966 2.83386 57.4632 3.30889 56.2852C7.64612 56.2408 11.9833 56.1852 16.3206 56.1407C15.7836 57.3187 15.4118 58.5855 15.2466 59.8524C15.1433 60.6414 15.133 61.4415 15.2466 62.2193C12.6752 62.3082 10.1039 62.2082 7.54285 61.9082ZM107.609 49.5399C106.545 49.0731 105.42 49.0176 104.273 48.9953C103.086 48.9731 101.888 49.0398 100.731 49.3287C98.5421 49.8844 96.5593 51.3512 95.6299 53.596C94.7211 55.8074 94.6798 58.2633 94.401 60.6303C94.3391 61.197 94.2565 61.7637 94.1429 62.3193C94.0912 62.5527 94.0706 62.8528 93.9363 63.0639C93.6988 63.4528 93.2548 63.375 92.8624 63.3862C91.334 63.3973 89.8056 63.3973 88.2876 63.4084C85.2309 63.4195 82.1845 63.4417 79.1278 63.4528C73.0247 63.4862 66.9216 63.5195 60.8185 63.5528C54.7154 63.5862 48.6123 63.6195 42.5092 63.6528C41.1874 63.664 39.6383 63.8973 38.4611 63.1083C37.5007 62.4638 36.8295 61.3414 36.5507 60.1746C36.2718 58.9745 36.0756 57.7632 35.6832 56.5964C35.3218 55.5073 34.8674 54.4516 34.2788 53.4737C33.2151 51.729 31.6971 50.2511 29.7763 49.7399C27.711 49.1843 25.3048 48.9954 23.2395 49.6288C20.5029 50.4733 18.169 52.6514 16.7336 55.3406C12.3551 55.3851 7.9869 55.4406 3.60836 55.4851C3.85621 54.6961 4.02143 53.896 4.10404 53.0737C4.98181 53.0404 5.91123 52.8848 6.55148 52.218C7.38795 51.3401 7.30533 49.9066 7.35696 48.7509C7.42925 47.184 7.50154 45.6282 7.58416 44.0614C7.64612 42.8279 7.9146 41.3165 7.05748 40.3164C6.22102 39.3496 4.98181 39.3274 3.84587 39.4608C4.30025 35.0713 5.44651 30.7707 6.90258 26.6479C7.37761 25.3033 7.8733 23.9698 8.43095 22.6585C8.92663 21.4806 9.51525 20.3249 10.5583 19.6137C11.5806 18.9136 12.8198 18.6469 13.9971 18.4468C15.4118 18.2024 16.8369 18.0801 18.2723 18.0135C21.1019 17.8801 23.952 17.9468 26.7815 17.9468C29.6421 17.9579 32.5129 17.969 35.3734 17.9912C41.146 18.0357 46.9084 18.1246 52.681 18.3246C58.402 18.5246 64.123 18.8136 69.8337 19.2803C72.6736 19.5137 75.5134 19.7581 78.3429 20.1137C81.0176 20.4582 83.6819 20.9805 86.2016 22.0251C88.6594 23.0474 90.9313 24.5476 93.1205 26.1034C95.4544 27.7592 97.7469 29.4817 100.06 31.1819C104.769 34.6379 109.54 38.0161 114.197 41.561C115.054 42.2167 115.881 42.9167 116.634 43.7057C115.602 43.6168 114.559 43.528 113.526 43.4391C112.721 43.3724 110.645 42.8501 110.8 44.4169C110.862 45.017 111.285 45.4838 111.647 45.9061C112.091 46.4395 112.566 46.9395 113.061 47.4285C113.753 48.1063 114.487 48.7509 115.251 49.3287C114.197 50.6178 113.34 52.1735 111.998 53.1514C110.79 51.6179 109.323 50.2844 107.609 49.5399ZM120.342 59.1634C120.104 60.4969 119.547 61.8193 118.369 62.4527C117.275 63.0306 116.19 62.5416 115.488 61.5526C114.714 60.4524 114.497 59.0745 114.177 57.7743C113.867 56.5186 113.402 55.3629 112.731 54.285C112.628 54.1294 112.524 53.9738 112.421 53.8182C113.826 52.7736 114.714 51.1623 115.839 49.8177C115.943 49.8955 116.056 49.9732 116.159 50.0399C117.347 50.8511 118.741 51.818 120.208 51.6735C120.393 52.807 120.497 53.9627 120.528 55.1184C120.569 56.4408 120.579 57.841 120.342 59.1634Z" fill="black"/>
<path d="M101.464 39.6052C101.475 39.5941 101.485 39.5719 101.495 39.5608C101.557 39.4719 101.588 39.3607 101.557 39.2496C101.547 39.1829 101.526 39.1274 101.485 39.0829C100.287 36.6715 98.9447 34.3379 97.2408 32.3154C95.4337 30.1706 93.3064 28.3037 91.0551 26.7035C88.618 24.981 85.9744 23.5809 83.1965 22.6141C80.1914 21.5695 77.0314 21.0917 73.9024 20.7916C70.5979 20.4805 67.2726 20.4138 63.9578 20.3249C60.5912 20.2249 57.2144 20.1248 53.8479 20.0248C47.0839 19.8248 40.3199 19.6248 33.5455 19.5359C30.1583 19.4914 26.7712 19.4803 23.3943 19.5248C21.7007 19.547 20.0072 19.5804 18.3136 19.6248C17.0434 19.6581 15.4531 19.5025 14.6166 20.7583C14.2552 21.3028 14.1106 21.9696 13.9764 22.6141C13.8111 23.4809 13.6459 24.3365 13.4704 25.2033C13.1709 26.7257 12.8094 28.2593 12.6752 29.815C12.5719 31.1263 12.6958 32.5376 13.4497 33.6267C14.2035 34.7157 15.4014 35.2158 16.589 35.4936C18.0864 35.8381 19.6354 36.027 21.1534 36.227C22.8264 36.4493 24.5096 36.627 26.1929 36.7604C29.5078 37.0382 32.833 37.1715 36.1582 37.2493C36.7984 37.2605 37.4387 37.2716 38.079 37.2938C38.0686 43.3835 38.2649 49.4732 38.6469 55.5518C38.7605 57.3298 38.8948 59.0967 39.0393 60.8747C39.06 61.097 39.1942 61.2748 39.4111 61.2748C49.3764 61.4193 59.3314 61.4415 69.2967 61.3303C74.2742 61.2748 79.262 61.1859 84.2395 61.0525C86.7282 60.9859 89.2169 60.9192 91.7057 60.8414C92.0671 60.8303 92.5731 60.9192 92.8416 60.5858C93.0482 60.3302 93.0585 59.9635 93.0482 59.6523C93.0378 59.2523 93.0172 58.8856 93.0895 58.4966C93.1928 57.9299 93.2857 57.352 93.3786 56.7742C93.7814 54.3961 94.2461 51.9513 95.8054 50.1066C97.3131 48.3286 99.4611 47.2618 101.692 47.1951C101.96 47.184 102.084 46.9507 102.053 46.684C101.785 44.3281 101.733 41.95 101.464 39.6052ZM23.3943 35.6714C21.773 35.4936 20.1621 35.2824 18.5511 35.0268C17.2809 34.8157 15.8662 34.6601 14.7715 33.8711C12.3964 32.1376 13.6666 28.1815 14.1313 25.7701C14.2965 24.9033 14.4617 24.0476 14.6373 23.1808C14.7612 22.5252 14.8541 21.7695 15.2259 21.2139C15.639 20.6027 16.3515 20.5027 17.0021 20.4693C17.8179 20.4249 18.644 20.4249 19.4599 20.4027C22.7541 20.3249 26.0587 20.3026 29.3529 20.3138C35.9826 20.336 42.6021 20.5138 49.2215 20.7027C55.7583 20.8916 62.2951 21.025 68.832 21.2917C75.0074 21.5362 81.2757 22.1473 86.9038 25.0922C91.5714 27.5369 95.95 31.1597 98.8415 35.8381C99.4198 36.7826 99.9568 37.7494 100.463 38.7385C94.5559 37.2827 88.4838 36.9827 82.4426 36.8826C75.8851 36.7826 69.3277 36.7604 62.7702 36.7048C56.1404 36.6493 49.5107 36.5937 42.8809 36.5381C36.3854 36.4715 29.8692 36.3715 23.3943 35.6714ZM56.2127 60.5858C50.7395 60.5858 45.2561 60.5414 39.7829 60.4636C39.2872 54.3961 38.9877 48.3064 38.8844 42.2278C38.8535 40.5831 38.8431 38.9496 38.8535 37.3049C44.6881 37.4049 50.533 37.4161 56.3676 37.4605C61.1179 37.505 65.8682 37.5383 70.6185 37.5827C70.825 43.528 70.825 49.4843 70.5875 55.4296C70.5256 57.1187 70.4326 58.8078 70.3293 60.4969C65.6307 60.5525 60.9217 60.5858 56.2127 60.5858ZM92.3666 60.0191C92.4286 59.9969 92.4802 60.0191 92.3666 60.0191V60.0191ZM93.3063 53.5515C93.0172 54.6295 92.8313 55.7407 92.6454 56.8409C92.4905 57.7521 92.2943 58.6189 92.3356 59.5412C92.346 59.6968 92.3563 59.8635 92.3253 60.008C92.3046 60.008 92.2737 60.008 92.2427 59.9968C92.0775 59.9857 91.9019 60.008 91.747 60.008C91.0861 60.0302 90.4149 60.0524 89.754 60.0746C88.5354 60.108 87.3168 60.1413 86.0983 60.1747C81.0898 60.308 76.0917 60.408 71.0832 60.4747C71.4446 54.4739 71.5892 48.4508 71.4963 42.4278C71.4756 40.8054 71.424 39.183 71.3724 37.5716C73.1899 37.5828 74.997 37.605 76.8145 37.6161C83.3514 37.6716 89.9398 37.6161 96.4147 38.7051C97.8604 38.9496 99.2958 39.2496 100.721 39.6164C100.989 41.8722 101.041 44.1392 101.31 46.395C99.5334 46.5395 97.8398 47.2507 96.425 48.4286C94.8554 49.7399 93.864 51.5179 93.3063 53.5515Z" fill="black"/>
<path d="M36.7365 40.5498C36.1892 40.1609 35.2598 40.0053 34.6195 40.0609C31.3253 40.0609 28.0311 39.9386 24.7368 39.8386C21.5459 39.7386 18.3652 39.7275 15.1743 39.7164C13.3774 39.7164 11.5702 39.7164 9.7734 39.7164C9.62882 39.7164 9.43261 39.8386 9.41196 40.0164C9.28804 40.9721 9.24673 41.9389 9.31902 42.9057C9.32934 43.1168 9.47392 43.3168 9.69078 43.3057C14.6683 43.1613 19.6354 43.139 24.6129 43.2502C27.0707 43.3057 29.5181 43.3946 31.9655 43.5058C33.2254 43.5613 34.4853 43.6947 35.7451 43.7169C36.4474 43.728 37.067 43.3168 37.3251 42.5945C37.5936 41.8611 37.3664 41.0054 36.7365 40.5498ZM36.437 42.6501C36.1995 42.9168 35.9104 42.9279 35.5799 42.9057C35.0326 42.8724 34.4853 42.839 33.938 42.8056C32.7917 42.739 31.6454 42.6834 30.4992 42.639C26.0896 42.45 21.6801 42.3612 17.2603 42.3723C14.8541 42.3834 12.448 42.4167 10.0419 42.4834C10.0109 41.8278 10.0316 41.1721 10.1038 40.5165C13.0986 40.5165 16.0934 40.5053 19.0881 40.5276C22.3617 40.5498 25.6456 40.6721 28.9192 40.7721C30.8193 40.8276 32.7194 40.8609 34.6195 40.8609C35.1152 40.8165 35.8381 40.9166 36.2718 41.1833C36.7675 41.4944 36.8191 42.2278 36.437 42.6501Z" fill="black"/>
<path d="M71.517 30.9485C71.5273 31.6263 71.5376 32.3042 71.5583 32.9821C71.5583 33.3043 71.5686 33.6155 71.5686 33.9378C71.5789 34.26 71.517 34.6823 71.5996 34.9823C71.7442 35.5046 72.6839 35.4824 73.0763 35.5268C75.0694 35.7713 77.0831 35.5268 79.0865 35.5268C81.8231 35.5157 84.57 35.6269 87.2962 35.8269C88.205 35.8936 89.1137 35.9714 90.0225 36.0491C90.0122 36.1158 90.0018 36.1714 89.9915 36.2381C89.9502 36.4937 90.0948 36.7492 90.3529 36.7492C92.2634 36.7714 94.1635 36.7937 96.0739 36.8048C96.1359 36.8048 96.1876 36.7937 96.2392 36.7603C96.3425 36.7715 96.4354 36.7826 96.5387 36.8048C96.7142 36.827 96.8278 36.7381 96.8691 36.6048C96.9517 36.4937 96.9621 36.3492 96.8588 36.1936C94.5766 32.9043 91.8503 29.9817 88.6903 27.6591C85.4374 25.2699 81.8127 23.792 77.9609 22.9474C75.7819 22.4696 73.572 22.1695 71.3517 21.9806C71.0833 21.9584 70.9593 22.2584 70.9903 22.4918C71.3724 25.3144 71.4653 28.137 71.517 30.9485ZM72.1882 34.5823C72.1572 34.5823 72.1882 34.5489 72.1882 34.5823V34.5823ZM93.5645 33.8711C94.3804 34.3489 95.1549 34.9823 95.5266 35.8825C93.9776 35.6824 92.4183 35.4935 90.8589 35.338C90.9416 34.3489 90.9209 33.3599 90.7763 32.382C91.7264 32.8598 92.6661 33.3377 93.5645 33.8711ZM82.6182 25.2032C86.1293 26.5812 89.3099 28.8593 92.0362 31.593C92.3873 31.9375 92.7178 32.3042 93.0585 32.6598C92.2118 32.2042 91.3443 31.7819 90.4975 31.3374C90.1774 31.1707 89.8882 31.5041 89.9295 31.7819C89.9295 31.8041 89.9295 31.8263 89.9399 31.8597C90.1671 32.9821 90.229 34.1378 90.1361 35.2713C86.9967 34.9712 83.8471 34.7934 80.6974 34.749C79.3653 34.7267 78.0331 34.7379 76.6907 34.7712C75.7922 34.7934 74.8938 34.9046 73.9954 34.8268C73.6753 34.8045 73.3551 34.7712 73.035 34.7268C72.8285 34.7045 72.56 34.6045 72.3328 34.5823C72.3328 34.5267 72.3328 34.4711 72.3328 34.4156C72.3225 34.1044 72.3225 33.7822 72.3121 33.471C72.3018 32.7709 72.2915 32.0708 72.2812 31.3596C72.2295 28.5148 72.1366 25.67 71.8061 22.8585C75.4721 23.203 79.1484 23.8475 82.6182 25.2032Z" fill="black"/>
<path d="M62.3469 35.7491C63.8029 35.7713 65.259 35.7825 66.7151 35.8047C67.6754 35.8158 69.4413 36.1714 69.5446 34.649C69.5962 33.8933 69.493 33.0932 69.462 32.3265C69.431 31.5486 69.4103 30.7596 69.3794 29.9817C69.3277 28.4482 69.2864 26.9146 69.2658 25.3811C69.2555 24.581 69.2451 23.792 69.2451 22.9919C69.2451 22.9585 69.2451 22.9252 69.2348 22.8919C69.0902 21.7028 67.8304 21.5917 66.9113 21.5806C65.4449 21.5695 63.9888 21.5584 62.5224 21.5473C59.538 21.525 56.5536 21.4917 53.5795 21.4694C50.626 21.4472 47.6726 21.4139 44.7191 21.3917C43.9756 21.3806 43.2321 21.3806 42.4782 21.3694C41.7967 21.3583 41.0944 21.3028 40.4232 21.3583C40.0205 21.3917 39.5971 21.5361 39.2563 21.7806C38.8122 22.1029 38.7916 22.4807 38.8122 23.0252C38.9258 26.0701 38.7606 29.126 38.8845 32.1709C38.9258 33.2488 38.7606 34.849 40.0928 35.0157C41.5695 35.1935 43.0772 35.2491 44.5642 35.3269C50.4814 35.6491 56.4193 35.6824 62.3469 35.7491ZM41.8999 34.349C41.5695 34.3268 41.239 34.3045 40.9086 34.2712C40.6194 34.2489 40.0927 34.3156 39.8552 34.0934C39.6487 33.9044 39.7003 33.4933 39.6797 33.2266C39.659 32.9043 39.6384 32.5709 39.6281 32.2487C39.5971 31.5374 39.5867 30.8152 39.5867 30.1039C39.5764 28.7593 39.6074 27.4036 39.6074 26.059C39.6074 25.37 39.6074 24.681 39.5867 23.9809C39.5764 23.6253 39.5661 23.2808 39.5557 22.9252C39.5454 22.614 39.5041 22.5474 39.752 22.3918C40.1134 22.1696 40.5058 22.1473 40.9086 22.1584C41.6314 22.1696 42.344 22.1696 43.0668 22.1807C45.7724 22.2029 48.4781 22.2251 51.1837 22.2473C54.2197 22.2695 57.2558 22.3029 60.2918 22.3251C61.7789 22.3362 63.2763 22.3473 64.7633 22.3584C65.5378 22.3696 66.3123 22.3696 67.0868 22.3807C67.4896 22.3807 68.4603 22.3584 68.5016 22.9696C68.5119 25.8256 68.5945 28.6704 68.6875 31.5263C68.7081 32.2264 68.7391 32.9266 68.7598 33.6267C68.7701 33.9267 68.863 34.3489 68.7804 34.6379C68.6771 35.0379 68.3364 35.0046 68.0266 34.9935C66.7048 34.9824 65.3933 34.9602 64.0714 34.949C58.6705 34.8824 53.2593 34.8601 47.8585 34.649C46.4747 34.5934 45.1012 34.5268 43.7174 34.449C43.1185 34.4379 42.5092 34.3934 41.8999 34.349Z" fill="black"/>
<path d="M37.3458 21.6917C36.9121 20.9916 35.8898 21.0583 35.1359 21.0471C33.6695 21.0249 32.1928 21.0138 30.7264 20.9916C27.7833 20.9582 24.8505 20.9249 21.9074 20.8805C20.2448 20.8582 18.5821 20.836 16.9195 20.8249C16.7233 20.8249 16.5271 21.0138 16.5478 21.225C16.6304 22.514 16.5994 23.7919 16.5168 25.081C16.4548 26.1033 16.3309 27.1146 16.4445 28.137C16.6407 29.8038 17.3533 31.3819 18.4686 32.5598C19.5942 33.76 21.0709 34.5045 22.6509 34.7045C23.7145 34.8379 24.8092 34.8157 25.8832 34.849C27.0501 34.8823 28.217 34.9045 29.3839 34.9268C32.0585 34.9712 34.7435 35.0157 37.4181 35.0601C37.6143 35.0601 37.8002 34.8712 37.7899 34.6601C37.6763 30.4595 37.6247 26.2478 37.6143 22.0473C37.604 21.8584 37.4801 21.7361 37.3458 21.6917ZM24.076 33.9933C23.1879 33.96 22.3204 33.9267 21.4633 33.6266C20.7404 33.3821 20.0589 32.982 19.4702 32.4709C18.324 31.4707 17.5391 30.0706 17.25 28.5148C17.0538 27.4369 17.188 26.3478 17.25 25.2588C17.3223 24.0475 17.3636 22.8474 17.312 21.6361C20.6785 21.6805 24.0347 21.7139 27.4012 21.7583C29.1257 21.7806 30.84 21.8028 32.5645 21.825C33.4526 21.8361 34.3407 21.8472 35.2288 21.8583C35.7658 21.8695 36.7159 21.6695 36.8295 22.4585C36.8398 22.514 36.8501 22.5584 36.8708 22.5918C36.8811 26.4812 36.9328 30.3817 37.036 34.2711C32.6988 34.2045 28.3822 34.1822 24.076 33.9933Z" fill="black"/>
<path d="M107.196 42.7501C106.545 42.6834 104.635 42.3945 103.984 42.439C103.778 42.4278 103.561 42.5278 103.427 42.7056C104.304 43.6391 105.492 44.217 106.721 44.3281C107.072 44.3614 107.454 44.3392 107.753 44.1392C108.053 43.9391 108.229 43.4835 108.043 43.1501C107.888 42.8501 107.516 42.7723 107.196 42.7501Z" fill="black"/>
<path d="M78.9729 39.5829C78.4359 39.1829 76.5564 39.1495 75.6683 39.3051C75.121 39.3162 74.584 39.4385 74.078 39.6496C74.0367 39.6718 73.9851 39.6941 73.9644 39.7385C73.9334 39.7941 73.9541 39.8607 73.9851 39.9163C74.0987 40.1274 74.3465 40.2052 74.5737 40.2608C75.3172 40.4497 76.0711 40.6053 76.8249 40.6275C77.5788 40.6498 78.3636 40.4941 79.0245 40.083C79.0658 40.0608 79.1174 40.0274 79.1381 39.9718C79.2104 39.8385 79.0968 39.6718 78.9729 39.5829Z" fill="black"/>
<path d="M67.6238 39.383C67.0868 38.9829 65.2074 38.9496 64.3193 39.1051C63.772 39.1163 63.235 39.2385 62.729 39.4496C62.6877 39.4719 62.636 39.4941 62.6154 39.5385C62.5844 39.5941 62.605 39.6608 62.636 39.7163C62.7496 39.9275 62.9975 40.0053 63.2247 40.0608C63.9682 40.2498 64.722 40.4053 65.4759 40.4275C66.24 40.4386 67.0146 40.2942 67.6755 39.883C67.7168 39.8608 67.7684 39.8275 67.7891 39.7719C67.8614 39.6385 67.7374 39.4719 67.6238 39.383Z" fill="black"/>
<path d="M47.8481 9.89021L44.843 0H46.1235L47.5589 4.86729C47.9514 6.2008 48.2921 7.401 48.54 8.56782H48.571C48.8291 7.42322 49.2112 6.1786 49.6243 4.88954L51.1836 0H52.4538L49.1699 9.89021H47.8481Z" fill="black"/>
<path d="M56.5949 9.8902L56.502 8.99007H56.4607C56.0889 9.5457 55.3867 10.0458 54.4469 10.0458C53.1148 10.0458 52.4332 9.03453 52.4332 8.00106C52.4332 6.28972 53.848 5.34514 56.3987 5.35626V5.21179C56.3987 4.62282 56.2438 3.56712 54.9013 3.56712C54.292 3.56712 53.6518 3.76715 53.1871 4.10053L52.9186 3.24486C53.4659 2.86703 54.2507 2.61145 55.0872 2.61145C57.1009 2.61145 57.5966 4.08941 57.5966 5.51182V8.16775C57.5966 8.77894 57.6276 9.39011 57.7102 9.86795H56.5949V9.8902ZM56.4193 6.26748C55.1078 6.23414 53.6208 6.48972 53.6208 7.86768C53.6208 8.70113 54.1371 9.10119 54.7568 9.10119C55.6139 9.10119 56.1612 8.5122 56.3471 7.91212C56.3884 7.77877 56.4193 7.63434 56.4193 7.50099V6.26748Z" fill="black"/>
<path d="M59.5173 4.71166C59.5173 3.97822 59.507 3.37814 59.4657 2.78917H60.5294L60.6016 3.96712H60.6326C60.9631 3.28925 61.7273 2.63361 62.8116 2.63361C63.7203 2.63361 65.1454 3.22257 65.1454 5.65623V9.90126H63.9372V5.81179C63.9372 4.66719 63.5448 3.71152 62.4088 3.71152C61.6137 3.71152 61.0044 4.31159 60.7979 5.03391C60.7462 5.2006 60.7153 5.41175 60.7153 5.63401V9.90126H59.5173V4.71166Z" fill="black"/>
</svg>
