<?xml version="1.0" standalone="no"?>
<!DOCTYPE svg PUBLIC "-//W3C//DTD SVG 20010904//EN"
 "http://www.w3.org/TR/2001/REC-SVG-20010904/DTD/svg10.dtd">
<svg version="1.0" xmlns="http://www.w3.org/2000/svg"
 width="500.000000pt" height="500.000000pt" viewBox="0 0 500.000000 500.000000"
 preserveAspectRatio="xMidYMid meet">

<g transform="translate(0.000000,500.000000) scale(0.100000,-0.100000)"
fill="#000000" stroke="none">
<path d="M2201 4624 c-390 -53 -768 -225 -1095 -496 -363 -304 -600 -709 -704
-1208 -65 -308 -52 -628 39 -968 98 -371 265 -661 533 -927 337 -334 699 -522
1176 -612 138 -25 525 -25 665 0 425 79 746 223 1036 465 393 329 662 803 744
1312 21 132 21 522 -1 645 -129 746 -559 1310 -1239 1622 -173 79 -381 138
-593 167 -139 20 -417 19 -561 0z m664 -314 c714 -152 1272 -711 1420 -1423
33 -155 44 -428 25 -598 -46 -419 -227 -781 -546 -1090 -590 -570 -1498 -683
-2194 -271 -227 134 -455 351 -618 590 -189 276 -282 606 -282 996 0 311 53
558 174 811 66 138 123 227 218 341 320 381 737 610 1209 663 145 16 478 6
594 -19z"/>
<path d="M2335 4024 c-144 -16 -285 -48 -285 -65 0 -11 272 -619 366 -819 38
-80 73 -147 79 -148 5 -2 35 54 65 125 31 70 127 286 213 480 87 193 157 356
157 361 0 39 -418 85 -595 66z"/>
<path d="M1591 3739 c-105 -80 -228 -199 -290 -282 l-43 -56 70 -158 c38 -87
133 -303 211 -481 118 -268 224 -506 405 -904 11 -27 25 -47 29 -45 4 1 50
101 102 222 52 121 118 267 147 325 l53 105 210 2 c116 2 216 -1 222 -5 10 -6
206 -436 281 -615 8 -21 19 -36 25 -34 5 1 49 95 98 207 50 113 124 282 166
375 41 94 152 343 245 555 93 212 177 400 185 418 15 32 15 33 -28 89 -68 90
-206 222 -303 291 -49 34 -94 62 -101 62 -7 0 -22 -21 -33 -47 -12 -27 -42
-95 -68 -153 -25 -58 -70 -161 -99 -230 -82 -192 -267 -603 -322 -715 l-49
-100 -217 -3 -218 -2 -40 87 c-22 49 -119 266 -214 483 -235 535 -300 675
-316 677 -8 2 -56 -29 -108 -68z"/>
<path d="M3911 2933 c-19 -52 -239 -548 -378 -853 -146 -319 -406 -930 -399
-937 3 -3 45 18 93 47 422 253 676 606 760 1054 24 130 24 411 -1 526 -23 113
-48 200 -56 200 -3 0 -12 -17 -19 -37z"/>
<path d="M1036 2943 c-2 -10 -14 -49 -25 -88 -34 -120 -44 -224 -38 -403 4
-129 11 -191 30 -273 47 -199 130 -378 253 -549 72 -100 253 -278 360 -352 87
-61 232 -143 240 -136 2 3 -11 38 -30 79 -19 41 -77 171 -129 289 -251 571
-330 748 -457 1030 -170 376 -191 420 -195 420 -2 0 -6 -8 -9 -17z"/>
<path d="M2474 2028 c-4 -13 -84 -194 -179 -403 -235 -519 -245 -541 -245
-553 0 -44 390 -85 605 -63 105 11 259 42 272 55 11 10 -423 986 -439 986 -3
0 -10 -10 -14 -22z"/>
</g>
</svg>
